<?xml version="1.0" encoding="UTF-8" standalone="no"?>
<!DOCTYPE svg PUBLIC "-//W3C//DTD SVG 1.1//EN"
 "http://www.w3.org/Graphics/SVG/1.1/DTD/svg11.dtd">
<!-- Generated by graphviz version 2.26.0 (20091210.2329)
 -->
<!-- Title: _anonymous_0 Pages: 1 -->
<svg width="174pt" height="56pt"
 viewBox="0.00 0.00 174.00 56.00" xmlns="http://www.w3.org/2000/svg" xmlns:xlink="http://www.w3.org/1999/xlink">
<g id="graph1" class="graph" transform="scale(1 1) rotate(0) translate(4 52)">
<title>_anonymous_0</title>
<polygon fill="white" stroke="white" points="-4,5 -4,-52 171,-52 171,5 -4,5"/>
<!-- Action -->
<g id="node1" class="node"><title>Action</title>
<a xlink:href="/help/idmefnav?idmef_class=Action" xlink:title="The Action class is used to describe any actions taken by the analyzer in response to the event. &#160;Is is represented in the IDMEF DTD as follows: ">
<polygon fill="#993015" stroke="#993015" points="9,-23 9,-44 158,-44 158,-23 9,-23"/>
<polygon fill="none" stroke="black" points="9,-23 9,-44 158,-44 158,-23 9,-23"/>
<text text-anchor="start" x="65" y="-30.2333" font-family="Times Roman,serif" font-size="14.00">Action</text>
</a>
<a xlink:href="/help/idmefnav?idmef_class=Action" xlink:title="The default value is &quot;other&quot;. &#160;(See also Section 10.)">
<polygon fill="#ff5024" stroke="#ff5024" points="9,-3 9,-23 158,-23 158,-3 9,-3"/>
<polygon fill="none" stroke="black" points="9,-3 9,-23 158,-23 158,-3 9,-3"/>
<text text-anchor="start" x="12.5" y="-9.73333" font-family="Times Roman,serif" font-size="14.00">[ENUM] category (None)</text>
</a>
</g>
</g>
</svg>
