<?xml version="1.0" encoding="UTF-8" standalone="no"?>
<!DOCTYPE svg PUBLIC "-//W3C//DTD SVG 1.1//EN"
 "http://www.w3.org/Graphics/SVG/1.1/DTD/svg11.dtd">
<!-- Generated by graphviz version 2.26.0 (20091210.2329)
 -->
<!-- Title: _anonymous_0 Pages: 1 -->
<svg width="200pt" height="56pt"
 viewBox="0.00 0.00 200.00 56.00" xmlns="http://www.w3.org/2000/svg" xmlns:xlink="http://www.w3.org/1999/xlink">
<g id="graph1" class="graph" transform="scale(1 1) rotate(0) translate(4 52)">
<title>_anonymous_0</title>
<polygon fill="white" stroke="white" points="-4,5 -4,-52 197,-52 197,5 -4,5"/>
<!-- AdditionalData -->
<g id="node1" class="node"><title>AdditionalData</title>
<a xlink:href="/help/idmefnav?idmef_class=AdditionalData" xlink:title="The AdditionalData class is used to provide information that cannot be represented by the data model. &#160;AdditionalData can be used to provide atomic data (integers, strings, etc.) in cases where only small amounts of additional information need to be sent; it can also be used to extend the data model and the DTD to support the transmission of complex data (such as packet headers). &#160;Detailed instructions for extending the data model and the DTD are provided in Section 5. ">
<polygon fill="#431c60" stroke="#431c60" points="8,-23 8,-44 184,-44 184,-23 8,-23"/>
<polygon fill="none" stroke="black" points="8,-23 8,-44 184,-44 184,-23 8,-23"/>
<text text-anchor="start" x="54" y="-30.2333" font-family="Times Roman,serif" font-size="14.00">AdditionalData</text>
</a>
<a xlink:href="/help/idmefnav?idmef_class=AdditionalData" xlink:title="A string describing the meaning of the element content. These values will be vendor/implementation dependent; the method for ensuring that managers understand the strings sent by analyzers is outside the scope of this specification. &#160;A list of acceptable meaning keywords is not within the scope of the document, although later versions may undertake to establish such a list.">
<polygon fill="#7030a0" stroke="#7030a0" points="8,-3 8,-23 184,-23 184,-3 8,-3"/>
<polygon fill="none" stroke="black" points="8,-3 8,-23 184,-23 184,-3 8,-3"/>
<text text-anchor="start" x="11.5" y="-9.73333" font-family="Times Roman,serif" font-size="14.00">[STRING] meaning (Optional)</text>
</a>
</g>
</g>
</svg>
