<?xml version="1.0" encoding="UTF-8" standalone="no"?>
<!DOCTYPE svg PUBLIC "-//W3C//DTD SVG 1.1//EN"
 "http://www.w3.org/Graphics/SVG/1.1/DTD/svg11.dtd">
<!-- Generated by graphviz version 2.26.0 (20091210.2329)
 -->
<!-- Title: _anonymous_0 Pages: 1 -->
<svg width="216pt" height="156pt"
 viewBox="0.00 0.00 216.00 156.00" xmlns="http://www.w3.org/2000/svg" xmlns:xlink="http://www.w3.org/1999/xlink">
<g id="graph1" class="graph" transform="scale(1 1) rotate(0) translate(4 152)">
<title>_anonymous_0</title>
<polygon fill="white" stroke="white" points="-4,5 -4,-152 213,-152 213,5 -4,5"/>
<!-- Address -->
<g id="node1" class="node"><title>Address</title>
<a xlink:href="/help/idmefnav?idmef_class=Address" xlink:title="The Address class is used to represent network, hardware, and application addresses. ">
<polygon fill="#007a00" stroke="#007a00" points="9,-123 9,-144 200,-144 200,-123 9,-123"/>
<polygon fill="none" stroke="black" points="9,-123 9,-144 200,-144 200,-123 9,-123"/>
<text text-anchor="start" x="82" y="-130.233" font-family="Times Roman,serif" font-size="14.00">Address</text>
</a>
<a xlink:href="/help/idmefnav?idmef_class=Address" xlink:title="The network mask for the address, if appropriate.">
<polygon fill="#00cc00" stroke="#00cc00" points="9,-103 9,-123 200,-123 200,-103 9,-103"/>
<polygon fill="none" stroke="black" points="9,-103 9,-123 200,-123 200,-103 9,-103"/>
<text text-anchor="start" x="33.5" y="-109.733" font-family="Times Roman,serif" font-size="14.00">[STRING] netmask (0..1)</text>
</a>
<a xlink:href="/help/idmefnav?idmef_class=Address" xlink:title="The address information. &#160;The format of this data is governed by the category attribute.">
<polygon fill="#00cc00" stroke="#00cc00" points="9,-83 9,-103 200,-103 200,-83 9,-83"/>
<polygon fill="none" stroke="black" points="9,-83 9,-103 200,-103 200,-83 9,-83"/>
<text text-anchor="start" x="43.5" y="-89.7333" font-family="Times Roman,serif" font-size="14.00">[STRING] address (1)</text>
</a>
<a xlink:href="/help/idmefnav?idmef_class=Address" xlink:title="The type of address represented. &#160;The permitted values for this attribute are shown below. &#160;The default value is &quot;unknown&quot;. &#160;(See also Section 10.)">
<polygon fill="#00cc00" stroke="#00cc00" points="9,-63 9,-83 200,-83 200,-63 9,-63"/>
<polygon fill="none" stroke="black" points="9,-63 9,-83 200,-83 200,-63 9,-63"/>
<text text-anchor="start" x="24.5" y="-69.7333" font-family="Times Roman,serif" font-size="14.00">[ENUM] category (Optional)</text>
</a>
<a xlink:href="/help/idmefnav?idmef_class=Address" xlink:title="The name of the Virtual LAN to which the address belongs.">
<polygon fill="#00cc00" stroke="#00cc00" points="9,-43 9,-63 200,-63 200,-43 9,-43"/>
<polygon fill="none" stroke="black" points="9,-43 9,-63 200,-63 200,-43 9,-43"/>
<text text-anchor="start" x="14.5" y="-49.7333" font-family="Times Roman,serif" font-size="14.00">[STRING] vlan&#45;name (Optional)</text>
</a>
<a xlink:href="/help/idmefnav?idmef_class=Address" xlink:title="The number of the Virtual LAN to which the address belongs.">
<polygon fill="#00cc00" stroke="#00cc00" points="9,-23 9,-43 200,-43 200,-23 9,-23"/>
<polygon fill="none" stroke="black" points="9,-23 9,-43 200,-43 200,-23 9,-23"/>
<text text-anchor="start" x="12.5" y="-29.7333" font-family="Times Roman,serif" font-size="14.00">[INTEGER] vlan&#45;num (Optional)</text>
</a>
<a xlink:href="/help/idmefnav?idmef_class=Address" xlink:title="A unique identifier for the address; see Section 3.2.9.">
<polygon fill="#00cc00" stroke="#00cc00" points="9,-3 9,-23 200,-23 200,-3 9,-3"/>
<polygon fill="none" stroke="black" points="9,-3 9,-23 200,-23 200,-3 9,-3"/>
<text text-anchor="start" x="30" y="-9.73333" font-family="Times Roman,serif" font-size="14.00">[STRING] ident (Optional)</text>
</a>
</g>
</g>
</svg>
