<?xml version="1.0" encoding="UTF-8" standalone="no"?>
<!DOCTYPE svg PUBLIC "-//W3C//DTD SVG 1.1//EN"
 "http://www.w3.org/Graphics/SVG/1.1/DTD/svg11.dtd">
<!-- Generated by graphviz version 2.26.0 (20091210.2329)
 -->
<!-- Title: _anonymous_0 Pages: 1 -->
<svg width="734pt" height="302pt"
 viewBox="0.00 0.00 734.00 302.00" xmlns="http://www.w3.org/2000/svg" xmlns:xlink="http://www.w3.org/1999/xlink">
<g id="graph1" class="graph" transform="scale(1 1) rotate(0) translate(4 298)">
<title>_anonymous_0</title>
<polygon fill="white" stroke="white" points="-4,5 -4,-298 731,-298 731,5 -4,5"/>
<!-- Address -->
<g id="node1" class="node"><title>Address</title>
<a xlink:href="/help/idmefnav?idmef_class=Address" xlink:title="The Address class is used to represent network, hardware, and application addresses. ">
<polygon fill="#007a00" stroke="#007a00" points="527,-269 527,-290 718,-290 718,-269 527,-269"/>
<polygon fill="none" stroke="black" points="527,-269 527,-290 718,-290 718,-269 527,-269"/>
<text text-anchor="start" x="600" y="-276.233" font-family="Times Roman,serif" font-size="14.00">Address</text>
</a>
<a xlink:href="/help/idmefnav?idmef_class=Address" xlink:title="The network mask for the address, if appropriate.">
<polygon fill="#00cc00" stroke="#00cc00" points="527,-249 527,-269 718,-269 718,-249 527,-249"/>
<polygon fill="none" stroke="black" points="527,-249 527,-269 718,-269 718,-249 527,-249"/>
<text text-anchor="start" x="551.5" y="-255.733" font-family="Times Roman,serif" font-size="14.00">[STRING] netmask (0..1)</text>
</a>
<a xlink:href="/help/idmefnav?idmef_class=Address" xlink:title="The address information. &#160;The format of this data is governed by the category attribute.">
<polygon fill="#00cc00" stroke="#00cc00" points="527,-229 527,-249 718,-249 718,-229 527,-229"/>
<polygon fill="none" stroke="black" points="527,-229 527,-249 718,-249 718,-229 527,-229"/>
<text text-anchor="start" x="561.5" y="-235.733" font-family="Times Roman,serif" font-size="14.00">[STRING] address (1)</text>
</a>
<a xlink:href="/help/idmefnav?idmef_class=Address" xlink:title="The type of address represented. &#160;The permitted values for this attribute are shown below. &#160;The default value is &quot;unknown&quot;. &#160;(See also Section 10.)">
<polygon fill="#00cc00" stroke="#00cc00" points="527,-209 527,-229 718,-229 718,-209 527,-209"/>
<polygon fill="none" stroke="black" points="527,-209 527,-229 718,-229 718,-209 527,-209"/>
<text text-anchor="start" x="542.5" y="-215.733" font-family="Times Roman,serif" font-size="14.00">[ENUM] category (Optional)</text>
</a>
<a xlink:href="/help/idmefnav?idmef_class=Address" xlink:title="The name of the Virtual LAN to which the address belongs.">
<polygon fill="#00cc00" stroke="#00cc00" points="527,-189 527,-209 718,-209 718,-189 527,-189"/>
<polygon fill="none" stroke="black" points="527,-189 527,-209 718,-209 718,-189 527,-189"/>
<text text-anchor="start" x="532.5" y="-195.733" font-family="Times Roman,serif" font-size="14.00">[STRING] vlan&#45;name (Optional)</text>
</a>
<a xlink:href="/help/idmefnav?idmef_class=Address" xlink:title="The number of the Virtual LAN to which the address belongs.">
<polygon fill="#00cc00" stroke="#00cc00" points="527,-169 527,-189 718,-189 718,-169 527,-169"/>
<polygon fill="none" stroke="black" points="527,-169 527,-189 718,-189 718,-169 527,-169"/>
<text text-anchor="start" x="530.5" y="-175.733" font-family="Times Roman,serif" font-size="14.00">[INTEGER] vlan&#45;num (Optional)</text>
</a>
<a xlink:href="/help/idmefnav?idmef_class=Address" xlink:title="A unique identifier for the address; see Section 3.2.9.">
<polygon fill="#00cc00" stroke="#00cc00" points="527,-149 527,-169 718,-169 718,-149 527,-149"/>
<polygon fill="none" stroke="black" points="527,-149 527,-169 718,-169 718,-149 527,-149"/>
<text text-anchor="start" x="548" y="-155.733" font-family="Times Roman,serif" font-size="14.00">[STRING] ident (Optional)</text>
</a>
</g>
<!-- Node -->
<g id="node2" class="node"><title>Node</title>
<a xlink:href="/help/idmefnav?idmef_class=Node" xlink:title="The Node class is used to identify hosts and other network devices (routers, switches, etc.). ">
<polygon fill="#007a00" stroke="#007a00" points="285,-249 285,-270 452,-270 452,-249 285,-249"/>
<polygon fill="none" stroke="black" points="285,-249 285,-270 452,-270 452,-249 285,-249"/>
<text text-anchor="start" x="353.5" y="-256.233" font-family="Times Roman,serif" font-size="14.00">Node</text>
</a>
<a xlink:href="/help/idmefnav?idmef_class=Node" xlink:title="The location of the equipment.">
<polygon fill="#00cc00" stroke="#00cc00" points="285,-229 285,-249 452,-249 452,-229 285,-229"/>
<polygon fill="none" stroke="black" points="285,-229 285,-249 452,-249 452,-229 285,-229"/>
<text text-anchor="start" x="299" y="-235.733" font-family="Times Roman,serif" font-size="14.00">[STRING] location (0..1)</text>
</a>
<a xlink:href="/help/idmefnav?idmef_class=Node" xlink:title="The name of the equipment. &#160;This information MUST be provided if no Address information is given.">
<polygon fill="#00cc00" stroke="#00cc00" points="285,-209 285,-229 452,-229 452,-209 285,-209"/>
<polygon fill="none" stroke="black" points="285,-209 285,-229 452,-229 452,-209 285,-209"/>
<text text-anchor="start" x="305.5" y="-215.733" font-family="Times Roman,serif" font-size="14.00">[STRING] name (0..1)</text>
</a>
<a xlink:href="/help/idmefnav?idmef_class=Node" xlink:title="The &quot;domain&quot; from which the name information was obtained, if relevant. &#160;The permitted values for this attribute are shown in the table below. &#160;The default value is &quot;unknown&quot;. (See also Section 10 for extensions to the table.)">
<polygon fill="#00cc00" stroke="#00cc00" points="285,-189 285,-209 452,-209 452,-189 285,-189"/>
<polygon fill="none" stroke="black" points="285,-189 285,-209 452,-209 452,-189 285,-189"/>
<text text-anchor="start" x="288.5" y="-195.733" font-family="Times Roman,serif" font-size="14.00">[ENUM] category (Optional)</text>
</a>
<a xlink:href="/help/idmefnav?idmef_class=Node" xlink:title="A unique identifier for the node; see Section 3.2.9.">
<polygon fill="#00cc00" stroke="#00cc00" points="285,-169 285,-189 452,-189 452,-169 285,-169"/>
<polygon fill="none" stroke="black" points="285,-169 285,-189 452,-189 452,-169 285,-169"/>
<text text-anchor="start" x="294" y="-175.733" font-family="Times Roman,serif" font-size="14.00">[STRING] ident (Optional)</text>
</a>
</g>
<!-- Node&#45;&#45;Address -->
<g id="edge2" class="edge"><title>Node&#45;&#45;Address</title>
<path fill="none" stroke="black" d="M459.7,-220C475.468,-220 492.026,-220 508.289,-220"/>
<polygon fill="black" stroke="black" points="508.368,-223.5 518.368,-220 508.368,-216.5 508.368,-223.5"/>
<text text-anchor="middle" x="489" y="-226.4" font-family="Times Roman,serif" font-size="14.00">0..*</text>
</g>
<!-- Analyzer -->
<g id="node4" class="node"><title>Analyzer</title>
<a xlink:href="/help/idmefnav?idmef_class=Analyzer" xlink:title="The Analyzer class identifies the analyzer from which the Alert or Heartbeat message originates. &#160;Only one analyzer may be encoded for each alert or heartbeat, and that MUST be the analyzer at which the alert or heartbeat originated. &#160;Although the IDMEF data model does not prevent the use of hierarchical intrusion detection systems (where alerts get relayed up the tree), it does not provide any way to record the identity of the &quot;relay&quot; analyzers along the path from the originating analyzer to the manager that ultimately receives the alert. ">
<polygon fill="#99993d" stroke="#99993d" points="8,-190 8,-211 210,-211 210,-190 8,-190"/>
<polygon fill="none" stroke="black" points="8,-190 8,-211 210,-211 210,-190 8,-190"/>
<text text-anchor="start" x="84" y="-197.233" font-family="Times Roman,serif" font-size="14.00">Analyzer</text>
</a>
<a xlink:href="/help/idmefnav?idmef_class=Analyzer" xlink:title="An explicit name for the analyzer that may be easier to understand than the analyzerid.">
<polygon fill="#ffff66" stroke="#ffff66" points="8,-170 8,-190 210,-190 210,-170 8,-170"/>
<polygon fill="none" stroke="black" points="8,-170 8,-190 210,-190 210,-170 8,-170"/>
<text text-anchor="start" x="33" y="-176.733" font-family="Times Roman,serif" font-size="14.00">[STRING] name (Optional)</text>
</a>
<a xlink:href="/help/idmefnav?idmef_class=Analyzer" xlink:title="The version number of the analyzer software and/or hardware.">
<polygon fill="#ffff66" stroke="#ffff66" points="8,-150 8,-170 210,-170 210,-150 8,-150"/>
<polygon fill="none" stroke="black" points="8,-150 8,-170 210,-170 210,-150 8,-150"/>
<text text-anchor="start" x="28" y="-156.733" font-family="Times Roman,serif" font-size="14.00">[STRING] version (Optional)</text>
</a>
<a xlink:href="/help/idmefnav?idmef_class=Analyzer" xlink:title="Operating system name. &#160;On POSIX 1003.1 compliant systems, this is the value returned in utsname.sysname by the uname() system call, or the output of the &quot;uname &#45;s&quot; command.">
<polygon fill="#ffff66" stroke="#ffff66" points="8,-130 8,-150 210,-150 210,-130 8,-130"/>
<polygon fill="none" stroke="black" points="8,-130 8,-150 210,-150 210,-130 8,-130"/>
<text text-anchor="start" x="30.5" y="-136.733" font-family="Times Roman,serif" font-size="14.00">[STRING] ostype (Optional)</text>
</a>
<a xlink:href="/help/idmefnav?idmef_class=Analyzer" xlink:title="The model name/number of the analyzer software and/or hardware.">
<polygon fill="#ffff66" stroke="#ffff66" points="8,-110 8,-130 210,-130 210,-110 8,-110"/>
<polygon fill="none" stroke="black" points="8,-110 8,-130 210,-130 210,-110 8,-110"/>
<text text-anchor="start" x="30.5" y="-116.733" font-family="Times Roman,serif" font-size="14.00">[STRING] model (Optional)</text>
</a>
<a xlink:href="/help/idmefnav?idmef_class=Analyzer" xlink:title="Operating system version. &#160;On POSIX 1003.1 compliant systems, this is the value returned in utsname.release by the uname() system call, or the output of the &quot;uname &#45;r&quot; command.">
<polygon fill="#ffff66" stroke="#ffff66" points="8,-90 8,-110 210,-110 210,-90 8,-90"/>
<polygon fill="none" stroke="black" points="8,-90 8,-110 210,-110 210,-90 8,-90"/>
<text text-anchor="start" x="22" y="-96.7333" font-family="Times Roman,serif" font-size="14.00">[STRING] osversion (Optional)</text>
</a>
<a xlink:href="/help/idmefnav?idmef_class=Analyzer" xlink:title="The class of analyzer software and/or hardware.">
<polygon fill="#ffff66" stroke="#ffff66" points="8,-70 8,-90 210,-90 210,-70 8,-70"/>
<polygon fill="none" stroke="black" points="8,-70 8,-90 210,-90 210,-70 8,-70"/>
<text text-anchor="start" x="35" y="-76.7333" font-family="Times Roman,serif" font-size="14.00">[STRING] class (Optional)</text>
</a>
<a xlink:href="/help/idmefnav?idmef_class=Analyzer" xlink:title="The manufacturer of the analyzer software and/or hardware.">
<polygon fill="#ffff66" stroke="#ffff66" points="8,-50 8,-70 210,-70 210,-50 8,-50"/>
<polygon fill="none" stroke="black" points="8,-50 8,-70 210,-70 210,-50 8,-50"/>
<text text-anchor="start" x="11.5" y="-56.7333" font-family="Times Roman,serif" font-size="14.00">[STRING] manufacturer (Optional)</text>
</a>
<a xlink:href="/help/idmefnav?idmef_class=Analyzer" xlink:title="(but see below). &#160;A unique identifier for the analyzer; see Section 3.2.9.">
<polygon fill="#ffff66" stroke="#ffff66" points="8,-30 8,-50 210,-50 210,-30 8,-30"/>
<polygon fill="none" stroke="black" points="8,-30 8,-50 210,-50 210,-30 8,-30"/>
<text text-anchor="start" x="20" y="-36.7333" font-family="Times Roman,serif" font-size="14.00">[STRING] analyzerid (Optional)</text>
</a>
</g>
<!-- Analyzer&#45;&#45;Node -->
<g id="edge4" class="edge"><title>Analyzer&#45;&#45;Node</title>
<path fill="none" stroke="black" d="M218.089,-162.698C234.268,-168.882 250.883,-175.233 266.89,-181.352"/>
<polygon fill="black" stroke="black" points="265.646,-184.623 276.236,-184.924 268.145,-178.084 265.646,-184.623"/>
<text text-anchor="middle" x="247" y="-183.4" font-family="Times Roman,serif" font-size="14.00">0..1</text>
</g>
<!-- Analyzer&#45;&#45;Analyzer -->
<g id="edge8" class="edge"><title>Analyzer&#45;&#45;Analyzer</title>
<path fill="none" stroke="black" d="M87.0732,-215.373C91.1794,-226.068 98.4883,-233 109,-233 116.227,-233 121.94,-229.724 126.139,-224.201"/>
<polygon fill="black" stroke="black" points="129.236,-225.832 130.927,-215.373 123.082,-222.495 129.236,-225.832"/>
<text text-anchor="middle" x="109" y="-239.4" font-family="Times Roman,serif" font-size="14.00">0..1</text>
</g>
<!-- Process -->
<g id="node6" class="node"><title>Process</title>
<a xlink:href="/help/idmefnav?idmef_class=Process" xlink:title="The Process class is used to describe processes being executed on sources, targets, and analyzers. ">
<polygon fill="#997a3d" stroke="#997a3d" points="290,-123 290,-144 446,-144 446,-123 290,-123"/>
<polygon fill="none" stroke="black" points="290,-123 290,-144 446,-144 446,-123 290,-123"/>
<text text-anchor="start" x="347" y="-130.233" font-family="Times Roman,serif" font-size="14.00">Process</text>
</a>
<a xlink:href="/help/idmefnav?idmef_class=Process" xlink:title="The full path of the program being executed.">
<polygon fill="#ffcc66" stroke="#ffcc66" points="290,-103 290,-123 446,-123 446,-103 290,-103"/>
<polygon fill="none" stroke="black" points="290,-103 290,-123 446,-123 446,-103 290,-103"/>
<text text-anchor="start" x="308.5" y="-109.733" font-family="Times Roman,serif" font-size="14.00">[STRING] path (0..1)</text>
</a>
<a xlink:href="/help/idmefnav?idmef_class=Process" xlink:title="The process identifier of the process.">
<polygon fill="#ffcc66" stroke="#ffcc66" points="290,-83 290,-103 446,-103 446,-83 290,-83"/>
<polygon fill="none" stroke="black" points="290,-83 290,-103 446,-103 446,-83 290,-83"/>
<text text-anchor="start" x="307" y="-89.7333" font-family="Times Roman,serif" font-size="14.00">[INTEGER] pid (0..1)</text>
</a>
<a xlink:href="/help/idmefnav?idmef_class=Process" xlink:title="The name of the program being executed. This is a short name; path and argument information are provided elsewhere.">
<polygon fill="#ffcc66" stroke="#ffcc66" points="290,-63 290,-83 446,-83 446,-63 290,-63"/>
<polygon fill="none" stroke="black" points="290,-63 290,-83 446,-83 446,-63 290,-63"/>
<text text-anchor="start" x="312" y="-69.7333" font-family="Times Roman,serif" font-size="14.00">[STRING] name (1)</text>
</a>
<a xlink:href="/help/idmefnav?idmef_class=Process" xlink:title="An environment string associated with the process; generally of the format &quot;VARIABLE=value&quot;. &#160;Multiple environment strings may be specified with multiple uses of env.">
<polygon fill="#ffcc66" stroke="#ffcc66" points="290,-43 290,-63 446,-63 446,-43 290,-43"/>
<polygon fill="none" stroke="black" points="290,-43 290,-63 446,-63 446,-43 290,-43"/>
<text text-anchor="start" x="310.5" y="-49.7333" font-family="Times Roman,serif" font-size="14.00">[STRING] env (0..*)</text>
</a>
<a xlink:href="/help/idmefnav?idmef_class=Process" xlink:title="A command&#45;line argument to the program. Multiple arguments may be specified (they are assumed to have occurred in the same order they are provided) with multiple uses of arg.">
<polygon fill="#ffcc66" stroke="#ffcc66" points="290,-23 290,-43 446,-43 446,-23 290,-23"/>
<polygon fill="none" stroke="black" points="290,-23 290,-43 446,-43 446,-23 290,-23"/>
<text text-anchor="start" x="311.5" y="-29.7333" font-family="Times Roman,serif" font-size="14.00">[STRING] arg (0..*)</text>
</a>
<a xlink:href="/help/idmefnav?idmef_class=Process" xlink:title="A unique identifier for the process; see Section 3.2.9.">
<polygon fill="#ffcc66" stroke="#ffcc66" points="290,-3 290,-23 446,-23 446,-3 290,-3"/>
<polygon fill="none" stroke="black" points="290,-3 290,-23 446,-23 446,-3 290,-3"/>
<text text-anchor="start" x="293.5" y="-9.73333" font-family="Times Roman,serif" font-size="14.00">[STRING] ident (Optional)</text>
</a>
</g>
<!-- Analyzer&#45;&#45;Process -->
<g id="edge6" class="edge"><title>Analyzer&#45;&#45;Process</title>
<path fill="none" stroke="black" d="M218.089,-101.204C235.886,-97.9744 254.211,-94.649 271.673,-91.4802"/>
<polygon fill="black" stroke="black" points="272.63,-94.8639 281.844,-89.6345 271.38,-87.9763 272.63,-94.8639"/>
<text text-anchor="middle" x="247" y="-104.4" font-family="Times Roman,serif" font-size="14.00">0..1</text>
</g>
</g>
</svg>
