<?xml version="1.0" encoding="UTF-8" standalone="no"?>
<!DOCTYPE svg PUBLIC "-//W3C//DTD SVG 1.1//EN"
 "http://www.w3.org/Graphics/SVG/1.1/DTD/svg11.dtd">
<!-- Generated by graphviz version 2.26.0 (20091210.2329)
 -->
<!-- Title: _anonymous_0 Pages: 1 -->
<svg width="352pt" height="228pt"
 viewBox="0.00 0.00 352.00 228.00" xmlns="http://www.w3.org/2000/svg" xmlns:xlink="http://www.w3.org/1999/xlink">
<g id="graph1" class="graph" transform="scale(1 1) rotate(0) translate(4 224)">
<title>_anonymous_0</title>
<polygon fill="white" stroke="white" points="-4,5 -4,-224 349,-224 349,5 -4,5"/>
<!-- Impact -->
<g id="node1" class="node"><title>Impact</title>
<a xlink:href="/help/idmefnav?idmef_class=Impact" xlink:title="The Impact class is used to provide the analyzer&#39;s assessment of the impact of the event on the target(s). &#160;It is represented in the IDMEF DTD as follows: ">
<polygon fill="#993015" stroke="#993015" points="154,-195 154,-216 336,-216 336,-195 154,-195"/>
<polygon fill="none" stroke="black" points="154,-195 154,-216 336,-216 336,-195 154,-195"/>
<text text-anchor="start" x="225.5" y="-202.233" font-family="Times Roman,serif" font-size="14.00">Impact</text>
</a>
<a xlink:href="/help/idmefnav?idmef_class=Impact" xlink:title="Section 10.)">
<polygon fill="#ff5024" stroke="#ff5024" points="154,-175 154,-195 336,-195 336,-175 154,-175"/>
<polygon fill="none" stroke="black" points="154,-175 154,-195 336,-195 336,-175 154,-175"/>
<text text-anchor="start" x="157.5" y="-181.733" font-family="Times Roman,serif" font-size="14.00">[ENUM] completion (Optional)</text>
</a>
<a xlink:href="/help/idmefnav?idmef_class=Impact" xlink:title="value is &quot;other&quot;. &#160;(See also Section 10.)">
<polygon fill="#ff5024" stroke="#ff5024" points="154,-155 154,-175 336,-175 336,-155 154,-155"/>
<polygon fill="none" stroke="black" points="154,-155 154,-175 336,-175 336,-155 154,-155"/>
<text text-anchor="start" x="176.5" y="-161.733" font-family="Times Roman,serif" font-size="14.00">[ENUM] type (Optional)</text>
</a>
<a xlink:href="/help/idmefnav?idmef_class=Impact" xlink:title="Section 10.)">
<polygon fill="#ff5024" stroke="#ff5024" points="154,-135 154,-155 336,-155 336,-135 154,-135"/>
<polygon fill="none" stroke="black" points="154,-135 154,-155 336,-155 336,-135 154,-135"/>
<text text-anchor="start" x="166.5" y="-141.733" font-family="Times Roman,serif" font-size="14.00">[ENUM] severity (Optional)</text>
</a>
</g>
<!-- Assessment -->
<g id="node2" class="node"><title>Assessment</title>
<a xlink:href="/help/idmefnav?idmef_class=Assessment" xlink:title="The Assessment class is used to provide the analyzer&#39;s assessment of an event &#45;&#45; its impact, actions taken in response, and confidence. ">
<polygon fill="#993015" stroke="#993015" points="8,-79 8,-100 80,-100 80,-79 8,-79"/>
<polygon fill="none" stroke="black" points="8,-79 8,-100 80,-100 80,-79 8,-79"/>
<text text-anchor="start" x="11.5" y="-86.2333" font-family="Times Roman,serif" font-size="14.00">Assessment</text>
</a>
</g>
<!-- Assessment&#45;&#45;Impact -->
<g id="edge2" class="edge"><title>Assessment&#45;&#45;Impact</title>
<path fill="none" stroke="black" d="M86.1362,-108.028C101.037,-114.404 118.556,-121.9 136.419,-129.542"/>
<polygon fill="black" stroke="black" points="135.208,-132.831 145.779,-133.547 137.962,-126.396 135.208,-132.831"/>
<text text-anchor="middle" x="117" y="-131.4" font-family="Times Roman,serif" font-size="14.00">0..1</text>
</g>
<!-- Action -->
<g id="node4" class="node"><title>Action</title>
<a xlink:href="/help/idmefnav?idmef_class=Action" xlink:title="The Action class is used to describe any actions taken by the analyzer in response to the event. &#160;Is is represented in the IDMEF DTD as follows: ">
<polygon fill="#993015" stroke="#993015" points="171,-89 171,-110 320,-110 320,-89 171,-89"/>
<polygon fill="none" stroke="black" points="171,-89 171,-110 320,-110 320,-89 171,-89"/>
<text text-anchor="start" x="227" y="-96.2333" font-family="Times Roman,serif" font-size="14.00">Action</text>
</a>
<a xlink:href="/help/idmefnav?idmef_class=Action" xlink:title="The default value is &quot;other&quot;. &#160;(See also Section 10.)">
<polygon fill="#ff5024" stroke="#ff5024" points="171,-69 171,-89 320,-89 320,-69 171,-69"/>
<polygon fill="none" stroke="black" points="171,-69 171,-89 320,-89 320,-69 171,-69"/>
<text text-anchor="start" x="174.5" y="-75.7333" font-family="Times Roman,serif" font-size="14.00">[ENUM] category (None)</text>
</a>
</g>
<!-- Assessment&#45;&#45;Action -->
<g id="edge4" class="edge"><title>Assessment&#45;&#45;Action</title>
<path fill="none" stroke="black" d="M88.1103,-90C106.95,-90 129.7,-90 151.958,-90"/>
<polygon fill="black" stroke="black" points="152.135,-93.5001 162.135,-90 152.135,-86.5001 152.135,-93.5001"/>
<text text-anchor="middle" x="117" y="-96.4" font-family="Times Roman,serif" font-size="14.00">0..*</text>
</g>
<!-- Confidence -->
<g id="node6" class="node"><title>Confidence</title>
<a xlink:href="/help/idmefnav?idmef_class=Confidence" xlink:title="The Confidence class is used to represent the analyzer&#39;s best estimate of the validity of its analysis. &#160;It is represented in the IDMEF DTD as follows: ">
<polygon fill="#993015" stroke="#993015" points="178,-23 178,-44 312,-44 312,-23 178,-23"/>
<polygon fill="none" stroke="black" points="178,-23 178,-44 312,-44 312,-23 178,-23"/>
<text text-anchor="start" x="213.5" y="-30.2333" font-family="Times Roman,serif" font-size="14.00">Confidence</text>
</a>
<a xlink:href="/help/idmefnav?idmef_class=Confidence" xlink:title="also Section 10.)">
<polygon fill="#ff5024" stroke="#ff5024" points="178,-3 178,-23 312,-23 312,-3 178,-3"/>
<polygon fill="none" stroke="black" points="178,-3 178,-23 312,-23 312,-3 178,-3"/>
<text text-anchor="start" x="181.5" y="-9.73333" font-family="Times Roman,serif" font-size="14.00">[ENUM] rating (None)</text>
</a>
</g>
<!-- Assessment&#45;&#45;Confidence -->
<g id="edge6" class="edge"><title>Assessment&#45;&#45;Confidence</title>
<path fill="none" stroke="black" d="M88.2603,-73.2429C94.2058,-71.0911 100.239,-68.958 106,-67 123.355,-61.1017 142.038,-55.0924 159.904,-49.5089"/>
<polygon fill="black" stroke="black" points="161.221,-52.7648 169.731,-46.4542 159.143,-46.0803 161.221,-52.7648"/>
<text text-anchor="middle" x="117" y="-73.4" font-family="Times Roman,serif" font-size="14.00">0..1</text>
</g>
</g>
</svg>
