<?xml version="1.0" encoding="UTF-8" standalone="no"?>
<!DOCTYPE svg PUBLIC "-//W3C//DTD SVG 1.1//EN"
 "http://www.w3.org/Graphics/SVG/1.1/DTD/svg11.dtd">
<!-- Generated by graphviz version 2.26.0 (20091210.2329)
 -->
<!-- Title: _anonymous_0 Pages: 1 -->
<svg width="200pt" height="96pt"
 viewBox="0.00 0.00 200.00 96.00" xmlns="http://www.w3.org/2000/svg" xmlns:xlink="http://www.w3.org/1999/xlink">
<g id="graph1" class="graph" transform="scale(1 1) rotate(0) translate(4 92)">
<title>_anonymous_0</title>
<polygon fill="white" stroke="white" points="-4,5 -4,-92 197,-92 197,5 -4,5"/>
<!-- Checksum -->
<g id="node1" class="node"><title>Checksum</title>
<a xlink:href="/help/idmefnav?idmef_class=Checksum" xlink:title="The Checksum class represents checksum information associated with the file. &#160;This checksum information can be provided by file integrity checkers, among others. ">
<polygon fill="#997a00" stroke="#997a00" points="8,-63 8,-84 184,-84 184,-63 8,-63"/>
<polygon fill="none" stroke="black" points="8,-63 8,-84 184,-84 184,-63 8,-63"/>
<text text-anchor="start" x="67" y="-70.2333" font-family="Times Roman,serif" font-size="14.00">Checksum</text>
</a>
<a xlink:href="/help/idmefnav?idmef_class=Checksum" xlink:title="The value of the checksum.">
<polygon fill="#ffcc00" stroke="#ffcc00" points="8,-43 8,-63 184,-63 184,-43 8,-43"/>
<polygon fill="none" stroke="black" points="8,-43 8,-63 184,-63 184,-43 8,-43"/>
<text text-anchor="start" x="40.5" y="-49.7333" font-family="Times Roman,serif" font-size="14.00">[STRING] value (1)</text>
</a>
<a xlink:href="/help/idmefnav?idmef_class=Checksum" xlink:title="The key to the checksum, if appropriate.">
<polygon fill="#ffcc00" stroke="#ffcc00" points="8,-23 8,-43 184,-43 184,-23 8,-23"/>
<polygon fill="none" stroke="black" points="8,-23 8,-43 184,-43 184,-23 8,-23"/>
<text text-anchor="start" x="38.5" y="-29.7333" font-family="Times Roman,serif" font-size="14.00">[STRING] key (0..1)</text>
</a>
<a xlink:href="/help/idmefnav?idmef_class=Checksum" xlink:title="default value. &#160;(See also Section 10.)">
<polygon fill="#ffcc00" stroke="#ffcc00" points="8,-3 8,-23 184,-23 184,-3 8,-3"/>
<polygon fill="none" stroke="black" points="8,-3 8,-23 184,-23 184,-3 8,-3"/>
<text text-anchor="start" x="11.5" y="-9.73333" font-family="Times Roman,serif" font-size="14.00">[ENUM] algorithm (Required)</text>
</a>
</g>
</g>
</svg>
