<?xml version="1.0" encoding="UTF-8" standalone="no"?>
<!DOCTYPE svg PUBLIC "-//W3C//DTD SVG 1.1//EN"
 "http://www.w3.org/Graphics/SVG/1.1/DTD/svg11.dtd">
<!-- Generated by graphviz version 2.26.0 (20091210.2329)
 -->
<!-- Title: _anonymous_0 Pages: 1 -->
<svg width="430pt" height="116pt"
 viewBox="0.00 0.00 430.00 116.00" xmlns="http://www.w3.org/2000/svg" xmlns:xlink="http://www.w3.org/1999/xlink">
<g id="graph1" class="graph" transform="scale(1 1) rotate(0) translate(4 112)">
<title>_anonymous_0</title>
<polygon fill="white" stroke="white" points="-4,5 -4,-112 427,-112 427,5 -4,5"/>
<!-- Reference -->
<g id="node1" class="node"><title>Reference</title>
<a xlink:href="/help/idmefnav?idmef_class=Reference" xlink:title="The Reference class provides the &quot;name&quot; of an alert, or other information allowing the manager to determine what it is. ">
<polygon fill="#5b3d1e" stroke="#5b3d1e" points="238,-83 238,-104 414,-104 414,-83 238,-83"/>
<polygon fill="none" stroke="black" points="238,-83 238,-104 414,-104 414,-83 238,-83"/>
<text text-anchor="start" x="298.5" y="-90.2333" font-family="Times Roman,serif" font-size="14.00">Reference</text>
</a>
<a xlink:href="/help/idmefnav?idmef_class=Reference" xlink:title="A URL at which the manager (or the human operator of the manager) can find additional information about the alert. &#160;The document pointed to by the URL may include an in&#45;depth description of the attack, appropriate countermeasures, or other information deemed relevant by the vendor.">
<polygon fill="#996633" stroke="#996633" points="238,-63 238,-83 414,-83 414,-63 238,-63"/>
<polygon fill="none" stroke="black" points="238,-63 238,-83 414,-83 414,-63 238,-63"/>
<text text-anchor="start" x="277.5" y="-69.7333" font-family="Times Roman,serif" font-size="14.00">[STRING] url (1)</text>
</a>
<a xlink:href="/help/idmefnav?idmef_class=Reference" xlink:title="The name of the alert, from one of the origins listed below.">
<polygon fill="#996633" stroke="#996633" points="238,-43 238,-63 414,-63 414,-43 238,-43"/>
<polygon fill="none" stroke="black" points="238,-43 238,-63 414,-63 414,-43 238,-43"/>
<text text-anchor="start" x="270" y="-49.7333" font-family="Times Roman,serif" font-size="14.00">[STRING] name (1)</text>
</a>
<a xlink:href="/help/idmefnav?idmef_class=Reference" xlink:title="The source from which the name of the alert originates. The permitted values for this attribute are shown below. &#160;The default value is &quot;unknown&quot;. &#160;(See also Section 10.)">
<polygon fill="#996633" stroke="#996633" points="238,-23 238,-43 414,-43 414,-23 238,-23"/>
<polygon fill="none" stroke="black" points="238,-23 238,-43 414,-43 414,-23 238,-23"/>
<text text-anchor="start" x="252" y="-29.7333" font-family="Times Roman,serif" font-size="14.00">[ENUM] origin (Required)</text>
</a>
<a xlink:href="/help/idmefnav?idmef_class=Reference" xlink:title="The meaning of the reference, as understood by the alert provider. &#160;This field is only valid if the value of the &lt;origin&gt; attribute is set to &quot;vendor&#45;specific&quot; or &quot;user&#45;specific&quot;.">
<polygon fill="#996633" stroke="#996633" points="238,-3 238,-23 414,-23 414,-3 238,-3"/>
<polygon fill="none" stroke="black" points="238,-3 238,-23 414,-23 414,-3 238,-3"/>
<text text-anchor="start" x="241.5" y="-9.73333" font-family="Times Roman,serif" font-size="14.00">[STRING] meaning (Optional)</text>
</a>
</g>
<!-- Classification -->
<g id="node2" class="node"><title>Classification</title>
<a xlink:href="/help/idmefnav?idmef_class=Classification" xlink:title="The Classification class provides the &quot;name&quot; of an alert, or other information allowing the manager to determine what it is. &#160;This name is chosen by the alert provider. ">
<polygon fill="#5b3d1e" stroke="#5b3d1e" points="8,-63 8,-84 164,-84 164,-63 8,-63"/>
<polygon fill="none" stroke="black" points="8,-63 8,-84 164,-84 164,-63 8,-63"/>
<text text-anchor="start" x="48.5" y="-70.2333" font-family="Times Roman,serif" font-size="14.00">Classification</text>
</a>
<a xlink:href="/help/idmefnav?idmef_class=Classification" xlink:title="A vendor&#45;provided string identifying the Alert message.">
<polygon fill="#996633" stroke="#996633" points="8,-43 8,-63 164,-63 164,-43 8,-43"/>
<polygon fill="none" stroke="black" points="8,-43 8,-63 164,-63 164,-43 8,-43"/>
<text text-anchor="start" x="13.5" y="-49.7333" font-family="Times Roman,serif" font-size="14.00">[STRING] text (Required)</text>
</a>
<a xlink:href="/help/idmefnav?idmef_class=Classification" xlink:title="A unique identifier for this classification; see Section 3.2.9.">
<polygon fill="#996633" stroke="#996633" points="8,-23 8,-43 164,-43 164,-23 8,-23"/>
<polygon fill="none" stroke="black" points="8,-23 8,-43 164,-43 164,-23 8,-23"/>
<text text-anchor="start" x="11.5" y="-29.7333" font-family="Times Roman,serif" font-size="14.00">[STRING] ident (Optional)</text>
</a>
</g>
<!-- Classification&#45;&#45;Reference -->
<g id="edge2" class="edge"><title>Classification&#45;&#45;Reference</title>
<path fill="none" stroke="black" d="M172.306,-54C187.63,-54 203.75,-54 219.554,-54"/>
<polygon fill="black" stroke="black" points="219.881,-57.5001 229.881,-54 219.881,-50.5001 219.881,-57.5001"/>
<text text-anchor="middle" x="201" y="-60.4" font-family="Times Roman,serif" font-size="14.00">0..*</text>
</g>
</g>
</svg>
