<?xml version="1.0" encoding="UTF-8" standalone="no"?>
<!DOCTYPE svg PUBLIC "-//W3C//DTD SVG 1.1//EN"
 "http://www.w3.org/Graphics/SVG/1.1/DTD/svg11.dtd">
<!-- Generated by graphviz version 2.26.0 (20091210.2329)
 -->
<!-- Title: _anonymous_0 Pages: 1 -->
<svg width="158pt" height="56pt"
 viewBox="0.00 0.00 158.00 56.00" xmlns="http://www.w3.org/2000/svg" xmlns:xlink="http://www.w3.org/1999/xlink">
<g id="graph1" class="graph" transform="scale(1 1) rotate(0) translate(4 52)">
<title>_anonymous_0</title>
<polygon fill="white" stroke="white" points="-4,5 -4,-52 155,-52 155,5 -4,5"/>
<!-- Confidence -->
<g id="node1" class="node"><title>Confidence</title>
<a xlink:href="/help/idmefnav?idmef_class=Confidence" xlink:title="The Confidence class is used to represent the analyzer&#39;s best estimate of the validity of its analysis. &#160;It is represented in the IDMEF DTD as follows: ">
<polygon fill="#993015" stroke="#993015" points="8,-23 8,-44 142,-44 142,-23 8,-23"/>
<polygon fill="none" stroke="black" points="8,-23 8,-44 142,-44 142,-23 8,-23"/>
<text text-anchor="start" x="43.5" y="-30.2333" font-family="Times Roman,serif" font-size="14.00">Confidence</text>
</a>
<a xlink:href="/help/idmefnav?idmef_class=Confidence" xlink:title="also Section 10.)">
<polygon fill="#ff5024" stroke="#ff5024" points="8,-3 8,-23 142,-23 142,-3 8,-3"/>
<polygon fill="none" stroke="black" points="8,-3 8,-23 142,-23 142,-3 8,-3"/>
<text text-anchor="start" x="11.5" y="-9.73333" font-family="Times Roman,serif" font-size="14.00">[ENUM] rating (None)</text>
</a>
</g>
</g>
</svg>
