<?xml version="1.0" encoding="UTF-8" standalone="no"?>
<!DOCTYPE svg PUBLIC "-//W3C//DTD SVG 1.1//EN"
 "http://www.w3.org/Graphics/SVG/1.1/DTD/svg11.dtd">
<!-- Generated by graphviz version 2.26.0 (20091210.2329)
 -->
<!-- Title: _anonymous_0 Pages: 1 -->
<svg width="704pt" height="434pt"
 viewBox="0.00 0.00 704.00 434.00" xmlns="http://www.w3.org/2000/svg" xmlns:xlink="http://www.w3.org/1999/xlink">
<g id="graph1" class="graph" transform="scale(1 1) rotate(0) translate(4 430)">
<title>_anonymous_0</title>
<polygon fill="white" stroke="white" points="-4,5 -4,-430 701,-430 701,5 -4,5"/>
<!-- Checksum -->
<g id="node1" class="node"><title>Checksum</title>
<a xlink:href="/help/idmefnav?idmef_class=Checksum" xlink:title="The Checksum class represents checksum information associated with the file. &#160;This checksum information can be provided by file integrity checkers, among others. ">
<polygon fill="#997a00" stroke="#997a00" points="286,-401 286,-422 462,-422 462,-401 286,-401"/>
<polygon fill="none" stroke="black" points="286,-401 286,-422 462,-422 462,-401 286,-401"/>
<text text-anchor="start" x="345" y="-408.233" font-family="Times Roman,serif" font-size="14.00">Checksum</text>
</a>
<a xlink:href="/help/idmefnav?idmef_class=Checksum" xlink:title="The value of the checksum.">
<polygon fill="#ffcc00" stroke="#ffcc00" points="286,-381 286,-401 462,-401 462,-381 286,-381"/>
<polygon fill="none" stroke="black" points="286,-381 286,-401 462,-401 462,-381 286,-381"/>
<text text-anchor="start" x="318.5" y="-387.733" font-family="Times Roman,serif" font-size="14.00">[STRING] value (1)</text>
</a>
<a xlink:href="/help/idmefnav?idmef_class=Checksum" xlink:title="The key to the checksum, if appropriate.">
<polygon fill="#ffcc00" stroke="#ffcc00" points="286,-361 286,-381 462,-381 462,-361 286,-361"/>
<polygon fill="none" stroke="black" points="286,-361 286,-381 462,-381 462,-361 286,-361"/>
<text text-anchor="start" x="316.5" y="-367.733" font-family="Times Roman,serif" font-size="14.00">[STRING] key (0..1)</text>
</a>
<a xlink:href="/help/idmefnav?idmef_class=Checksum" xlink:title="default value. &#160;(See also Section 10.)">
<polygon fill="#ffcc00" stroke="#ffcc00" points="286,-341 286,-361 462,-361 462,-341 286,-341"/>
<polygon fill="none" stroke="black" points="286,-341 286,-361 462,-361 462,-341 286,-341"/>
<text text-anchor="start" x="289.5" y="-347.733" font-family="Times Roman,serif" font-size="14.00">[ENUM] algorithm (Required)</text>
</a>
</g>
<!-- File -->
<g id="node2" class="node"><title>File</title>
<a xlink:href="/help/idmefnav?idmef_class=File" xlink:title="The File class provides specific information about a file or other file&#45;like object that has been created, deleted, or modified on the target. &#160;The description can provide either the file settings prior to the event or the file settings at the time of the event, as specified using the &quot;category&quot; attribute. ">
<polygon fill="#997a00" stroke="#997a00" points="9,-269 9,-290 202,-290 202,-269 9,-269"/>
<polygon fill="none" stroke="black" points="9,-269 9,-290 202,-290 202,-269 9,-269"/>
<text text-anchor="start" x="94.5" y="-276.233" font-family="Times Roman,serif" font-size="14.00">File</text>
</a>
<a xlink:href="/help/idmefnav?idmef_class=File" xlink:title="The type of file system the file resides on. &#160;This attribute governs how path names and other attributes are interpreted.">
<polygon fill="#ffcc00" stroke="#ffcc00" points="9,-249 9,-269 202,-269 202,-249 9,-249"/>
<polygon fill="none" stroke="black" points="9,-249 9,-269 202,-269 202,-249 9,-249"/>
<text text-anchor="start" x="38.5" y="-255.733" font-family="Times Roman,serif" font-size="14.00">[ENUM] category (0..1)</text>
</a>
<a xlink:href="/help/idmefnav?idmef_class=File" xlink:title="The physical space on disk consumed by the file, in bytes. &#160;On Unix UFS file systems, this value corresponds to 512 * stat.st_blocks. &#160;On Windows NTFS, this value corresponds to End of File (EOF).">
<polygon fill="#ffcc00" stroke="#ffcc00" points="9,-229 9,-249 202,-249 202,-229 9,-229"/>
<polygon fill="none" stroke="black" points="9,-229 9,-249 202,-249 202,-229 9,-229"/>
<text text-anchor="start" x="29" y="-235.733" font-family="Times Roman,serif" font-size="14.00">[INTEGER] disk&#45;size (0..1)</text>
</a>
<a xlink:href="/help/idmefnav?idmef_class=File" xlink:title="A unique identifier for this file; see Section 3.2.9.">
<polygon fill="#ffcc00" stroke="#ffcc00" points="9,-209 9,-229 202,-229 202,-209 9,-209"/>
<polygon fill="none" stroke="black" points="9,-209 9,-229 202,-229 202,-209 9,-209"/>
<text text-anchor="start" x="44" y="-215.733" font-family="Times Roman,serif" font-size="14.00">[STRING] ident (0..1)</text>
</a>
<a xlink:href="/help/idmefnav?idmef_class=File" xlink:title="The name of the file to which the alert applies, not including the path to the file.">
<polygon fill="#ffcc00" stroke="#ffcc00" points="9,-189 9,-209 202,-209 202,-189 9,-189"/>
<polygon fill="none" stroke="black" points="9,-189 9,-209 202,-209 202,-189 9,-189"/>
<text text-anchor="start" x="49.5" y="-195.733" font-family="Times Roman,serif" font-size="14.00">[STRING] name (1)</text>
</a>
<a xlink:href="/help/idmefnav?idmef_class=File" xlink:title="The size of the data, in bytes. &#160;Typically what is meant when referring to file size. &#160;On Unix UFS file systems, this value corresponds to stat.st_size. &#160;On Windows NTFS, this value corresponds to Valid Data Length (VDL).">
<polygon fill="#ffcc00" stroke="#ffcc00" points="9,-169 9,-189 202,-189 202,-169 9,-169"/>
<polygon fill="none" stroke="black" points="9,-169 9,-189 202,-189 202,-169 9,-169"/>
<text text-anchor="start" x="29" y="-175.733" font-family="Times Roman,serif" font-size="14.00">[INTEGER] data&#45;size (0..1)</text>
</a>
<a xlink:href="/help/idmefnav?idmef_class=File" xlink:title="Time the file was created. &#160;Note that this is *not* the Unix &quot;st_ctime&quot; file attribute (which is not file creation time). &#160;The Unix &quot;st_ctime&quot; attribute is contained in the &quot;Inode&quot; class.">
<polygon fill="#ffcc00" stroke="#ffcc00" points="9,-149 9,-169 202,-169 202,-149 9,-149"/>
<polygon fill="none" stroke="black" points="9,-149 9,-169 202,-169 202,-149 9,-149"/>
<text text-anchor="start" x="16.5" y="-155.733" font-family="Times Roman,serif" font-size="14.00">[DATETIME] create&#45;time (0..1)</text>
</a>
<a xlink:href="/help/idmefnav?idmef_class=File" xlink:title="Time the file was last accessed.">
<polygon fill="#ffcc00" stroke="#ffcc00" points="9,-129 9,-149 202,-149 202,-129 9,-129"/>
<polygon fill="none" stroke="black" points="9,-129 9,-149 202,-149 202,-129 9,-129"/>
<text text-anchor="start" x="15" y="-135.733" font-family="Times Roman,serif" font-size="14.00">[DATETIME] access&#45;time (0..1)</text>
</a>
<a xlink:href="/help/idmefnav?idmef_class=File" xlink:title="The full path to the file, including the name. &#160;The path name should be represented in as &quot;universal&quot; a manner as possible, to facilitate processing of the alert.">
<polygon fill="#ffcc00" stroke="#ffcc00" points="9,-109 9,-129 202,-129 202,-109 9,-109"/>
<polygon fill="none" stroke="black" points="9,-109 9,-129 202,-129 202,-109 9,-109"/>
<text text-anchor="start" x="53" y="-115.733" font-family="Times Roman,serif" font-size="14.00">[STRING] path (1)</text>
</a>
<a xlink:href="/help/idmefnav?idmef_class=File" xlink:title="The type of file, as a mime&#45;type.">
<polygon fill="#ffcc00" stroke="#ffcc00" points="9,-89 9,-109 202,-109 202,-89 9,-89"/>
<polygon fill="none" stroke="black" points="9,-89 9,-109 202,-109 202,-89 9,-89"/>
<text text-anchor="start" x="34.5" y="-95.7333" font-family="Times Roman,serif" font-size="14.00">[STRING] file&#45;type (0..1)</text>
</a>
<a xlink:href="/help/idmefnav?idmef_class=File" xlink:title="Time the file was last modified.">
<polygon fill="#ffcc00" stroke="#ffcc00" points="9,-69 9,-89 202,-89 202,-69 9,-69"/>
<polygon fill="none" stroke="black" points="9,-69 9,-89 202,-89 202,-69 9,-69"/>
<text text-anchor="start" x="12.5" y="-75.7333" font-family="Times Roman,serif" font-size="14.00">[DATETIME] modify&#45;time (0..1)</text>
</a>
</g>
<!-- File&#45;&#45;Checksum -->
<g id="edge2" class="edge"><title>File&#45;&#45;Checksum</title>
<path fill="none" stroke="black" d="M209.749,-283.431C228.43,-299.602 248.251,-315.428 268,-329 269.653,-330.136 271.334,-331.263 273.039,-332.379"/>
<polygon fill="black" stroke="black" points="271.409,-335.489 281.734,-337.866 275.145,-329.569 271.409,-335.489"/>
<text text-anchor="middle" x="239" y="-320.4" font-family="Times Roman,serif" font-size="14.00">0..*</text>
</g>
<!-- FileAccess -->
<g id="node5" class="node"><title>FileAccess</title>
<a xlink:href="/help/idmefnav?idmef_class=FileAccess" xlink:title="The FileAccess class represents the access permissions on a file. The representation is intended to be useful across operating systems. ">
<polygon fill="#997a00" stroke="#997a00" points="297,-295 297,-316 452,-316 452,-295 297,-295"/>
<polygon fill="none" stroke="black" points="297,-295 297,-316 452,-316 452,-295 297,-295"/>
<text text-anchor="start" x="344.5" y="-302.233" font-family="Times Roman,serif" font-size="14.00">FileAccess</text>
</a>
<a xlink:href="/help/idmefnav?idmef_class=FileAccess" xlink:title="Level of access allowed. &#160;The permitted values are shown below. &#160;There is no default value. &#160;(See also Section 10.)">
<polygon fill="#ffcc00" stroke="#ffcc00" points="297,-275 297,-295 452,-295 452,-275 297,-275"/>
<polygon fill="none" stroke="black" points="297,-275 297,-295 452,-295 452,-275 297,-275"/>
<text text-anchor="start" x="300.5" y="-281.733" font-family="Times Roman,serif" font-size="14.00">[ENUM] Permission (1..*)</text>
</a>
</g>
<!-- File&#45;&#45;FileAccess -->
<g id="edge6" class="edge"><title>File&#45;&#45;FileAccess</title>
<path fill="none" stroke="black" d="M209.882,-236.674C228.962,-246.042 248.88,-255.221 268,-263 272.678,-264.903 277.509,-266.763 282.412,-268.567"/>
<polygon fill="black" stroke="black" points="281.316,-271.892 291.911,-271.967 283.675,-265.302 281.316,-271.892"/>
<text text-anchor="middle" x="239" y="-262.4" font-family="Times Roman,serif" font-size="14.00">0..*</text>
</g>
<!-- Inode -->
<g id="node8" class="node"><title>Inode</title>
<a xlink:href="/help/idmefnav?idmef_class=Inode" xlink:title="The Inode class is used to represent the additional information contained in a Unix file system i&#45;node. ">
<polygon fill="#997a00" stroke="#997a00" points="277,-229 277,-250 472,-250 472,-229 277,-229"/>
<polygon fill="none" stroke="black" points="277,-229 277,-250 472,-250 472,-229 277,-229"/>
<text text-anchor="start" x="359" y="-236.233" font-family="Times Roman,serif" font-size="14.00">Inode</text>
</a>
<a xlink:href="/help/idmefnav?idmef_class=Inode" xlink:title="The minor device of the file itself, if it is a character special device.">
<polygon fill="#ffcc00" stroke="#ffcc00" points="277,-209 277,-229 472,-229 472,-209 277,-209"/>
<polygon fill="none" stroke="black" points="277,-209 277,-229 472,-229 472,-209 277,-209"/>
<text text-anchor="start" x="280.5" y="-215.733" font-family="Times Roman,serif" font-size="14.00">[INTEGER] c&#45;minor&#45;device (0..1)</text>
</a>
<a xlink:href="/help/idmefnav?idmef_class=Inode" xlink:title="The time of the last inode change, given by the st_ctime element of &quot;struct stat&quot;.">
<polygon fill="#ffcc00" stroke="#ffcc00" points="277,-189 277,-209 472,-209 472,-189 277,-189"/>
<polygon fill="none" stroke="black" points="277,-189 277,-209 472,-209 472,-189 277,-189"/>
<text text-anchor="start" x="282.5" y="-195.733" font-family="Times Roman,serif" font-size="14.00">[DATETIME] change&#45;time (0..1)</text>
</a>
<a xlink:href="/help/idmefnav?idmef_class=Inode" xlink:title="The minor device number of the device the file resides on.">
<polygon fill="#ffcc00" stroke="#ffcc00" points="277,-169 277,-189 472,-189 472,-169 277,-169"/>
<polygon fill="none" stroke="black" points="277,-169 277,-189 472,-189 472,-169 277,-169"/>
<text text-anchor="start" x="285.5" y="-175.733" font-family="Times Roman,serif" font-size="14.00">[INTEGER] minor&#45;device (0..1)</text>
</a>
<a xlink:href="/help/idmefnav?idmef_class=Inode" xlink:title="The major device number of the device the file resides on.">
<polygon fill="#ffcc00" stroke="#ffcc00" points="277,-149 277,-169 472,-169 472,-149 277,-149"/>
<polygon fill="none" stroke="black" points="277,-149 277,-169 472,-169 472,-149 277,-149"/>
<text text-anchor="start" x="286" y="-155.733" font-family="Times Roman,serif" font-size="14.00">[INTEGER] major&#45;device (0..1)</text>
</a>
<a xlink:href="/help/idmefnav?idmef_class=Inode" xlink:title="The major device of the file itself, if it is a character special device.">
<polygon fill="#ffcc00" stroke="#ffcc00" points="277,-129 277,-149 472,-149 472,-129 277,-129"/>
<polygon fill="none" stroke="black" points="277,-129 277,-149 472,-149 472,-129 277,-129"/>
<text text-anchor="start" x="281" y="-135.733" font-family="Times Roman,serif" font-size="14.00">[INTEGER] c&#45;major&#45;device (0..1)</text>
</a>
<a xlink:href="/help/idmefnav?idmef_class=Inode" xlink:title="The inode number.">
<polygon fill="#ffcc00" stroke="#ffcc00" points="277,-109 277,-129 472,-129 472,-109 277,-109"/>
<polygon fill="none" stroke="black" points="277,-109 277,-129 472,-129 472,-109 277,-109"/>
<text text-anchor="start" x="301" y="-115.733" font-family="Times Roman,serif" font-size="14.00">[INTEGER] number (0..1)</text>
</a>
</g>
<!-- File&#45;&#45;Inode -->
<g id="edge8" class="edge"><title>File&#45;&#45;Inode</title>
<path fill="none" stroke="black" d="M209.773,-180C225.504,-180 241.807,-180 257.761,-180"/>
<polygon fill="black" stroke="black" points="258.185,-183.5 268.185,-180 258.185,-176.5 258.185,-183.5"/>
<text text-anchor="middle" x="239" y="-186.4" font-family="Times Roman,serif" font-size="14.00">0..1</text>
</g>
<!-- Linkage -->
<g id="node10" class="node"><title>Linkage</title>
<a xlink:href="/help/idmefnav?idmef_class=Linkage" xlink:title="The Linkage class represents file system connections between the file described in the &lt;File&gt; element and other objects in the file system. For example, if the &lt;File&gt; element is a symbolic link or shortcut, then the &lt;Linkage&gt; element should contain the name of the object the link points to. &#160;Further information can be provided about the object in the &lt;Linkage&gt; element with another &lt;File&gt; element, if appropriate. ">
<polygon fill="#997a00" stroke="#997a00" points="291,-63 291,-84 458,-84 458,-63 291,-63"/>
<polygon fill="none" stroke="black" points="291,-63 291,-84 458,-84 458,-63 291,-63"/>
<text text-anchor="start" x="352" y="-70.2333" font-family="Times Roman,serif" font-size="14.00">Linkage</text>
</a>
<a xlink:href="/help/idmefnav?idmef_class=Linkage" xlink:title="The full path to the file system object, including the name. &#160;The path name should be represented in as &quot;universal&quot; a manner as possible, to facilitate processing of the alert.">
<polygon fill="#ffcc00" stroke="#ffcc00" points="291,-43 291,-63 458,-63 458,-43 291,-43"/>
<polygon fill="none" stroke="black" points="291,-43 291,-63 458,-63 458,-43 291,-43"/>
<text text-anchor="start" x="322" y="-49.7333" font-family="Times Roman,serif" font-size="14.00">[STRING] path (1)</text>
</a>
<a xlink:href="/help/idmefnav?idmef_class=Linkage" xlink:title="The name of the file system object, not including the path.">
<polygon fill="#ffcc00" stroke="#ffcc00" points="291,-23 291,-43 458,-43 458,-23 291,-23"/>
<polygon fill="none" stroke="black" points="291,-23 291,-43 458,-43 458,-23 291,-23"/>
<text text-anchor="start" x="318.5" y="-29.7333" font-family="Times Roman,serif" font-size="14.00">[STRING] name (1)</text>
</a>
<a xlink:href="/help/idmefnav?idmef_class=Linkage" xlink:title="Section 10.)">
<polygon fill="#ffcc00" stroke="#ffcc00" points="291,-3 291,-23 458,-23 458,-3 291,-3"/>
<polygon fill="none" stroke="black" points="291,-3 291,-23 458,-23 458,-3 291,-3"/>
<text text-anchor="start" x="294.5" y="-9.73333" font-family="Times Roman,serif" font-size="14.00">[ENUM] category (Optional)</text>
</a>
</g>
<!-- File&#45;&#45;Linkage -->
<g id="edge12" class="edge"><title>File&#45;&#45;Linkage</title>
<path fill="none" stroke="black" d="M209.725,-126.531C229.089,-116.685 249.146,-106.513 268,-97 270.893,-95.5402 273.831,-94.0593 276.799,-92.5656"/>
<polygon fill="black" stroke="black" points="278.408,-95.6739 285.769,-88.054 275.263,-89.4202 278.408,-95.6739"/>
<text text-anchor="middle" x="239" y="-122.4" font-family="Times Roman,serif" font-size="14.00">0..*</text>
</g>
<!-- UserId -->
<g id="node4" class="node"><title>UserId</title>
<a xlink:href="/help/idmefnav?idmef_class=UserId" xlink:title="The UserId class provides specific information about a user. &#160;More than one UserId can be used within the User class to indicate attempts to transition from one user to another, or to provide complete information about a user&#39;s (or process&#39;) privileges. ">
<polygon fill="#3d7a99" stroke="#3d7a99" points="532,-335 532,-356 688,-356 688,-335 532,-335"/>
<polygon fill="none" stroke="black" points="532,-335 532,-356 688,-356 688,-335 532,-335"/>
<text text-anchor="start" x="591.5" y="-342.233" font-family="Times Roman,serif" font-size="14.00">UserId</text>
</a>
<a xlink:href="/help/idmefnav?idmef_class=UserId" xlink:title="A user or group name.">
<polygon fill="#66ccff" stroke="#66ccff" points="532,-315 532,-335 688,-335 688,-315 532,-315"/>
<polygon fill="none" stroke="black" points="532,-315 532,-335 688,-335 688,-315 532,-315"/>
<text text-anchor="start" x="547" y="-321.733" font-family="Times Roman,serif" font-size="14.00">[STRING] name (0..1)</text>
</a>
<a xlink:href="/help/idmefnav?idmef_class=UserId" xlink:title="A user or group number.">
<polygon fill="#66ccff" stroke="#66ccff" points="532,-295 532,-315 688,-315 688,-295 532,-295"/>
<polygon fill="none" stroke="black" points="532,-295 532,-315 688,-315 688,-295 532,-295"/>
<text text-anchor="start" x="536.5" y="-301.733" font-family="Times Roman,serif" font-size="14.00">[INTEGER] number (0..1)</text>
</a>
<a xlink:href="/help/idmefnav?idmef_class=UserId" xlink:title="The tty the user is using.">
<polygon fill="#66ccff" stroke="#66ccff" points="532,-275 532,-295 688,-295 688,-275 532,-275"/>
<polygon fill="none" stroke="black" points="532,-275 532,-295 688,-295 688,-275 532,-275"/>
<text text-anchor="start" x="542" y="-281.733" font-family="Times Roman,serif" font-size="14.00">[STRING] tty (Optional)</text>
</a>
<a xlink:href="/help/idmefnav?idmef_class=UserId" xlink:title="A unique identifier for the user id, see Section 3.2.9.">
<polygon fill="#66ccff" stroke="#66ccff" points="532,-255 532,-275 688,-275 688,-255 532,-255"/>
<polygon fill="none" stroke="black" points="532,-255 532,-275 688,-275 688,-255 532,-255"/>
<text text-anchor="start" x="535.5" y="-261.733" font-family="Times Roman,serif" font-size="14.00">[STRING] ident (Optional)</text>
</a>
<a xlink:href="/help/idmefnav?idmef_class=UserId" xlink:title="The type of user information represented. &#160;The permitted values for this attribute are shown below. &#160;The default value is &quot;original&#45;user&quot;. &#160;(See also Section 10.)">
<polygon fill="#66ccff" stroke="#66ccff" points="532,-235 532,-255 688,-255 688,-235 532,-235"/>
<polygon fill="none" stroke="black" points="532,-235 532,-255 688,-255 688,-235 532,-235"/>
<text text-anchor="start" x="541.5" y="-241.733" font-family="Times Roman,serif" font-size="14.00">[ENUM] type (Optional)</text>
</a>
</g>
<!-- FileAccess&#45;&#45;UserId -->
<g id="edge4" class="edge"><title>FileAccess&#45;&#45;UserId</title>
<path fill="none" stroke="black" d="M459.535,-296C477.15,-296 495.812,-296 513.776,-296"/>
<polygon fill="black" stroke="black" points="513.965,-299.5 523.965,-296 513.965,-292.5 513.965,-299.5"/>
<text text-anchor="middle" x="502" y="-302.4" font-family="Times Roman,serif" font-size="14.00">1</text>
</g>
<!-- Linkage&#45;&#45;File -->
<g id="edge10" class="edge"><title>Linkage&#45;&#45;File</title>
<path fill="none" stroke="black" d="M282.362,-63.1352C263.861,-68.6366 244.913,-75.5135 228,-84 224.817,-85.5974 221.636,-87.2839 218.466,-89.0462"/>
<polygon fill="black" stroke="black" points="216.464,-86.1606 209.566,-94.2023 219.974,-92.2174 216.464,-86.1606"/>
<text text-anchor="middle" x="239" y="-90.4" font-family="Times Roman,serif" font-size="14.00">1</text>
</g>
</g>
</svg>
