<?xml version="1.0" encoding="UTF-8" standalone="no"?>
<!DOCTYPE svg PUBLIC "-//W3C//DTD SVG 1.1//EN"
 "http://www.w3.org/Graphics/SVG/1.1/DTD/svg11.dtd">
<!-- Generated by graphviz version 2.26.0 (20091210.2329)
 -->
<!-- Title: _anonymous_0 Pages: 1 -->
<svg width="396pt" height="136pt"
 viewBox="0.00 0.00 396.00 136.00" xmlns="http://www.w3.org/2000/svg" xmlns:xlink="http://www.w3.org/1999/xlink">
<g id="graph1" class="graph" transform="scale(1 1) rotate(0) translate(4 132)">
<title>_anonymous_0</title>
<polygon fill="white" stroke="white" points="-4,5 -4,-132 393,-132 393,5 -4,5"/>
<!-- UserId -->
<g id="node1" class="node"><title>UserId</title>
<a xlink:href="/help/idmefnav?idmef_class=UserId" xlink:title="The UserId class provides specific information about a user. &#160;More than one UserId can be used within the User class to indicate attempts to transition from one user to another, or to provide complete information about a user&#39;s (or process&#39;) privileges. ">
<polygon fill="#3d7a99" stroke="#3d7a99" points="224,-103 224,-124 380,-124 380,-103 224,-103"/>
<polygon fill="none" stroke="black" points="224,-103 224,-124 380,-124 380,-103 224,-103"/>
<text text-anchor="start" x="283.5" y="-110.233" font-family="Times Roman,serif" font-size="14.00">UserId</text>
</a>
<a xlink:href="/help/idmefnav?idmef_class=UserId" xlink:title="A user or group name.">
<polygon fill="#66ccff" stroke="#66ccff" points="224,-83 224,-103 380,-103 380,-83 224,-83"/>
<polygon fill="none" stroke="black" points="224,-83 224,-103 380,-103 380,-83 224,-83"/>
<text text-anchor="start" x="239" y="-89.7333" font-family="Times Roman,serif" font-size="14.00">[STRING] name (0..1)</text>
</a>
<a xlink:href="/help/idmefnav?idmef_class=UserId" xlink:title="A user or group number.">
<polygon fill="#66ccff" stroke="#66ccff" points="224,-63 224,-83 380,-83 380,-63 224,-63"/>
<polygon fill="none" stroke="black" points="224,-63 224,-83 380,-83 380,-63 224,-63"/>
<text text-anchor="start" x="228.5" y="-69.7333" font-family="Times Roman,serif" font-size="14.00">[INTEGER] number (0..1)</text>
</a>
<a xlink:href="/help/idmefnav?idmef_class=UserId" xlink:title="The tty the user is using.">
<polygon fill="#66ccff" stroke="#66ccff" points="224,-43 224,-63 380,-63 380,-43 224,-43"/>
<polygon fill="none" stroke="black" points="224,-43 224,-63 380,-63 380,-43 224,-43"/>
<text text-anchor="start" x="234" y="-49.7333" font-family="Times Roman,serif" font-size="14.00">[STRING] tty (Optional)</text>
</a>
<a xlink:href="/help/idmefnav?idmef_class=UserId" xlink:title="A unique identifier for the user id, see Section 3.2.9.">
<polygon fill="#66ccff" stroke="#66ccff" points="224,-23 224,-43 380,-43 380,-23 224,-23"/>
<polygon fill="none" stroke="black" points="224,-23 224,-43 380,-43 380,-23 224,-23"/>
<text text-anchor="start" x="227.5" y="-29.7333" font-family="Times Roman,serif" font-size="14.00">[STRING] ident (Optional)</text>
</a>
<a xlink:href="/help/idmefnav?idmef_class=UserId" xlink:title="The type of user information represented. &#160;The permitted values for this attribute are shown below. &#160;The default value is &quot;original&#45;user&quot;. &#160;(See also Section 10.)">
<polygon fill="#66ccff" stroke="#66ccff" points="224,-3 224,-23 380,-23 380,-3 224,-3"/>
<polygon fill="none" stroke="black" points="224,-3 224,-23 380,-23 380,-3 224,-3"/>
<text text-anchor="start" x="233.5" y="-9.73333" font-family="Times Roman,serif" font-size="14.00">[ENUM] type (Optional)</text>
</a>
</g>
<!-- FileAccess -->
<g id="node2" class="node"><title>FileAccess</title>
<a xlink:href="/help/idmefnav?idmef_class=FileAccess" xlink:title="The FileAccess class represents the access permissions on a file. The representation is intended to be useful across operating systems. ">
<polygon fill="#997a00" stroke="#997a00" points="9,-63 9,-84 164,-84 164,-63 9,-63"/>
<polygon fill="none" stroke="black" points="9,-63 9,-84 164,-84 164,-63 9,-63"/>
<text text-anchor="start" x="56.5" y="-70.2333" font-family="Times Roman,serif" font-size="14.00">FileAccess</text>
</a>
<a xlink:href="/help/idmefnav?idmef_class=FileAccess" xlink:title="Level of access allowed. &#160;The permitted values are shown below. &#160;There is no default value. &#160;(See also Section 10.)">
<polygon fill="#ffcc00" stroke="#ffcc00" points="9,-43 9,-63 164,-63 164,-43 9,-43"/>
<polygon fill="none" stroke="black" points="9,-43 9,-63 164,-63 164,-43 9,-43"/>
<text text-anchor="start" x="12.5" y="-49.7333" font-family="Times Roman,serif" font-size="14.00">[ENUM] Permission (1..*)</text>
</a>
</g>
<!-- FileAccess&#45;&#45;UserId -->
<g id="edge2" class="edge"><title>FileAccess&#45;&#45;UserId</title>
<path fill="none" stroke="black" d="M171.679,-64C182.771,-64 194.192,-64 205.445,-64"/>
<polygon fill="black" stroke="black" points="205.717,-67.5001 215.717,-64 205.717,-60.5001 205.717,-67.5001"/>
<text text-anchor="middle" x="194" y="-70.4" font-family="Times Roman,serif" font-size="14.00">1</text>
</g>
</g>
</svg>
