<?xml version="1.0" encoding="UTF-8" standalone="no"?>
<!DOCTYPE svg PUBLIC "-//W3C//DTD SVG 1.1//EN"
 "http://www.w3.org/Graphics/SVG/1.1/DTD/svg11.dtd">
<!-- Generated by graphviz version 2.26.0 (20091210.2329)
 -->
<!-- Title: _anonymous_0 Pages: 1 -->
<svg width="1014pt" height="407pt"
 viewBox="0.00 0.00 1014.00 407.00" xmlns="http://www.w3.org/2000/svg" xmlns:xlink="http://www.w3.org/1999/xlink">
<g id="graph1" class="graph" transform="scale(1 1) rotate(0) translate(4 403)">
<title>_anonymous_0</title>
<polygon fill="white" stroke="white" points="-4,5 -4,-403 1011,-403 1011,5 -4,5"/>
<!-- AdditionalData -->
<g id="node1" class="node"><title>AdditionalData</title>
<a xlink:href="/help/idmefnav?idmef_class=AdditionalData" xlink:title="The AdditionalData class is used to provide information that cannot be represented by the data model. &#160;AdditionalData can be used to provide atomic data (integers, strings, etc.) in cases where only small amounts of additional information need to be sent; it can also be used to extend the data model and the DTD to support the transmission of complex data (such as packet headers). &#160;Detailed instructions for extending the data model and the DTD are provided in Section 5. ">
<polygon fill="#431c60" stroke="#431c60" points="301,-374 301,-395 477,-395 477,-374 301,-374"/>
<polygon fill="none" stroke="black" points="301,-374 301,-395 477,-395 477,-374 301,-374"/>
<text text-anchor="start" x="347" y="-381.233" font-family="Times Roman,serif" font-size="14.00">AdditionalData</text>
</a>
<a xlink:href="/help/idmefnav?idmef_class=AdditionalData" xlink:title="A string describing the meaning of the element content. These values will be vendor/implementation dependent; the method for ensuring that managers understand the strings sent by analyzers is outside the scope of this specification. &#160;A list of acceptable meaning keywords is not within the scope of the document, although later versions may undertake to establish such a list.">
<polygon fill="#7030a0" stroke="#7030a0" points="301,-354 301,-374 477,-374 477,-354 301,-354"/>
<polygon fill="none" stroke="black" points="301,-354 301,-374 477,-374 477,-354 301,-354"/>
<text text-anchor="start" x="304.5" y="-360.733" font-family="Times Roman,serif" font-size="14.00">[STRING] meaning (Optional)</text>
</a>
</g>
<!-- Heartbeat -->
<g id="node2" class="node"><title>Heartbeat</title>
<a xlink:href="/help/idmefnav?idmef_class=Heartbeat" xlink:title="Analyzers use Heartbeat messages to indicate their current status to managers. &#160;Heartbeats are intended to be sent in a regular period, say, every ten minutes or every hour. &#160;The receipt of a Heartbeat message from an analyzer indicates to the manager that the analyzer is up and running; lack of a Heartbeat message (or more likely, lack of some number of consecutive Heartbeat messages) indicates that the analyzer or its network connection has failed. ">
<polygon fill="#587600" stroke="#587600" points="8,-271 8,-292 214,-292 214,-271 8,-271"/>
<polygon fill="none" stroke="black" points="8,-271 8,-292 214,-292 214,-271 8,-271"/>
<text text-anchor="start" x="84.5" y="-278.233" font-family="Times Roman,serif" font-size="14.00">Heartbeat</text>
</a>
<a xlink:href="/help/idmefnav?idmef_class=Heartbeat" xlink:title="The interval in seconds at which heartbeats are generated.">
<polygon fill="#94c600" stroke="#94c600" points="8,-251 8,-271 214,-271 214,-251 8,-251"/>
<polygon fill="none" stroke="black" points="8,-251 8,-271 214,-271 214,-251 8,-251"/>
<text text-anchor="start" x="11.5" y="-257.733" font-family="Times Roman,serif" font-size="14.00">[INTEGER] HeartbeatInterval (0..1)</text>
</a>
<a xlink:href="/help/idmefnav?idmef_class=Heartbeat" xlink:title="A unique identifier for the heartbeat; see Section 3.2.9.">
<polygon fill="#94c600" stroke="#94c600" points="8,-231 8,-251 214,-251 214,-231 8,-231"/>
<polygon fill="none" stroke="black" points="8,-231 8,-251 214,-251 214,-231 8,-231"/>
<text text-anchor="start" x="21.5" y="-237.733" font-family="Times Roman,serif" font-size="14.00">[STRING] messageid (Optional)</text>
</a>
</g>
<!-- Heartbeat&#45;&#45;AdditionalData -->
<g id="edge2" class="edge"><title>Heartbeat&#45;&#45;AdditionalData</title>
<path fill="none" stroke="black" d="M177.033,-296.048C207.855,-311.213 245.321,-328.627 280,-342 285.015,-343.934 290.195,-345.83 295.447,-347.673"/>
<polygon fill="black" stroke="black" points="294.365,-351.002 304.96,-350.931 296.634,-344.38 294.365,-351.002"/>
<text text-anchor="middle" x="251" y="-340.4" font-family="Times Roman,serif" font-size="14.00">0..*</text>
</g>
<!-- CreateTime -->
<g id="node4" class="node"><title>CreateTime</title>
<a xlink:href="/help/idmefnav?idmef_class=CreateTime" xlink:title="The CreateTime class is used to indicate the date and time the alert or heartbeat was created by the analyzer. ">
<polygon fill="#5b5b99" stroke="#5b5b99" points="353,-304 353,-325 425,-325 425,-304 353,-304"/>
<polygon fill="none" stroke="black" points="353,-304 353,-325 425,-325 425,-304 353,-304"/>
<text text-anchor="start" x="356.5" y="-311.233" font-family="Times Roman,serif" font-size="14.00">CreateTime</text>
</a>
</g>
<!-- Heartbeat&#45;&#45;CreateTime -->
<g id="edge4" class="edge"><title>Heartbeat&#45;&#45;CreateTime</title>
<path fill="none" stroke="black" d="M222.071,-283.175C260.829,-290.564 302.607,-298.529 334.673,-304.643"/>
<polygon fill="black" stroke="black" points="334.248,-308.125 344.727,-306.559 335.559,-301.249 334.248,-308.125"/>
<text text-anchor="middle" x="251" y="-296.4" font-family="Times Roman,serif" font-size="14.00">1</text>
</g>
<!-- Analyzer -->
<g id="node9" class="node"><title>Analyzer</title>
<a xlink:href="/help/idmefnav?idmef_class=Analyzer" xlink:title="The Analyzer class identifies the analyzer from which the Alert or Heartbeat message originates. &#160;Only one analyzer may be encoded for each alert or heartbeat, and that MUST be the analyzer at which the alert or heartbeat originated. &#160;Although the IDMEF data model does not prevent the use of hierarchical intrusion detection systems (where alerts get relayed up the tree), it does not provide any way to record the identity of the &quot;relay&quot; analyzers along the path from the originating analyzer to the manager that ultimately receives the alert. ">
<polygon fill="#99993d" stroke="#99993d" points="288,-217 288,-238 490,-238 490,-217 288,-217"/>
<polygon fill="none" stroke="black" points="288,-217 288,-238 490,-238 490,-217 288,-217"/>
<text text-anchor="start" x="364" y="-224.233" font-family="Times Roman,serif" font-size="14.00">Analyzer</text>
</a>
<a xlink:href="/help/idmefnav?idmef_class=Analyzer" xlink:title="An explicit name for the analyzer that may be easier to understand than the analyzerid.">
<polygon fill="#ffff66" stroke="#ffff66" points="288,-197 288,-217 490,-217 490,-197 288,-197"/>
<polygon fill="none" stroke="black" points="288,-197 288,-217 490,-217 490,-197 288,-197"/>
<text text-anchor="start" x="313" y="-203.733" font-family="Times Roman,serif" font-size="14.00">[STRING] name (Optional)</text>
</a>
<a xlink:href="/help/idmefnav?idmef_class=Analyzer" xlink:title="The version number of the analyzer software and/or hardware.">
<polygon fill="#ffff66" stroke="#ffff66" points="288,-177 288,-197 490,-197 490,-177 288,-177"/>
<polygon fill="none" stroke="black" points="288,-177 288,-197 490,-197 490,-177 288,-177"/>
<text text-anchor="start" x="308" y="-183.733" font-family="Times Roman,serif" font-size="14.00">[STRING] version (Optional)</text>
</a>
<a xlink:href="/help/idmefnav?idmef_class=Analyzer" xlink:title="Operating system name. &#160;On POSIX 1003.1 compliant systems, this is the value returned in utsname.sysname by the uname() system call, or the output of the &quot;uname &#45;s&quot; command.">
<polygon fill="#ffff66" stroke="#ffff66" points="288,-157 288,-177 490,-177 490,-157 288,-157"/>
<polygon fill="none" stroke="black" points="288,-157 288,-177 490,-177 490,-157 288,-157"/>
<text text-anchor="start" x="310.5" y="-163.733" font-family="Times Roman,serif" font-size="14.00">[STRING] ostype (Optional)</text>
</a>
<a xlink:href="/help/idmefnav?idmef_class=Analyzer" xlink:title="The model name/number of the analyzer software and/or hardware.">
<polygon fill="#ffff66" stroke="#ffff66" points="288,-137 288,-157 490,-157 490,-137 288,-137"/>
<polygon fill="none" stroke="black" points="288,-137 288,-157 490,-157 490,-137 288,-137"/>
<text text-anchor="start" x="310.5" y="-143.733" font-family="Times Roman,serif" font-size="14.00">[STRING] model (Optional)</text>
</a>
<a xlink:href="/help/idmefnav?idmef_class=Analyzer" xlink:title="Operating system version. &#160;On POSIX 1003.1 compliant systems, this is the value returned in utsname.release by the uname() system call, or the output of the &quot;uname &#45;r&quot; command.">
<polygon fill="#ffff66" stroke="#ffff66" points="288,-117 288,-137 490,-137 490,-117 288,-117"/>
<polygon fill="none" stroke="black" points="288,-117 288,-137 490,-137 490,-117 288,-117"/>
<text text-anchor="start" x="302" y="-123.733" font-family="Times Roman,serif" font-size="14.00">[STRING] osversion (Optional)</text>
</a>
<a xlink:href="/help/idmefnav?idmef_class=Analyzer" xlink:title="The class of analyzer software and/or hardware.">
<polygon fill="#ffff66" stroke="#ffff66" points="288,-97 288,-117 490,-117 490,-97 288,-97"/>
<polygon fill="none" stroke="black" points="288,-97 288,-117 490,-117 490,-97 288,-97"/>
<text text-anchor="start" x="315" y="-103.733" font-family="Times Roman,serif" font-size="14.00">[STRING] class (Optional)</text>
</a>
<a xlink:href="/help/idmefnav?idmef_class=Analyzer" xlink:title="The manufacturer of the analyzer software and/or hardware.">
<polygon fill="#ffff66" stroke="#ffff66" points="288,-77 288,-97 490,-97 490,-77 288,-77"/>
<polygon fill="none" stroke="black" points="288,-77 288,-97 490,-97 490,-77 288,-77"/>
<text text-anchor="start" x="291.5" y="-83.7333" font-family="Times Roman,serif" font-size="14.00">[STRING] manufacturer (Optional)</text>
</a>
<a xlink:href="/help/idmefnav?idmef_class=Analyzer" xlink:title="(but see below). &#160;A unique identifier for the analyzer; see Section 3.2.9.">
<polygon fill="#ffff66" stroke="#ffff66" points="288,-57 288,-77 490,-77 490,-57 288,-57"/>
<polygon fill="none" stroke="black" points="288,-57 288,-77 490,-77 490,-57 288,-57"/>
<text text-anchor="start" x="300" y="-63.7333" font-family="Times Roman,serif" font-size="14.00">[STRING] analyzerid (Optional)</text>
</a>
</g>
<!-- Heartbeat&#45;&#45;Analyzer -->
<g id="edge14" class="edge"><title>Heartbeat&#45;&#45;Analyzer</title>
<path fill="none" stroke="black" d="M194.033,-227.951C218.043,-218.105 244.728,-207.162 270.457,-196.611"/>
<polygon fill="black" stroke="black" points="271.962,-199.777 279.886,-192.744 269.306,-193.3 271.962,-199.777"/>
<text text-anchor="middle" x="251" y="-215.4" font-family="Times Roman,serif" font-size="14.00">1</text>
</g>
<!-- AnalyzerTime -->
<g id="node15" class="node"><title>AnalyzerTime</title>
<a xlink:href="/help/idmefnav?idmef_class=AnalyzerTime" xlink:title="The AnalyzerTime class is used to indicate the current date and time on the analyzer. &#160;Its values should be filled in as late as possible in the message transmission process, ideally immediately before placing the message &quot;on the wire&quot;. ">
<polygon fill="#5b5b99" stroke="#5b5b99" points="346,-7 346,-28 432,-28 432,-7 346,-7"/>
<polygon fill="none" stroke="black" points="346,-7 346,-28 432,-28 432,-7 346,-7"/>
<text text-anchor="start" x="349.5" y="-14.2333" font-family="Times Roman,serif" font-size="14.00">AnalyzerTime</text>
</a>
</g>
<!-- Heartbeat&#45;&#45;AnalyzerTime -->
<g id="edge16" class="edge"><title>Heartbeat&#45;&#45;AnalyzerTime</title>
<path fill="none" stroke="black" d="M127.997,-227.954C153.95,-179.587 208.115,-91.6832 280,-45 294.217,-35.7672 311.351,-29.6914 327.781,-25.6933"/>
<polygon fill="black" stroke="black" points="328.877,-29.0358 337.887,-23.4627 327.368,-22.2003 328.877,-29.0358"/>
<text text-anchor="middle" x="251" y="-79.4" font-family="Times Roman,serif" font-size="14.00">0..1</text>
</g>
<!-- Address -->
<g id="node6" class="node"><title>Address</title>
<a xlink:href="/help/idmefnav?idmef_class=Address" xlink:title="The Address class is used to represent network, hardware, and application addresses. ">
<polygon fill="#007a00" stroke="#007a00" points="807,-270 807,-291 998,-291 998,-270 807,-270"/>
<polygon fill="none" stroke="black" points="807,-270 807,-291 998,-291 998,-270 807,-270"/>
<text text-anchor="start" x="880" y="-277.233" font-family="Times Roman,serif" font-size="14.00">Address</text>
</a>
<a xlink:href="/help/idmefnav?idmef_class=Address" xlink:title="The network mask for the address, if appropriate.">
<polygon fill="#00cc00" stroke="#00cc00" points="807,-250 807,-270 998,-270 998,-250 807,-250"/>
<polygon fill="none" stroke="black" points="807,-250 807,-270 998,-270 998,-250 807,-250"/>
<text text-anchor="start" x="831.5" y="-256.733" font-family="Times Roman,serif" font-size="14.00">[STRING] netmask (0..1)</text>
</a>
<a xlink:href="/help/idmefnav?idmef_class=Address" xlink:title="The address information. &#160;The format of this data is governed by the category attribute.">
<polygon fill="#00cc00" stroke="#00cc00" points="807,-230 807,-250 998,-250 998,-230 807,-230"/>
<polygon fill="none" stroke="black" points="807,-230 807,-250 998,-250 998,-230 807,-230"/>
<text text-anchor="start" x="841.5" y="-236.733" font-family="Times Roman,serif" font-size="14.00">[STRING] address (1)</text>
</a>
<a xlink:href="/help/idmefnav?idmef_class=Address" xlink:title="The type of address represented. &#160;The permitted values for this attribute are shown below. &#160;The default value is &quot;unknown&quot;. &#160;(See also Section 10.)">
<polygon fill="#00cc00" stroke="#00cc00" points="807,-210 807,-230 998,-230 998,-210 807,-210"/>
<polygon fill="none" stroke="black" points="807,-210 807,-230 998,-230 998,-210 807,-210"/>
<text text-anchor="start" x="822.5" y="-216.733" font-family="Times Roman,serif" font-size="14.00">[ENUM] category (Optional)</text>
</a>
<a xlink:href="/help/idmefnav?idmef_class=Address" xlink:title="The name of the Virtual LAN to which the address belongs.">
<polygon fill="#00cc00" stroke="#00cc00" points="807,-190 807,-210 998,-210 998,-190 807,-190"/>
<polygon fill="none" stroke="black" points="807,-190 807,-210 998,-210 998,-190 807,-190"/>
<text text-anchor="start" x="812.5" y="-196.733" font-family="Times Roman,serif" font-size="14.00">[STRING] vlan&#45;name (Optional)</text>
</a>
<a xlink:href="/help/idmefnav?idmef_class=Address" xlink:title="The number of the Virtual LAN to which the address belongs.">
<polygon fill="#00cc00" stroke="#00cc00" points="807,-170 807,-190 998,-190 998,-170 807,-170"/>
<polygon fill="none" stroke="black" points="807,-170 807,-190 998,-190 998,-170 807,-170"/>
<text text-anchor="start" x="810.5" y="-176.733" font-family="Times Roman,serif" font-size="14.00">[INTEGER] vlan&#45;num (Optional)</text>
</a>
<a xlink:href="/help/idmefnav?idmef_class=Address" xlink:title="A unique identifier for the address; see Section 3.2.9.">
<polygon fill="#00cc00" stroke="#00cc00" points="807,-150 807,-170 998,-170 998,-150 807,-150"/>
<polygon fill="none" stroke="black" points="807,-150 807,-170 998,-170 998,-150 807,-150"/>
<text text-anchor="start" x="828" y="-156.733" font-family="Times Roman,serif" font-size="14.00">[STRING] ident (Optional)</text>
</a>
</g>
<!-- Node -->
<g id="node7" class="node"><title>Node</title>
<a xlink:href="/help/idmefnav?idmef_class=Node" xlink:title="The Node class is used to identify hosts and other network devices (routers, switches, etc.). ">
<polygon fill="#007a00" stroke="#007a00" points="565,-250 565,-271 732,-271 732,-250 565,-250"/>
<polygon fill="none" stroke="black" points="565,-250 565,-271 732,-271 732,-250 565,-250"/>
<text text-anchor="start" x="633.5" y="-257.233" font-family="Times Roman,serif" font-size="14.00">Node</text>
</a>
<a xlink:href="/help/idmefnav?idmef_class=Node" xlink:title="The location of the equipment.">
<polygon fill="#00cc00" stroke="#00cc00" points="565,-230 565,-250 732,-250 732,-230 565,-230"/>
<polygon fill="none" stroke="black" points="565,-230 565,-250 732,-250 732,-230 565,-230"/>
<text text-anchor="start" x="579" y="-236.733" font-family="Times Roman,serif" font-size="14.00">[STRING] location (0..1)</text>
</a>
<a xlink:href="/help/idmefnav?idmef_class=Node" xlink:title="The name of the equipment. &#160;This information MUST be provided if no Address information is given.">
<polygon fill="#00cc00" stroke="#00cc00" points="565,-210 565,-230 732,-230 732,-210 565,-210"/>
<polygon fill="none" stroke="black" points="565,-210 565,-230 732,-230 732,-210 565,-210"/>
<text text-anchor="start" x="585.5" y="-216.733" font-family="Times Roman,serif" font-size="14.00">[STRING] name (0..1)</text>
</a>
<a xlink:href="/help/idmefnav?idmef_class=Node" xlink:title="The &quot;domain&quot; from which the name information was obtained, if relevant. &#160;The permitted values for this attribute are shown in the table below. &#160;The default value is &quot;unknown&quot;. (See also Section 10 for extensions to the table.)">
<polygon fill="#00cc00" stroke="#00cc00" points="565,-190 565,-210 732,-210 732,-190 565,-190"/>
<polygon fill="none" stroke="black" points="565,-190 565,-210 732,-210 732,-190 565,-190"/>
<text text-anchor="start" x="568.5" y="-196.733" font-family="Times Roman,serif" font-size="14.00">[ENUM] category (Optional)</text>
</a>
<a xlink:href="/help/idmefnav?idmef_class=Node" xlink:title="A unique identifier for the node; see Section 3.2.9.">
<polygon fill="#00cc00" stroke="#00cc00" points="565,-170 565,-190 732,-190 732,-170 565,-170"/>
<polygon fill="none" stroke="black" points="565,-170 565,-190 732,-190 732,-170 565,-170"/>
<text text-anchor="start" x="574" y="-176.733" font-family="Times Roman,serif" font-size="14.00">[STRING] ident (Optional)</text>
</a>
</g>
<!-- Node&#45;&#45;Address -->
<g id="edge6" class="edge"><title>Node&#45;&#45;Address</title>
<path fill="none" stroke="black" d="M739.7,-221C755.468,-221 772.026,-221 788.289,-221"/>
<polygon fill="black" stroke="black" points="788.368,-224.5 798.368,-221 788.368,-217.5 788.368,-224.5"/>
<text text-anchor="middle" x="769" y="-227.4" font-family="Times Roman,serif" font-size="14.00">0..*</text>
</g>
<!-- Analyzer&#45;&#45;Node -->
<g id="edge8" class="edge"><title>Analyzer&#45;&#45;Node</title>
<path fill="none" stroke="black" d="M498.089,-178.747C514.117,-183.265 530.573,-187.903 546.441,-192.375"/>
<polygon fill="black" stroke="black" points="545.662,-195.792 556.236,-195.136 547.561,-189.054 545.662,-195.792"/>
<text text-anchor="middle" x="527" y="-195.4" font-family="Times Roman,serif" font-size="14.00">0..1</text>
</g>
<!-- Analyzer&#45;&#45;Analyzer -->
<g id="edge12" class="edge"><title>Analyzer&#45;&#45;Analyzer</title>
<path fill="none" stroke="black" d="M367.073,-242.373C371.179,-253.068 378.488,-260 389,-260 396.227,-260 401.94,-256.724 406.139,-251.201"/>
<polygon fill="black" stroke="black" points="409.236,-252.832 410.927,-242.373 403.082,-249.495 409.236,-252.832"/>
<text text-anchor="middle" x="389" y="-266.4" font-family="Times Roman,serif" font-size="14.00">0..1</text>
</g>
<!-- Process -->
<g id="node11" class="node"><title>Process</title>
<a xlink:href="/help/idmefnav?idmef_class=Process" xlink:title="The Process class is used to describe processes being executed on sources, targets, and analyzers. ">
<polygon fill="#997a3d" stroke="#997a3d" points="570,-124 570,-145 726,-145 726,-124 570,-124"/>
<polygon fill="none" stroke="black" points="570,-124 570,-145 726,-145 726,-124 570,-124"/>
<text text-anchor="start" x="627" y="-131.233" font-family="Times Roman,serif" font-size="14.00">Process</text>
</a>
<a xlink:href="/help/idmefnav?idmef_class=Process" xlink:title="The full path of the program being executed.">
<polygon fill="#ffcc66" stroke="#ffcc66" points="570,-104 570,-124 726,-124 726,-104 570,-104"/>
<polygon fill="none" stroke="black" points="570,-104 570,-124 726,-124 726,-104 570,-104"/>
<text text-anchor="start" x="588.5" y="-110.733" font-family="Times Roman,serif" font-size="14.00">[STRING] path (0..1)</text>
</a>
<a xlink:href="/help/idmefnav?idmef_class=Process" xlink:title="The process identifier of the process.">
<polygon fill="#ffcc66" stroke="#ffcc66" points="570,-84 570,-104 726,-104 726,-84 570,-84"/>
<polygon fill="none" stroke="black" points="570,-84 570,-104 726,-104 726,-84 570,-84"/>
<text text-anchor="start" x="587" y="-90.7333" font-family="Times Roman,serif" font-size="14.00">[INTEGER] pid (0..1)</text>
</a>
<a xlink:href="/help/idmefnav?idmef_class=Process" xlink:title="The name of the program being executed. This is a short name; path and argument information are provided elsewhere.">
<polygon fill="#ffcc66" stroke="#ffcc66" points="570,-64 570,-84 726,-84 726,-64 570,-64"/>
<polygon fill="none" stroke="black" points="570,-64 570,-84 726,-84 726,-64 570,-64"/>
<text text-anchor="start" x="592" y="-70.7333" font-family="Times Roman,serif" font-size="14.00">[STRING] name (1)</text>
</a>
<a xlink:href="/help/idmefnav?idmef_class=Process" xlink:title="An environment string associated with the process; generally of the format &quot;VARIABLE=value&quot;. &#160;Multiple environment strings may be specified with multiple uses of env.">
<polygon fill="#ffcc66" stroke="#ffcc66" points="570,-44 570,-64 726,-64 726,-44 570,-44"/>
<polygon fill="none" stroke="black" points="570,-44 570,-64 726,-64 726,-44 570,-44"/>
<text text-anchor="start" x="590.5" y="-50.7333" font-family="Times Roman,serif" font-size="14.00">[STRING] env (0..*)</text>
</a>
<a xlink:href="/help/idmefnav?idmef_class=Process" xlink:title="A command&#45;line argument to the program. Multiple arguments may be specified (they are assumed to have occurred in the same order they are provided) with multiple uses of arg.">
<polygon fill="#ffcc66" stroke="#ffcc66" points="570,-24 570,-44 726,-44 726,-24 570,-24"/>
<polygon fill="none" stroke="black" points="570,-24 570,-44 726,-44 726,-24 570,-24"/>
<text text-anchor="start" x="591.5" y="-30.7333" font-family="Times Roman,serif" font-size="14.00">[STRING] arg (0..*)</text>
</a>
<a xlink:href="/help/idmefnav?idmef_class=Process" xlink:title="A unique identifier for the process; see Section 3.2.9.">
<polygon fill="#ffcc66" stroke="#ffcc66" points="570,-4 570,-24 726,-24 726,-4 570,-4"/>
<polygon fill="none" stroke="black" points="570,-4 570,-24 726,-24 726,-4 570,-4"/>
<text text-anchor="start" x="573.5" y="-10.7333" font-family="Times Roman,serif" font-size="14.00">[STRING] ident (Optional)</text>
</a>
</g>
<!-- Analyzer&#45;&#45;Process -->
<g id="edge10" class="edge"><title>Analyzer&#45;&#45;Process</title>
<path fill="none" stroke="black" d="M498.089,-117.253C516.052,-112.19 534.553,-106.975 552.162,-102.012"/>
<polygon fill="black" stroke="black" points="553.168,-105.365 561.844,-99.2834 551.269,-98.6275 553.168,-105.365"/>
<text text-anchor="middle" x="527" y="-118.4" font-family="Times Roman,serif" font-size="14.00">0..1</text>
</g>
</g>
</svg>
