<?xml version="1.0" encoding="UTF-8" standalone="no"?>
<!DOCTYPE svg PUBLIC "-//W3C//DTD SVG 1.1//EN"
 "http://www.w3.org/Graphics/SVG/1.1/DTD/svg11.dtd">
<!-- Generated by graphviz version 2.26.0 (20091210.2329)
 -->
<!-- Title: _anonymous_0 Pages: 1 -->
<svg width="180pt" height="156pt"
 viewBox="0.00 0.00 180.00 156.00" xmlns="http://www.w3.org/2000/svg" xmlns:xlink="http://www.w3.org/1999/xlink">
<g id="graph1" class="graph" transform="scale(1 1) rotate(0) translate(4 152)">
<title>_anonymous_0</title>
<polygon fill="white" stroke="white" points="-4,5 -4,-152 177,-152 177,5 -4,5"/>
<!-- Process -->
<g id="node1" class="node"><title>Process</title>
<a xlink:href="/help/idmefnav?idmef_class=Process" xlink:title="The Process class is used to describe processes being executed on sources, targets, and analyzers. ">
<polygon fill="#997a3d" stroke="#997a3d" points="8,-123 8,-144 164,-144 164,-123 8,-123"/>
<polygon fill="none" stroke="black" points="8,-123 8,-144 164,-144 164,-123 8,-123"/>
<text text-anchor="start" x="65" y="-130.233" font-family="Times Roman,serif" font-size="14.00">Process</text>
</a>
<a xlink:href="/help/idmefnav?idmef_class=Process" xlink:title="The full path of the program being executed.">
<polygon fill="#ffcc66" stroke="#ffcc66" points="8,-103 8,-123 164,-123 164,-103 8,-103"/>
<polygon fill="none" stroke="black" points="8,-103 8,-123 164,-123 164,-103 8,-103"/>
<text text-anchor="start" x="26.5" y="-109.733" font-family="Times Roman,serif" font-size="14.00">[STRING] path (0..1)</text>
</a>
<a xlink:href="/help/idmefnav?idmef_class=Process" xlink:title="The process identifier of the process.">
<polygon fill="#ffcc66" stroke="#ffcc66" points="8,-83 8,-103 164,-103 164,-83 8,-83"/>
<polygon fill="none" stroke="black" points="8,-83 8,-103 164,-103 164,-83 8,-83"/>
<text text-anchor="start" x="25" y="-89.7333" font-family="Times Roman,serif" font-size="14.00">[INTEGER] pid (0..1)</text>
</a>
<a xlink:href="/help/idmefnav?idmef_class=Process" xlink:title="The name of the program being executed. This is a short name; path and argument information are provided elsewhere.">
<polygon fill="#ffcc66" stroke="#ffcc66" points="8,-63 8,-83 164,-83 164,-63 8,-63"/>
<polygon fill="none" stroke="black" points="8,-63 8,-83 164,-83 164,-63 8,-63"/>
<text text-anchor="start" x="30" y="-69.7333" font-family="Times Roman,serif" font-size="14.00">[STRING] name (1)</text>
</a>
<a xlink:href="/help/idmefnav?idmef_class=Process" xlink:title="An environment string associated with the process; generally of the format &quot;VARIABLE=value&quot;. &#160;Multiple environment strings may be specified with multiple uses of env.">
<polygon fill="#ffcc66" stroke="#ffcc66" points="8,-43 8,-63 164,-63 164,-43 8,-43"/>
<polygon fill="none" stroke="black" points="8,-43 8,-63 164,-63 164,-43 8,-43"/>
<text text-anchor="start" x="28.5" y="-49.7333" font-family="Times Roman,serif" font-size="14.00">[STRING] env (0..*)</text>
</a>
<a xlink:href="/help/idmefnav?idmef_class=Process" xlink:title="A command&#45;line argument to the program. Multiple arguments may be specified (they are assumed to have occurred in the same order they are provided) with multiple uses of arg.">
<polygon fill="#ffcc66" stroke="#ffcc66" points="8,-23 8,-43 164,-43 164,-23 8,-23"/>
<polygon fill="none" stroke="black" points="8,-23 8,-43 164,-43 164,-23 8,-23"/>
<text text-anchor="start" x="29.5" y="-29.7333" font-family="Times Roman,serif" font-size="14.00">[STRING] arg (0..*)</text>
</a>
<a xlink:href="/help/idmefnav?idmef_class=Process" xlink:title="A unique identifier for the process; see Section 3.2.9.">
<polygon fill="#ffcc66" stroke="#ffcc66" points="8,-3 8,-23 164,-23 164,-3 8,-3"/>
<polygon fill="none" stroke="black" points="8,-3 8,-23 164,-23 164,-3 8,-3"/>
<text text-anchor="start" x="11.5" y="-9.73333" font-family="Times Roman,serif" font-size="14.00">[STRING] ident (Optional)</text>
</a>
</g>
</g>
</svg>
