<?xml version="1.0" encoding="UTF-8" standalone="no"?>
<!DOCTYPE svg PUBLIC "-//W3C//DTD SVG 1.1//EN"
 "http://www.w3.org/Graphics/SVG/1.1/DTD/svg11.dtd">
<!-- Generated by graphviz version 2.26.0 (20091210.2329)
 -->
<!-- Title: _anonymous_0 Pages: 1 -->
<svg width="592pt" height="322pt"
 viewBox="0.00 0.00 592.00 322.00" xmlns="http://www.w3.org/2000/svg" xmlns:xlink="http://www.w3.org/1999/xlink">
<g id="graph1" class="graph" transform="scale(1 1) rotate(0) translate(4 318)">
<title>_anonymous_0</title>
<polygon fill="white" stroke="white" points="-4,5 -4,-318 589,-318 589,5 -4,5"/>
<!-- SNMPService -->
<g id="node1" class="node"><title>SNMPService</title>
<a xlink:href="/help/idmefnav?idmef_class=SNMPService" xlink:title="The SNMPService class carries additional information related to SNMP traffic. &#160;The aggregate classes composing SNMPService must be interpreted as described in RFC 3411 [15] and RFC 3584 [16]. ">
<polygon fill="#997a7a" stroke="#997a7a" points="323,-289 323,-310 576,-310 576,-289 323,-289"/>
<polygon fill="none" stroke="black" points="323,-289 323,-310 576,-310 576,-289 323,-289"/>
<text text-anchor="start" x="410" y="-296.233" font-family="Times Roman,serif" font-size="14.00">SNMPService</text>
</a>
<a xlink:href="/help/idmefnav?idmef_class=SNMPService" xlink:title="The security level of the SNMP request; see RFC 3411 [15] Section 3.4.3.">
<polygon fill="#ffcccc" stroke="#ffcccc" points="323,-269 323,-289 576,-289 576,-269 323,-269"/>
<polygon fill="none" stroke="black" points="323,-269 323,-289 576,-289 576,-269 323,-269"/>
<text text-anchor="start" x="360.5" y="-275.733" font-family="Times Roman,serif" font-size="14.00">[INTEGER] securityLevel (0..1)</text>
</a>
<a xlink:href="/help/idmefnav?idmef_class=SNMPService" xlink:title="The object&#39;s context name; see RFC 3411 [15] Section 3.3.3.">
<polygon fill="#ffcccc" stroke="#ffcccc" points="323,-249 323,-269 576,-269 576,-249 323,-249"/>
<polygon fill="none" stroke="black" points="323,-249 323,-269 576,-269 576,-249 323,-249"/>
<text text-anchor="start" x="365" y="-255.733" font-family="Times Roman,serif" font-size="14.00">[STRING] contextName (0..1)</text>
</a>
<a xlink:href="/help/idmefnav?idmef_class=SNMPService" xlink:title="The object&#39;s context engine identifier; see RFC 3411 [15] Section 3.3.2.">
<polygon fill="#ffcccc" stroke="#ffcccc" points="323,-229 323,-249 576,-249 576,-229 323,-229"/>
<polygon fill="none" stroke="black" points="323,-229 323,-249 576,-249 576,-229 323,-229"/>
<text text-anchor="start" x="355.5" y="-235.733" font-family="Times Roman,serif" font-size="14.00">[STRING] contextEngineID (0..1)</text>
</a>
<a xlink:href="/help/idmefnav?idmef_class=SNMPService" xlink:title="The object identifier in the request.">
<polygon fill="#ffcccc" stroke="#ffcccc" points="323,-209 323,-229 576,-229 576,-209 323,-209"/>
<polygon fill="none" stroke="black" points="323,-209 323,-229 576,-229 576,-209 323,-209"/>
<text text-anchor="start" x="393" y="-215.733" font-family="Times Roman,serif" font-size="14.00">[STRING] oid (0..1)</text>
</a>
<a xlink:href="/help/idmefnav?idmef_class=SNMPService" xlink:title="The SNMP version, typically 0 for SNMPv1, 1 for SNMPv2c, 2 for SNMPv2u and SNMPv2*, and 3 for SNMPv3; see RFC 3411 [15] Section 5 for appropriate values.">
<polygon fill="#ffcccc" stroke="#ffcccc" points="323,-189 323,-209 576,-209 576,-189 323,-189"/>
<polygon fill="none" stroke="black" points="323,-189 323,-209 576,-209 576,-189 323,-189"/>
<text text-anchor="start" x="326.5" y="-195.733" font-family="Times Roman,serif" font-size="14.00">[INTEGER] messageProcessingModel (0..1)</text>
</a>
<a xlink:href="/help/idmefnav?idmef_class=SNMPService" xlink:title="The command sent to the SNMP server (GET, SET, etc.).">
<polygon fill="#ffcccc" stroke="#ffcccc" points="323,-169 323,-189 576,-189 576,-169 323,-169"/>
<polygon fill="none" stroke="black" points="323,-169 323,-189 576,-189 576,-169 323,-169"/>
<text text-anchor="start" x="374" y="-175.733" font-family="Times Roman,serif" font-size="14.00">[STRING] command (0..1)</text>
</a>
<a xlink:href="/help/idmefnav?idmef_class=SNMPService" xlink:title="The object&#39;s security name; see RFC 3411 [15] Section 3.2.2.">
<polygon fill="#ffcccc" stroke="#ffcccc" points="323,-149 323,-169 576,-169 576,-149 323,-149"/>
<polygon fill="none" stroke="black" points="323,-149 323,-169 576,-169 576,-149 323,-149"/>
<text text-anchor="start" x="363.5" y="-155.733" font-family="Times Roman,serif" font-size="14.00">[STRING] securityName (0..1)</text>
</a>
<a xlink:href="/help/idmefnav?idmef_class=SNMPService" xlink:title="The identification of the security model in use, typically 0 for any, 1 for SNMPv1, 2 for SNMPv2c, and 3 for USM; see RFC 3411 [15] Section 5 for appropriate values.">
<polygon fill="#ffcccc" stroke="#ffcccc" points="323,-129 323,-149 576,-149 576,-129 323,-129"/>
<polygon fill="none" stroke="black" points="323,-129 323,-149 576,-149 576,-129 323,-129"/>
<text text-anchor="start" x="357.5" y="-135.733" font-family="Times Roman,serif" font-size="14.00">[INTEGER] securityModel (0..1)</text>
</a>
</g>
<!-- Service -->
<g id="node2" class="node"><title>Service</title>
<a xlink:href="/help/idmefnav?idmef_class=Service" xlink:title="The Service class describes network services on sources and targets. It can identify services by name, port, and protocol. &#160;When Service occurs as an aggregate class of Source, it is understood that the service is one from which activity of interest is originating; and that the service is &quot;attached&quot; to the Node, Process, and User information also contained in Source. &#160;Likewise, when Service occurs as an aggregate class of Target, it is understood that the service is one to which activity of interest is being directed; and that the service is &quot;attached&quot; to the Node, Process, and User information also contained in Target. &#160;If Service occurs in both Source and Target, then information in both locations should be the same. &#160;If information is the same in both locations and implementers wish to carry it in only one location, they should specify it as an aggregate of the Target class. ">
<polygon fill="#997a7a" stroke="#997a7a" points="9,-206 9,-227 270,-227 270,-206 9,-206"/>
<polygon fill="none" stroke="black" points="9,-206 9,-227 270,-227 270,-206 9,-206"/>
<text text-anchor="start" x="119" y="-213.233" font-family="Times Roman,serif" font-size="14.00">Service</text>
</a>
<a xlink:href="/help/idmefnav?idmef_class=Service" xlink:title="A list of port numbers being used; see Section 3.2.8 for formatting rules. &#160;If a portlist is given, the iana_protocol_number and iana_protocol_name MUST apply to all the elements of the list.">
<polygon fill="#ffcccc" stroke="#ffcccc" points="9,-186 9,-206 270,-206 270,-186 9,-186"/>
<polygon fill="none" stroke="black" points="9,-186 9,-206 270,-206 270,-186 9,-186"/>
<text text-anchor="start" x="65.5" y="-192.733" font-family="Times Roman,serif" font-size="14.00">[PORTLIST] portlist (0..1)</text>
</a>
<a xlink:href="/help/idmefnav?idmef_class=Service" xlink:title="Additional information about the protocol being used. &#160;The intent of the protocol field is to carry additional information related to the protocol being used when the &lt;Service&gt; attributes iana_protocol_number or/and iana_protocol_name are filed.">
<polygon fill="#ffcccc" stroke="#ffcccc" points="9,-166 9,-186 270,-186 270,-166 9,-166"/>
<polygon fill="none" stroke="black" points="9,-166 9,-186 270,-186 270,-166 9,-166"/>
<text text-anchor="start" x="69" y="-172.733" font-family="Times Roman,serif" font-size="14.00">[STRING] protocol (0..1)</text>
</a>
<a xlink:href="/help/idmefnav?idmef_class=Service" xlink:title="The name of the service. &#160;Whenever possible, the name from the IANA list of well&#45;known ports SHOULD be used.">
<polygon fill="#ffcccc" stroke="#ffcccc" points="9,-146 9,-166 270,-166 270,-146 9,-146"/>
<polygon fill="none" stroke="black" points="9,-146 9,-166 270,-166 270,-146 9,-146"/>
<text text-anchor="start" x="76.5" y="-152.733" font-family="Times Roman,serif" font-size="14.00">[STRING] name (0..1)</text>
</a>
<a xlink:href="/help/idmefnav?idmef_class=Service" xlink:title="The port number being used.">
<polygon fill="#ffcccc" stroke="#ffcccc" points="9,-126 9,-146 270,-146 270,-126 9,-126"/>
<polygon fill="none" stroke="black" points="9,-126 9,-146 270,-146 270,-126 9,-126"/>
<text text-anchor="start" x="76" y="-132.733" font-family="Times Roman,serif" font-size="14.00">[INTEGER] port (0..1)</text>
</a>
<a xlink:href="/help/idmefnav?idmef_class=Service" xlink:title="The IP version number.">
<polygon fill="#ffcccc" stroke="#ffcccc" points="9,-106 9,-126 270,-126 270,-106 9,-106"/>
<polygon fill="none" stroke="black" points="9,-106 9,-126 270,-126 270,-106 9,-106"/>
<text text-anchor="start" x="45.5" y="-112.733" font-family="Times Roman,serif" font-size="14.00">[INTEGER] ip_version (Optional)</text>
</a>
<a xlink:href="/help/idmefnav?idmef_class=Service" xlink:title="The IANA protocol name.">
<polygon fill="#ffcccc" stroke="#ffcccc" points="9,-86 9,-106 270,-106 270,-86 9,-86"/>
<polygon fill="none" stroke="black" points="9,-86 9,-106 270,-106 270,-86 9,-86"/>
<text text-anchor="start" x="23" y="-92.7333" font-family="Times Roman,serif" font-size="14.00">[STRING] iana_protocol_name (Optional)</text>
</a>
<a xlink:href="/help/idmefnav?idmef_class=Service" xlink:title="A unique identifier for the service; see Section 3.2.9.">
<polygon fill="#ffcccc" stroke="#ffcccc" points="9,-66 9,-86 270,-86 270,-66 9,-66"/>
<polygon fill="none" stroke="black" points="9,-66 9,-86 270,-86 270,-66 9,-66"/>
<text text-anchor="start" x="65" y="-72.7333" font-family="Times Roman,serif" font-size="14.00">[STRING] ident (Optional)</text>
</a>
<a xlink:href="/help/idmefnav?idmef_class=Service" xlink:title="The IANA protocol number.">
<polygon fill="#ffcccc" stroke="#ffcccc" points="9,-46 9,-66 270,-66 270,-46 9,-46"/>
<polygon fill="none" stroke="black" points="9,-46 9,-66 270,-66 270,-46 9,-46"/>
<text text-anchor="start" x="12.5" y="-52.7333" font-family="Times Roman,serif" font-size="14.00">[INTEGER] iana_protocol_number (Optional)</text>
</a>
</g>
<!-- Service&#45;&#45;SNMPService -->
<g id="edge2" class="edge"><title>Service&#45;&#45;SNMPService</title>
<path fill="none" stroke="black" d="M287.621,-176.792C296.443,-179.154 305.292,-181.523 314.055,-183.869"/>
<polygon fill="none" stroke="black" points="278.585,-170.749 287.339,-176.717 276.774,-177.511 278.585,-170.749"/>
</g>
<!-- WebService -->
<g id="node4" class="node"><title>WebService</title>
<a xlink:href="/help/idmefnav?idmef_class=WebService" xlink:title="The WebService class carries additional information related to web traffic. ">
<polygon fill="#997a7a" stroke="#997a7a" points="364,-83 364,-104 534,-104 534,-83 364,-83"/>
<polygon fill="none" stroke="black" points="364,-83 364,-104 534,-104 534,-83 364,-83"/>
<text text-anchor="start" x="415.5" y="-90.2333" font-family="Times Roman,serif" font-size="14.00">WebService</text>
</a>
<a xlink:href="/help/idmefnav?idmef_class=WebService" xlink:title="The URL in the request.">
<polygon fill="#ffcccc" stroke="#ffcccc" points="364,-63 364,-83 534,-83 534,-63 364,-63"/>
<polygon fill="none" stroke="black" points="364,-63 364,-83 534,-83 534,-63 364,-63"/>
<text text-anchor="start" x="400.5" y="-69.7333" font-family="Times Roman,serif" font-size="14.00">[STRING] url (1)</text>
</a>
<a xlink:href="/help/idmefnav?idmef_class=WebService" xlink:title="The CGI script in the request, without arguments.">
<polygon fill="#ffcccc" stroke="#ffcccc" points="364,-43 364,-63 534,-63 534,-43 364,-43"/>
<polygon fill="none" stroke="black" points="364,-43 364,-63 534,-63 534,-43 364,-43"/>
<text text-anchor="start" x="393" y="-49.7333" font-family="Times Roman,serif" font-size="14.00">[STRING] cgi (0..1)</text>
</a>
<a xlink:href="/help/idmefnav?idmef_class=WebService" xlink:title="The HTTP method (PUT, GET) used in the request.">
<polygon fill="#ffcccc" stroke="#ffcccc" points="364,-23 364,-43 534,-43 534,-23 364,-23"/>
<polygon fill="none" stroke="black" points="364,-23 364,-43 534,-43 534,-23 364,-23"/>
<text text-anchor="start" x="367.5" y="-29.7333" font-family="Times Roman,serif" font-size="14.00">[STRING] http&#45;method (0..1)</text>
</a>
<a xlink:href="/help/idmefnav?idmef_class=WebService" xlink:title="The arguments to the CGI script.">
<polygon fill="#ffcccc" stroke="#ffcccc" points="364,-3 364,-23 534,-23 534,-3 364,-3"/>
<polygon fill="none" stroke="black" points="364,-3 364,-23 534,-23 534,-3 364,-3"/>
<text text-anchor="start" x="392.5" y="-9.73333" font-family="Times Roman,serif" font-size="14.00">[STRING] arg (0..*)</text>
</a>
</g>
<!-- Service&#45;&#45;WebService -->
<g id="edge4" class="edge"><title>Service&#45;&#45;WebService</title>
<path fill="none" stroke="black" d="M287.618,-97.2088C310.849,-90.9889 334.271,-84.7178 355.793,-78.9555"/>
<polygon fill="none" stroke="black" points="276.774,-96.4888 287.339,-97.2833 278.585,-103.251 276.774,-96.4888"/>
</g>
</g>
</svg>
