<?xml version="1.0" encoding="UTF-8" standalone="no"?>
<!DOCTYPE svg PUBLIC "-//W3C//DTD SVG 1.1//EN"
 "http://www.w3.org/Graphics/SVG/1.1/DTD/svg11.dtd">
<!-- Generated by graphviz version 2.26.0 (20091210.2329)
 -->
<!-- Title: _anonymous_0 Pages: 1 -->
<svg width="864pt" height="735pt"
 viewBox="0.00 0.00 864.00 735.00" xmlns="http://www.w3.org/2000/svg" xmlns:xlink="http://www.w3.org/1999/xlink">
<g id="graph1" class="graph" transform="scale(1 1) rotate(0) translate(4 731)">
<title>_anonymous_0</title>
<polygon fill="white" stroke="white" points="-4,5 -4,-731 861,-731 861,5 -4,5"/>
<!-- Address -->
<g id="node1" class="node"><title>Address</title>
<a xlink:href="/help/idmefnav?idmef_class=Address" xlink:title="The Address class is used to represent network, hardware, and application addresses. ">
<polygon fill="#007a00" stroke="#007a00" points="626,-702 626,-723 817,-723 817,-702 626,-702"/>
<polygon fill="none" stroke="black" points="626,-702 626,-723 817,-723 817,-702 626,-702"/>
<text text-anchor="start" x="699" y="-709.233" font-family="Times Roman,serif" font-size="14.00">Address</text>
</a>
<a xlink:href="/help/idmefnav?idmef_class=Address" xlink:title="The network mask for the address, if appropriate.">
<polygon fill="#00cc00" stroke="#00cc00" points="626,-682 626,-702 817,-702 817,-682 626,-682"/>
<polygon fill="none" stroke="black" points="626,-682 626,-702 817,-702 817,-682 626,-682"/>
<text text-anchor="start" x="650.5" y="-688.733" font-family="Times Roman,serif" font-size="14.00">[STRING] netmask (0..1)</text>
</a>
<a xlink:href="/help/idmefnav?idmef_class=Address" xlink:title="The address information. &#160;The format of this data is governed by the category attribute.">
<polygon fill="#00cc00" stroke="#00cc00" points="626,-662 626,-682 817,-682 817,-662 626,-662"/>
<polygon fill="none" stroke="black" points="626,-662 626,-682 817,-682 817,-662 626,-662"/>
<text text-anchor="start" x="660.5" y="-668.733" font-family="Times Roman,serif" font-size="14.00">[STRING] address (1)</text>
</a>
<a xlink:href="/help/idmefnav?idmef_class=Address" xlink:title="The type of address represented. &#160;The permitted values for this attribute are shown below. &#160;The default value is &quot;unknown&quot;. &#160;(See also Section 10.)">
<polygon fill="#00cc00" stroke="#00cc00" points="626,-642 626,-662 817,-662 817,-642 626,-642"/>
<polygon fill="none" stroke="black" points="626,-642 626,-662 817,-662 817,-642 626,-642"/>
<text text-anchor="start" x="641.5" y="-648.733" font-family="Times Roman,serif" font-size="14.00">[ENUM] category (Optional)</text>
</a>
<a xlink:href="/help/idmefnav?idmef_class=Address" xlink:title="The name of the Virtual LAN to which the address belongs.">
<polygon fill="#00cc00" stroke="#00cc00" points="626,-622 626,-642 817,-642 817,-622 626,-622"/>
<polygon fill="none" stroke="black" points="626,-622 626,-642 817,-642 817,-622 626,-622"/>
<text text-anchor="start" x="631.5" y="-628.733" font-family="Times Roman,serif" font-size="14.00">[STRING] vlan&#45;name (Optional)</text>
</a>
<a xlink:href="/help/idmefnav?idmef_class=Address" xlink:title="The number of the Virtual LAN to which the address belongs.">
<polygon fill="#00cc00" stroke="#00cc00" points="626,-602 626,-622 817,-622 817,-602 626,-602"/>
<polygon fill="none" stroke="black" points="626,-602 626,-622 817,-622 817,-602 626,-602"/>
<text text-anchor="start" x="629.5" y="-608.733" font-family="Times Roman,serif" font-size="14.00">[INTEGER] vlan&#45;num (Optional)</text>
</a>
<a xlink:href="/help/idmefnav?idmef_class=Address" xlink:title="A unique identifier for the address; see Section 3.2.9.">
<polygon fill="#00cc00" stroke="#00cc00" points="626,-582 626,-602 817,-602 817,-582 626,-582"/>
<polygon fill="none" stroke="black" points="626,-582 626,-602 817,-602 817,-582 626,-582"/>
<text text-anchor="start" x="647" y="-588.733" font-family="Times Roman,serif" font-size="14.00">[STRING] ident (Optional)</text>
</a>
</g>
<!-- Node -->
<g id="node2" class="node"><title>Node</title>
<a xlink:href="/help/idmefnav?idmef_class=Node" xlink:title="The Node class is used to identify hosts and other network devices (routers, switches, etc.). ">
<polygon fill="#007a00" stroke="#007a00" points="306,-682 306,-703 473,-703 473,-682 306,-682"/>
<polygon fill="none" stroke="black" points="306,-682 306,-703 473,-703 473,-682 306,-682"/>
<text text-anchor="start" x="374.5" y="-689.233" font-family="Times Roman,serif" font-size="14.00">Node</text>
</a>
<a xlink:href="/help/idmefnav?idmef_class=Node" xlink:title="The location of the equipment.">
<polygon fill="#00cc00" stroke="#00cc00" points="306,-662 306,-682 473,-682 473,-662 306,-662"/>
<polygon fill="none" stroke="black" points="306,-662 306,-682 473,-682 473,-662 306,-662"/>
<text text-anchor="start" x="320" y="-668.733" font-family="Times Roman,serif" font-size="14.00">[STRING] location (0..1)</text>
</a>
<a xlink:href="/help/idmefnav?idmef_class=Node" xlink:title="The name of the equipment. &#160;This information MUST be provided if no Address information is given.">
<polygon fill="#00cc00" stroke="#00cc00" points="306,-642 306,-662 473,-662 473,-642 306,-642"/>
<polygon fill="none" stroke="black" points="306,-642 306,-662 473,-662 473,-642 306,-642"/>
<text text-anchor="start" x="326.5" y="-648.733" font-family="Times Roman,serif" font-size="14.00">[STRING] name (0..1)</text>
</a>
<a xlink:href="/help/idmefnav?idmef_class=Node" xlink:title="The &quot;domain&quot; from which the name information was obtained, if relevant. &#160;The permitted values for this attribute are shown in the table below. &#160;The default value is &quot;unknown&quot;. (See also Section 10 for extensions to the table.)">
<polygon fill="#00cc00" stroke="#00cc00" points="306,-622 306,-642 473,-642 473,-622 306,-622"/>
<polygon fill="none" stroke="black" points="306,-622 306,-642 473,-642 473,-622 306,-622"/>
<text text-anchor="start" x="309.5" y="-628.733" font-family="Times Roman,serif" font-size="14.00">[ENUM] category (Optional)</text>
</a>
<a xlink:href="/help/idmefnav?idmef_class=Node" xlink:title="A unique identifier for the node; see Section 3.2.9.">
<polygon fill="#00cc00" stroke="#00cc00" points="306,-602 306,-622 473,-622 473,-602 306,-602"/>
<polygon fill="none" stroke="black" points="306,-602 306,-622 473,-622 473,-602 306,-602"/>
<text text-anchor="start" x="315" y="-608.733" font-family="Times Roman,serif" font-size="14.00">[STRING] ident (Optional)</text>
</a>
</g>
<!-- Node&#45;&#45;Address -->
<g id="edge2" class="edge"><title>Node&#45;&#45;Address</title>
<path fill="none" stroke="black" d="M480.599,-653C519.786,-653 565.946,-653 607.288,-653"/>
<polygon fill="black" stroke="black" points="607.409,-656.5 617.409,-653 607.409,-649.5 607.409,-656.5"/>
<text text-anchor="middle" x="557" y="-659.4" font-family="Times Roman,serif" font-size="14.00">0..*</text>
</g>
<!-- Source -->
<g id="node4" class="node"><title>Source</title>
<a xlink:href="/help/idmefnav?idmef_class=Source" xlink:title="The Source class contains information about the possible source(s) of the event(s) that generated an alert. &#160;An event may have more than one source (e.g., in a distributed denial&#45;of&#45;service attack). ">
<polygon fill="#182f5f" stroke="#182f5f" points="8,-484 8,-505 184,-505 184,-484 8,-484"/>
<polygon fill="none" stroke="black" points="8,-484 8,-505 184,-505 184,-484 8,-484"/>
<text text-anchor="start" x="77" y="-491.233" font-family="Times Roman,serif" font-size="14.00">Source</text>
</a>
<a xlink:href="/help/idmefnav?idmef_class=Source" xlink:title="May be used by a network&#45;based analyzer with multiple interfaces to indicate which interface this source was seen on.">
<polygon fill="#284f9f" stroke="#284f9f" points="8,-464 8,-484 184,-484 184,-464 8,-464"/>
<polygon fill="none" stroke="black" points="8,-464 8,-484 184,-484 184,-464 8,-464"/>
<text text-anchor="start" x="11.5" y="-470.733" font-family="Times Roman,serif" font-size="14.00">[STRING] interface (Optional)</text>
</a>
<a xlink:href="/help/idmefnav?idmef_class=Source" xlink:title="A unique identifier for this source; see Section 3.2.9.">
<polygon fill="#284f9f" stroke="#284f9f" points="8,-444 8,-464 184,-464 184,-444 8,-444"/>
<polygon fill="none" stroke="black" points="8,-444 8,-464 184,-464 184,-444 8,-444"/>
<text text-anchor="start" x="21.5" y="-450.733" font-family="Times Roman,serif" font-size="14.00">[STRING] ident (Optional)</text>
</a>
<a xlink:href="/help/idmefnav?idmef_class=Source" xlink:title="An indication of whether the source is, as far as the analyzer can determine, a spoofed address used for hiding the real origin of the attack. &#160;The permitted values for this attribute are shown below. &#160;The default value is &quot;unknown&quot;. &#160;(See also Section 10.)">
<polygon fill="#284f9f" stroke="#284f9f" points="8,-424 8,-444 184,-444 184,-424 8,-424"/>
<polygon fill="none" stroke="black" points="8,-424 8,-444 184,-444 184,-424 8,-424"/>
<text text-anchor="start" x="17.5" y="-430.733" font-family="Times Roman,serif" font-size="14.00">[ENUM] spoofed (Optional)</text>
</a>
</g>
<!-- Source&#45;&#45;Node -->
<g id="edge4" class="edge"><title>Source&#45;&#45;Node</title>
<path fill="none" stroke="black" d="M143.861,-509.225C173.106,-534.84 212.069,-566.552 250,-590 261.994,-597.414 275.008,-604.469 288.1,-610.992"/>
<polygon fill="black" stroke="black" points="286.643,-614.176 297.164,-615.421 289.716,-607.886 286.643,-614.176"/>
<text text-anchor="middle" x="221" y="-584.4" font-family="Times Roman,serif" font-size="14.00">0..1</text>
</g>
<!-- Process -->
<g id="node6" class="node"><title>Process</title>
<a xlink:href="/help/idmefnav?idmef_class=Process" xlink:title="The Process class is used to describe processes being executed on sources, targets, and analyzers. ">
<polygon fill="#997a3d" stroke="#997a3d" points="311,-556 311,-577 467,-577 467,-556 311,-556"/>
<polygon fill="none" stroke="black" points="311,-556 311,-577 467,-577 467,-556 311,-556"/>
<text text-anchor="start" x="368" y="-563.233" font-family="Times Roman,serif" font-size="14.00">Process</text>
</a>
<a xlink:href="/help/idmefnav?idmef_class=Process" xlink:title="The full path of the program being executed.">
<polygon fill="#ffcc66" stroke="#ffcc66" points="311,-536 311,-556 467,-556 467,-536 311,-536"/>
<polygon fill="none" stroke="black" points="311,-536 311,-556 467,-556 467,-536 311,-536"/>
<text text-anchor="start" x="329.5" y="-542.733" font-family="Times Roman,serif" font-size="14.00">[STRING] path (0..1)</text>
</a>
<a xlink:href="/help/idmefnav?idmef_class=Process" xlink:title="The process identifier of the process.">
<polygon fill="#ffcc66" stroke="#ffcc66" points="311,-516 311,-536 467,-536 467,-516 311,-516"/>
<polygon fill="none" stroke="black" points="311,-516 311,-536 467,-536 467,-516 311,-516"/>
<text text-anchor="start" x="328" y="-522.733" font-family="Times Roman,serif" font-size="14.00">[INTEGER] pid (0..1)</text>
</a>
<a xlink:href="/help/idmefnav?idmef_class=Process" xlink:title="The name of the program being executed. This is a short name; path and argument information are provided elsewhere.">
<polygon fill="#ffcc66" stroke="#ffcc66" points="311,-496 311,-516 467,-516 467,-496 311,-496"/>
<polygon fill="none" stroke="black" points="311,-496 311,-516 467,-516 467,-496 311,-496"/>
<text text-anchor="start" x="333" y="-502.733" font-family="Times Roman,serif" font-size="14.00">[STRING] name (1)</text>
</a>
<a xlink:href="/help/idmefnav?idmef_class=Process" xlink:title="An environment string associated with the process; generally of the format &quot;VARIABLE=value&quot;. &#160;Multiple environment strings may be specified with multiple uses of env.">
<polygon fill="#ffcc66" stroke="#ffcc66" points="311,-476 311,-496 467,-496 467,-476 311,-476"/>
<polygon fill="none" stroke="black" points="311,-476 311,-496 467,-496 467,-476 311,-476"/>
<text text-anchor="start" x="331.5" y="-482.733" font-family="Times Roman,serif" font-size="14.00">[STRING] env (0..*)</text>
</a>
<a xlink:href="/help/idmefnav?idmef_class=Process" xlink:title="A command&#45;line argument to the program. Multiple arguments may be specified (they are assumed to have occurred in the same order they are provided) with multiple uses of arg.">
<polygon fill="#ffcc66" stroke="#ffcc66" points="311,-456 311,-476 467,-476 467,-456 311,-456"/>
<polygon fill="none" stroke="black" points="311,-456 311,-476 467,-476 467,-456 311,-456"/>
<text text-anchor="start" x="332.5" y="-462.733" font-family="Times Roman,serif" font-size="14.00">[STRING] arg (0..*)</text>
</a>
<a xlink:href="/help/idmefnav?idmef_class=Process" xlink:title="A unique identifier for the process; see Section 3.2.9.">
<polygon fill="#ffcc66" stroke="#ffcc66" points="311,-436 311,-456 467,-456 467,-436 311,-436"/>
<polygon fill="none" stroke="black" points="311,-436 311,-456 467,-456 467,-436 311,-436"/>
<text text-anchor="start" x="314.5" y="-442.733" font-family="Times Roman,serif" font-size="14.00">[STRING] ident (Optional)</text>
</a>
</g>
<!-- Source&#45;&#45;Process -->
<g id="edge6" class="edge"><title>Source&#45;&#45;Process</title>
<path fill="none" stroke="black" d="M192.345,-478.811C224.692,-483.447 260.75,-488.616 293.066,-493.248"/>
<polygon fill="black" stroke="black" points="292.571,-496.713 302.967,-494.668 293.565,-489.784 292.571,-496.713"/>
<text text-anchor="middle" x="221" y="-489.4" font-family="Times Roman,serif" font-size="14.00">0..1</text>
</g>
<!-- User -->
<g id="node9" class="node"><title>User</title>
<a xlink:href="/help/idmefnav?idmef_class=User" xlink:title="The User class is used to describe users. &#160;It is primarily used as a &quot;container&quot; class for the UserId aggregate class, as shown in Figure 16. ">
<polygon fill="#3d7a99" stroke="#3d7a99" points="306,-390 306,-411 473,-411 473,-390 306,-390"/>
<polygon fill="none" stroke="black" points="306,-390 306,-411 473,-411 473,-390 306,-390"/>
<text text-anchor="start" x="376.5" y="-397.233" font-family="Times Roman,serif" font-size="14.00">User</text>
</a>
<a xlink:href="/help/idmefnav?idmef_class=User" xlink:title="The type of user represented. &#160;The permitted values for this attribute are shown below. &#160;The default value is &quot;unknown&quot;. (See also Section 10.)">
<polygon fill="#66ccff" stroke="#66ccff" points="306,-370 306,-390 473,-390 473,-370 306,-370"/>
<polygon fill="none" stroke="black" points="306,-370 306,-390 473,-390 473,-370 306,-370"/>
<text text-anchor="start" x="309.5" y="-376.733" font-family="Times Roman,serif" font-size="14.00">[ENUM] category (Optional)</text>
</a>
<a xlink:href="/help/idmefnav?idmef_class=User" xlink:title="A unique identifier for the user; see Section 3.2.9.">
<polygon fill="#66ccff" stroke="#66ccff" points="306,-350 306,-370 473,-370 473,-350 306,-350"/>
<polygon fill="none" stroke="black" points="306,-350 306,-370 473,-370 473,-350 306,-350"/>
<text text-anchor="start" x="315" y="-356.733" font-family="Times Roman,serif" font-size="14.00">[STRING] ident (Optional)</text>
</a>
</g>
<!-- Source&#45;&#45;User -->
<g id="edge10" class="edge"><title>Source&#45;&#45;User</title>
<path fill="none" stroke="black" d="M192.345,-437.379C222.747,-428.663 256.426,-419.007 287.196,-410.186"/>
<polygon fill="black" stroke="black" points="288.428,-413.474 297.076,-407.353 286.499,-406.745 288.428,-413.474"/>
<text text-anchor="middle" x="221" y="-436.4" font-family="Times Roman,serif" font-size="14.00">0..1</text>
</g>
<!-- Service -->
<g id="node13" class="node"><title>Service</title>
<a xlink:href="/help/idmefnav?idmef_class=Service" xlink:title="The Service class describes network services on sources and targets. It can identify services by name, port, and protocol. &#160;When Service occurs as an aggregate class of Source, it is understood that the service is one from which activity of interest is originating; and that the service is &quot;attached&quot; to the Node, Process, and User information also contained in Source. &#160;Likewise, when Service occurs as an aggregate class of Target, it is understood that the service is one to which activity of interest is being directed; and that the service is &quot;attached&quot; to the Node, Process, and User information also contained in Target. &#160;If Service occurs in both Source and Target, then information in both locations should be the same. &#160;If information is the same in both locations and implementers wish to carry it in only one location, they should specify it as an aggregate of the Target class. ">
<polygon fill="#997a7a" stroke="#997a7a" points="259,-289 259,-310 520,-310 520,-289 259,-289"/>
<polygon fill="none" stroke="black" points="259,-289 259,-310 520,-310 520,-289 259,-289"/>
<text text-anchor="start" x="369" y="-296.233" font-family="Times Roman,serif" font-size="14.00">Service</text>
</a>
<a xlink:href="/help/idmefnav?idmef_class=Service" xlink:title="A list of port numbers being used; see Section 3.2.8 for formatting rules. &#160;If a portlist is given, the iana_protocol_number and iana_protocol_name MUST apply to all the elements of the list.">
<polygon fill="#ffcccc" stroke="#ffcccc" points="259,-269 259,-289 520,-289 520,-269 259,-269"/>
<polygon fill="none" stroke="black" points="259,-269 259,-289 520,-289 520,-269 259,-269"/>
<text text-anchor="start" x="315.5" y="-275.733" font-family="Times Roman,serif" font-size="14.00">[PORTLIST] portlist (0..1)</text>
</a>
<a xlink:href="/help/idmefnav?idmef_class=Service" xlink:title="Additional information about the protocol being used. &#160;The intent of the protocol field is to carry additional information related to the protocol being used when the &lt;Service&gt; attributes iana_protocol_number or/and iana_protocol_name are filed.">
<polygon fill="#ffcccc" stroke="#ffcccc" points="259,-249 259,-269 520,-269 520,-249 259,-249"/>
<polygon fill="none" stroke="black" points="259,-249 259,-269 520,-269 520,-249 259,-249"/>
<text text-anchor="start" x="319" y="-255.733" font-family="Times Roman,serif" font-size="14.00">[STRING] protocol (0..1)</text>
</a>
<a xlink:href="/help/idmefnav?idmef_class=Service" xlink:title="The name of the service. &#160;Whenever possible, the name from the IANA list of well&#45;known ports SHOULD be used.">
<polygon fill="#ffcccc" stroke="#ffcccc" points="259,-229 259,-249 520,-249 520,-229 259,-229"/>
<polygon fill="none" stroke="black" points="259,-229 259,-249 520,-249 520,-229 259,-229"/>
<text text-anchor="start" x="326.5" y="-235.733" font-family="Times Roman,serif" font-size="14.00">[STRING] name (0..1)</text>
</a>
<a xlink:href="/help/idmefnav?idmef_class=Service" xlink:title="The port number being used.">
<polygon fill="#ffcccc" stroke="#ffcccc" points="259,-209 259,-229 520,-229 520,-209 259,-209"/>
<polygon fill="none" stroke="black" points="259,-209 259,-229 520,-229 520,-209 259,-209"/>
<text text-anchor="start" x="326" y="-215.733" font-family="Times Roman,serif" font-size="14.00">[INTEGER] port (0..1)</text>
</a>
<a xlink:href="/help/idmefnav?idmef_class=Service" xlink:title="The IP version number.">
<polygon fill="#ffcccc" stroke="#ffcccc" points="259,-189 259,-209 520,-209 520,-189 259,-189"/>
<polygon fill="none" stroke="black" points="259,-189 259,-209 520,-209 520,-189 259,-189"/>
<text text-anchor="start" x="295.5" y="-195.733" font-family="Times Roman,serif" font-size="14.00">[INTEGER] ip_version (Optional)</text>
</a>
<a xlink:href="/help/idmefnav?idmef_class=Service" xlink:title="The IANA protocol name.">
<polygon fill="#ffcccc" stroke="#ffcccc" points="259,-169 259,-189 520,-189 520,-169 259,-169"/>
<polygon fill="none" stroke="black" points="259,-169 259,-189 520,-189 520,-169 259,-169"/>
<text text-anchor="start" x="273" y="-175.733" font-family="Times Roman,serif" font-size="14.00">[STRING] iana_protocol_name (Optional)</text>
</a>
<a xlink:href="/help/idmefnav?idmef_class=Service" xlink:title="A unique identifier for the service; see Section 3.2.9.">
<polygon fill="#ffcccc" stroke="#ffcccc" points="259,-149 259,-169 520,-169 520,-149 259,-149"/>
<polygon fill="none" stroke="black" points="259,-149 259,-169 520,-169 520,-149 259,-149"/>
<text text-anchor="start" x="315" y="-155.733" font-family="Times Roman,serif" font-size="14.00">[STRING] ident (Optional)</text>
</a>
<a xlink:href="/help/idmefnav?idmef_class=Service" xlink:title="The IANA protocol number.">
<polygon fill="#ffcccc" stroke="#ffcccc" points="259,-129 259,-149 520,-149 520,-129 259,-129"/>
<polygon fill="none" stroke="black" points="259,-129 259,-149 520,-149 520,-129 259,-129"/>
<text text-anchor="start" x="262.5" y="-135.733" font-family="Times Roman,serif" font-size="14.00">[INTEGER] iana_protocol_number (Optional)</text>
</a>
</g>
<!-- Source&#45;&#45;Service -->
<g id="edge16" class="edge"><title>Source&#45;&#45;Service</title>
<path fill="none" stroke="black" d="M148.721,-420.916C182.146,-392.967 226.807,-355.622 268.552,-320.716"/>
<polygon fill="black" stroke="black" points="270.884,-323.329 276.31,-314.229 266.393,-317.959 270.884,-323.329"/>
<text text-anchor="middle" x="221" y="-370.4" font-family="Times Roman,serif" font-size="14.00">0..1</text>
</g>
<!-- UserId -->
<g id="node8" class="node"><title>UserId</title>
<a xlink:href="/help/idmefnav?idmef_class=UserId" xlink:title="The UserId class provides specific information about a user. &#160;More than one UserId can be used within the User class to indicate attempts to transition from one user to another, or to provide complete information about a user&#39;s (or process&#39;) privileges. ">
<polygon fill="#3d7a99" stroke="#3d7a99" points="643,-435 643,-456 799,-456 799,-435 643,-435"/>
<polygon fill="none" stroke="black" points="643,-435 643,-456 799,-456 799,-435 643,-435"/>
<text text-anchor="start" x="702.5" y="-442.233" font-family="Times Roman,serif" font-size="14.00">UserId</text>
</a>
<a xlink:href="/help/idmefnav?idmef_class=UserId" xlink:title="A user or group name.">
<polygon fill="#66ccff" stroke="#66ccff" points="643,-415 643,-435 799,-435 799,-415 643,-415"/>
<polygon fill="none" stroke="black" points="643,-415 643,-435 799,-435 799,-415 643,-415"/>
<text text-anchor="start" x="658" y="-421.733" font-family="Times Roman,serif" font-size="14.00">[STRING] name (0..1)</text>
</a>
<a xlink:href="/help/idmefnav?idmef_class=UserId" xlink:title="A user or group number.">
<polygon fill="#66ccff" stroke="#66ccff" points="643,-395 643,-415 799,-415 799,-395 643,-395"/>
<polygon fill="none" stroke="black" points="643,-395 643,-415 799,-415 799,-395 643,-395"/>
<text text-anchor="start" x="647.5" y="-401.733" font-family="Times Roman,serif" font-size="14.00">[INTEGER] number (0..1)</text>
</a>
<a xlink:href="/help/idmefnav?idmef_class=UserId" xlink:title="The tty the user is using.">
<polygon fill="#66ccff" stroke="#66ccff" points="643,-375 643,-395 799,-395 799,-375 643,-375"/>
<polygon fill="none" stroke="black" points="643,-375 643,-395 799,-395 799,-375 643,-375"/>
<text text-anchor="start" x="653" y="-381.733" font-family="Times Roman,serif" font-size="14.00">[STRING] tty (Optional)</text>
</a>
<a xlink:href="/help/idmefnav?idmef_class=UserId" xlink:title="A unique identifier for the user id, see Section 3.2.9.">
<polygon fill="#66ccff" stroke="#66ccff" points="643,-355 643,-375 799,-375 799,-355 643,-355"/>
<polygon fill="none" stroke="black" points="643,-355 643,-375 799,-375 799,-355 643,-355"/>
<text text-anchor="start" x="646.5" y="-361.733" font-family="Times Roman,serif" font-size="14.00">[STRING] ident (Optional)</text>
</a>
<a xlink:href="/help/idmefnav?idmef_class=UserId" xlink:title="The type of user information represented. &#160;The permitted values for this attribute are shown below. &#160;The default value is &quot;original&#45;user&quot;. &#160;(See also Section 10.)">
<polygon fill="#66ccff" stroke="#66ccff" points="643,-335 643,-355 799,-355 799,-335 643,-335"/>
<polygon fill="none" stroke="black" points="643,-335 643,-355 799,-355 799,-335 643,-335"/>
<text text-anchor="start" x="652.5" y="-341.733" font-family="Times Roman,serif" font-size="14.00">[ENUM] type (Optional)</text>
</a>
</g>
<!-- User&#45;&#45;UserId -->
<g id="edge8" class="edge"><title>User&#45;&#45;UserId</title>
<path fill="none" stroke="black" d="M480.599,-385.139C525.387,-387.162 579.286,-389.597 624.688,-391.649"/>
<polygon fill="black" stroke="black" points="624.687,-395.152 634.835,-392.107 625.003,-388.159 624.687,-395.152"/>
<text text-anchor="middle" x="557" y="-394.4" font-family="Times Roman,serif" font-size="14.00">1..*</text>
</g>
<!-- SNMPService -->
<g id="node12" class="node"><title>SNMPService</title>
<a xlink:href="/help/idmefnav?idmef_class=SNMPService" xlink:title="The SNMPService class carries additional information related to SNMP traffic. &#160;The aggregate classes composing SNMPService must be interpreted as described in RFC 3411 [15] and RFC 3584 [16]. ">
<polygon fill="#997a7a" stroke="#997a7a" points="595,-289 595,-310 848,-310 848,-289 595,-289"/>
<polygon fill="none" stroke="black" points="595,-289 595,-310 848,-310 848,-289 595,-289"/>
<text text-anchor="start" x="682" y="-296.233" font-family="Times Roman,serif" font-size="14.00">SNMPService</text>
</a>
<a xlink:href="/help/idmefnav?idmef_class=SNMPService" xlink:title="The security level of the SNMP request; see RFC 3411 [15] Section 3.4.3.">
<polygon fill="#ffcccc" stroke="#ffcccc" points="595,-269 595,-289 848,-289 848,-269 595,-269"/>
<polygon fill="none" stroke="black" points="595,-269 595,-289 848,-289 848,-269 595,-269"/>
<text text-anchor="start" x="632.5" y="-275.733" font-family="Times Roman,serif" font-size="14.00">[INTEGER] securityLevel (0..1)</text>
</a>
<a xlink:href="/help/idmefnav?idmef_class=SNMPService" xlink:title="The object&#39;s context name; see RFC 3411 [15] Section 3.3.3.">
<polygon fill="#ffcccc" stroke="#ffcccc" points="595,-249 595,-269 848,-269 848,-249 595,-249"/>
<polygon fill="none" stroke="black" points="595,-249 595,-269 848,-269 848,-249 595,-249"/>
<text text-anchor="start" x="637" y="-255.733" font-family="Times Roman,serif" font-size="14.00">[STRING] contextName (0..1)</text>
</a>
<a xlink:href="/help/idmefnav?idmef_class=SNMPService" xlink:title="The object&#39;s context engine identifier; see RFC 3411 [15] Section 3.3.2.">
<polygon fill="#ffcccc" stroke="#ffcccc" points="595,-229 595,-249 848,-249 848,-229 595,-229"/>
<polygon fill="none" stroke="black" points="595,-229 595,-249 848,-249 848,-229 595,-229"/>
<text text-anchor="start" x="627.5" y="-235.733" font-family="Times Roman,serif" font-size="14.00">[STRING] contextEngineID (0..1)</text>
</a>
<a xlink:href="/help/idmefnav?idmef_class=SNMPService" xlink:title="The object identifier in the request.">
<polygon fill="#ffcccc" stroke="#ffcccc" points="595,-209 595,-229 848,-229 848,-209 595,-209"/>
<polygon fill="none" stroke="black" points="595,-209 595,-229 848,-229 848,-209 595,-209"/>
<text text-anchor="start" x="665" y="-215.733" font-family="Times Roman,serif" font-size="14.00">[STRING] oid (0..1)</text>
</a>
<a xlink:href="/help/idmefnav?idmef_class=SNMPService" xlink:title="The SNMP version, typically 0 for SNMPv1, 1 for SNMPv2c, 2 for SNMPv2u and SNMPv2*, and 3 for SNMPv3; see RFC 3411 [15] Section 5 for appropriate values.">
<polygon fill="#ffcccc" stroke="#ffcccc" points="595,-189 595,-209 848,-209 848,-189 595,-189"/>
<polygon fill="none" stroke="black" points="595,-189 595,-209 848,-209 848,-189 595,-189"/>
<text text-anchor="start" x="598.5" y="-195.733" font-family="Times Roman,serif" font-size="14.00">[INTEGER] messageProcessingModel (0..1)</text>
</a>
<a xlink:href="/help/idmefnav?idmef_class=SNMPService" xlink:title="The command sent to the SNMP server (GET, SET, etc.).">
<polygon fill="#ffcccc" stroke="#ffcccc" points="595,-169 595,-189 848,-189 848,-169 595,-169"/>
<polygon fill="none" stroke="black" points="595,-169 595,-189 848,-189 848,-169 595,-169"/>
<text text-anchor="start" x="646" y="-175.733" font-family="Times Roman,serif" font-size="14.00">[STRING] command (0..1)</text>
</a>
<a xlink:href="/help/idmefnav?idmef_class=SNMPService" xlink:title="The object&#39;s security name; see RFC 3411 [15] Section 3.2.2.">
<polygon fill="#ffcccc" stroke="#ffcccc" points="595,-149 595,-169 848,-169 848,-149 595,-149"/>
<polygon fill="none" stroke="black" points="595,-149 595,-169 848,-169 848,-149 595,-149"/>
<text text-anchor="start" x="635.5" y="-155.733" font-family="Times Roman,serif" font-size="14.00">[STRING] securityName (0..1)</text>
</a>
<a xlink:href="/help/idmefnav?idmef_class=SNMPService" xlink:title="The identification of the security model in use, typically 0 for any, 1 for SNMPv1, 2 for SNMPv2c, and 3 for USM; see RFC 3411 [15] Section 5 for appropriate values.">
<polygon fill="#ffcccc" stroke="#ffcccc" points="595,-129 595,-149 848,-149 848,-129 595,-129"/>
<polygon fill="none" stroke="black" points="595,-129 595,-149 848,-149 848,-129 595,-129"/>
<text text-anchor="start" x="629.5" y="-135.733" font-family="Times Roman,serif" font-size="14.00">[INTEGER] securityModel (0..1)</text>
</a>
</g>
<!-- Service&#45;&#45;SNMPService -->
<g id="edge12" class="edge"><title>Service&#45;&#45;SNMPService</title>
<path fill="none" stroke="black" d="M537.9,-220C554.057,-220 570.432,-220 586.404,-220"/>
<polygon fill="none" stroke="black" points="527.874,-216.5 537.874,-220 527.874,-223.5 527.874,-216.5"/>
</g>
<!-- WebService -->
<g id="node15" class="node"><title>WebService</title>
<a xlink:href="/help/idmefnav?idmef_class=WebService" xlink:title="The WebService class carries additional information related to web traffic. ">
<polygon fill="#997a7a" stroke="#997a7a" points="636,-83 636,-104 806,-104 806,-83 636,-83"/>
<polygon fill="none" stroke="black" points="636,-83 636,-104 806,-104 806,-83 636,-83"/>
<text text-anchor="start" x="687.5" y="-90.2333" font-family="Times Roman,serif" font-size="14.00">WebService</text>
</a>
<a xlink:href="/help/idmefnav?idmef_class=WebService" xlink:title="The URL in the request.">
<polygon fill="#ffcccc" stroke="#ffcccc" points="636,-63 636,-83 806,-83 806,-63 636,-63"/>
<polygon fill="none" stroke="black" points="636,-63 636,-83 806,-83 806,-63 636,-63"/>
<text text-anchor="start" x="672.5" y="-69.7333" font-family="Times Roman,serif" font-size="14.00">[STRING] url (1)</text>
</a>
<a xlink:href="/help/idmefnav?idmef_class=WebService" xlink:title="The CGI script in the request, without arguments.">
<polygon fill="#ffcccc" stroke="#ffcccc" points="636,-43 636,-63 806,-63 806,-43 636,-43"/>
<polygon fill="none" stroke="black" points="636,-43 636,-63 806,-63 806,-43 636,-43"/>
<text text-anchor="start" x="665" y="-49.7333" font-family="Times Roman,serif" font-size="14.00">[STRING] cgi (0..1)</text>
</a>
<a xlink:href="/help/idmefnav?idmef_class=WebService" xlink:title="The HTTP method (PUT, GET) used in the request.">
<polygon fill="#ffcccc" stroke="#ffcccc" points="636,-23 636,-43 806,-43 806,-23 636,-23"/>
<polygon fill="none" stroke="black" points="636,-23 636,-43 806,-43 806,-23 636,-23"/>
<text text-anchor="start" x="639.5" y="-29.7333" font-family="Times Roman,serif" font-size="14.00">[STRING] http&#45;method (0..1)</text>
</a>
<a xlink:href="/help/idmefnav?idmef_class=WebService" xlink:title="The arguments to the CGI script.">
<polygon fill="#ffcccc" stroke="#ffcccc" points="636,-3 636,-23 806,-23 806,-3 636,-3"/>
<polygon fill="none" stroke="black" points="636,-3 636,-23 806,-23 806,-3 636,-3"/>
<text text-anchor="start" x="664.5" y="-9.73333" font-family="Times Roman,serif" font-size="14.00">[STRING] arg (0..*)</text>
</a>
</g>
<!-- Service&#45;&#45;WebService -->
<g id="edge14" class="edge"><title>Service&#45;&#45;WebService</title>
<path fill="none" stroke="black" d="M536.868,-141.774C553.389,-133.306 570.018,-124.902 586,-117 599.447,-110.351 613.731,-103.481 627.781,-96.8317"/>
<polygon fill="none" stroke="black" points="526.105,-143.369 536.599,-141.912 529.304,-149.595 526.105,-143.369"/>
</g>
</g>
</svg>
