<?xml version="1.0" encoding="UTF-8" standalone="no"?>
<!DOCTYPE svg PUBLIC "-//W3C//DTD SVG 1.1//EN"
 "http://www.w3.org/Graphics/SVG/1.1/DTD/svg11.dtd">
<!-- Generated by graphviz version 2.26.0 (20091210.2329)
 -->
<!-- Title: _anonymous_0 Pages: 1 -->
<svg width="1242pt" height="991pt"
 viewBox="0.00 0.00 1242.00 991.00" xmlns="http://www.w3.org/2000/svg" xmlns:xlink="http://www.w3.org/1999/xlink">
<g id="graph1" class="graph" transform="scale(1 1) rotate(0) translate(4 987)">
<title>_anonymous_0</title>
<polygon fill="white" stroke="white" points="-4,5 -4,-987 1239,-987 1239,5 -4,5"/>
<!-- Address -->
<g id="node1" class="node"><title>Address</title>
<a xlink:href="/help/idmefnav?idmef_class=Address" xlink:title="The Address class is used to represent network, hardware, and application addresses. ">
<polygon fill="#007a00" stroke="#007a00" points="788,-958 788,-979 979,-979 979,-958 788,-958"/>
<polygon fill="none" stroke="black" points="788,-958 788,-979 979,-979 979,-958 788,-958"/>
<text text-anchor="start" x="861" y="-965.233" font-family="Times Roman,serif" font-size="14.00">Address</text>
</a>
<a xlink:href="/help/idmefnav?idmef_class=Address" xlink:title="The network mask for the address, if appropriate.">
<polygon fill="#00cc00" stroke="#00cc00" points="788,-938 788,-958 979,-958 979,-938 788,-938"/>
<polygon fill="none" stroke="black" points="788,-938 788,-958 979,-958 979,-938 788,-938"/>
<text text-anchor="start" x="812.5" y="-944.733" font-family="Times Roman,serif" font-size="14.00">[STRING] netmask (0..1)</text>
</a>
<a xlink:href="/help/idmefnav?idmef_class=Address" xlink:title="The address information. &#160;The format of this data is governed by the category attribute.">
<polygon fill="#00cc00" stroke="#00cc00" points="788,-918 788,-938 979,-938 979,-918 788,-918"/>
<polygon fill="none" stroke="black" points="788,-918 788,-938 979,-938 979,-918 788,-918"/>
<text text-anchor="start" x="822.5" y="-924.733" font-family="Times Roman,serif" font-size="14.00">[STRING] address (1)</text>
</a>
<a xlink:href="/help/idmefnav?idmef_class=Address" xlink:title="The type of address represented. &#160;The permitted values for this attribute are shown below. &#160;The default value is &quot;unknown&quot;. &#160;(See also Section 10.)">
<polygon fill="#00cc00" stroke="#00cc00" points="788,-898 788,-918 979,-918 979,-898 788,-898"/>
<polygon fill="none" stroke="black" points="788,-898 788,-918 979,-918 979,-898 788,-898"/>
<text text-anchor="start" x="803.5" y="-904.733" font-family="Times Roman,serif" font-size="14.00">[ENUM] category (Optional)</text>
</a>
<a xlink:href="/help/idmefnav?idmef_class=Address" xlink:title="The name of the Virtual LAN to which the address belongs.">
<polygon fill="#00cc00" stroke="#00cc00" points="788,-878 788,-898 979,-898 979,-878 788,-878"/>
<polygon fill="none" stroke="black" points="788,-878 788,-898 979,-898 979,-878 788,-878"/>
<text text-anchor="start" x="793.5" y="-884.733" font-family="Times Roman,serif" font-size="14.00">[STRING] vlan&#45;name (Optional)</text>
</a>
<a xlink:href="/help/idmefnav?idmef_class=Address" xlink:title="The number of the Virtual LAN to which the address belongs.">
<polygon fill="#00cc00" stroke="#00cc00" points="788,-858 788,-878 979,-878 979,-858 788,-858"/>
<polygon fill="none" stroke="black" points="788,-858 788,-878 979,-878 979,-858 788,-858"/>
<text text-anchor="start" x="791.5" y="-864.733" font-family="Times Roman,serif" font-size="14.00">[INTEGER] vlan&#45;num (Optional)</text>
</a>
<a xlink:href="/help/idmefnav?idmef_class=Address" xlink:title="A unique identifier for the address; see Section 3.2.9.">
<polygon fill="#00cc00" stroke="#00cc00" points="788,-838 788,-858 979,-858 979,-838 788,-838"/>
<polygon fill="none" stroke="black" points="788,-838 788,-858 979,-858 979,-838 788,-838"/>
<text text-anchor="start" x="809" y="-844.733" font-family="Times Roman,serif" font-size="14.00">[STRING] ident (Optional)</text>
</a>
</g>
<!-- Node -->
<g id="node2" class="node"><title>Node</title>
<a xlink:href="/help/idmefnav?idmef_class=Node" xlink:title="The Node class is used to identify hosts and other network devices (routers, switches, etc.). ">
<polygon fill="#007a00" stroke="#007a00" points="306,-938 306,-959 473,-959 473,-938 306,-938"/>
<polygon fill="none" stroke="black" points="306,-938 306,-959 473,-959 473,-938 306,-938"/>
<text text-anchor="start" x="374.5" y="-945.233" font-family="Times Roman,serif" font-size="14.00">Node</text>
</a>
<a xlink:href="/help/idmefnav?idmef_class=Node" xlink:title="The location of the equipment.">
<polygon fill="#00cc00" stroke="#00cc00" points="306,-918 306,-938 473,-938 473,-918 306,-918"/>
<polygon fill="none" stroke="black" points="306,-918 306,-938 473,-938 473,-918 306,-918"/>
<text text-anchor="start" x="320" y="-924.733" font-family="Times Roman,serif" font-size="14.00">[STRING] location (0..1)</text>
</a>
<a xlink:href="/help/idmefnav?idmef_class=Node" xlink:title="The name of the equipment. &#160;This information MUST be provided if no Address information is given.">
<polygon fill="#00cc00" stroke="#00cc00" points="306,-898 306,-918 473,-918 473,-898 306,-898"/>
<polygon fill="none" stroke="black" points="306,-898 306,-918 473,-918 473,-898 306,-898"/>
<text text-anchor="start" x="326.5" y="-904.733" font-family="Times Roman,serif" font-size="14.00">[STRING] name (0..1)</text>
</a>
<a xlink:href="/help/idmefnav?idmef_class=Node" xlink:title="The &quot;domain&quot; from which the name information was obtained, if relevant. &#160;The permitted values for this attribute are shown in the table below. &#160;The default value is &quot;unknown&quot;. (See also Section 10 for extensions to the table.)">
<polygon fill="#00cc00" stroke="#00cc00" points="306,-878 306,-898 473,-898 473,-878 306,-878"/>
<polygon fill="none" stroke="black" points="306,-878 306,-898 473,-898 473,-878 306,-878"/>
<text text-anchor="start" x="309.5" y="-884.733" font-family="Times Roman,serif" font-size="14.00">[ENUM] category (Optional)</text>
</a>
<a xlink:href="/help/idmefnav?idmef_class=Node" xlink:title="A unique identifier for the node; see Section 3.2.9.">
<polygon fill="#00cc00" stroke="#00cc00" points="306,-858 306,-878 473,-878 473,-858 306,-858"/>
<polygon fill="none" stroke="black" points="306,-858 306,-878 473,-878 473,-858 306,-858"/>
<text text-anchor="start" x="315" y="-864.733" font-family="Times Roman,serif" font-size="14.00">[STRING] ident (Optional)</text>
</a>
</g>
<!-- Node&#45;&#45;Address -->
<g id="edge2" class="edge"><title>Node&#45;&#45;Address</title>
<path fill="none" stroke="black" d="M480.76,-909C562.219,-909 681.561,-909 769.1,-909"/>
<polygon fill="black" stroke="black" points="769.344,-912.5 779.344,-909 769.344,-905.5 769.344,-912.5"/>
<text text-anchor="middle" x="638" y="-915.4" font-family="Times Roman,serif" font-size="14.00">0..*</text>
</g>
<!-- Target -->
<g id="node4" class="node"><title>Target</title>
<a xlink:href="/help/idmefnav?idmef_class=Target" xlink:title="The Target class contains information about the possible target(s) of the event(s) that generated an alert. &#160;An event may have more than one target (e.g., in the case of a port sweep). ">
<polygon fill="#182f5f" stroke="#182f5f" points="8,-596 8,-617 184,-617 184,-596 8,-596"/>
<polygon fill="none" stroke="black" points="8,-596 8,-617 184,-617 184,-596 8,-596"/>
<text text-anchor="start" x="78" y="-603.233" font-family="Times Roman,serif" font-size="14.00">Target</text>
</a>
<a xlink:href="/help/idmefnav?idmef_class=Target" xlink:title="May be used by a network&#45;based analyzer with multiple interfaces to indicate which interface this target was seen on.">
<polygon fill="#284f9f" stroke="#284f9f" points="8,-576 8,-596 184,-596 184,-576 8,-576"/>
<polygon fill="none" stroke="black" points="8,-576 8,-596 184,-596 184,-576 8,-576"/>
<text text-anchor="start" x="11.5" y="-582.733" font-family="Times Roman,serif" font-size="14.00">[STRING] interface (Optional)</text>
</a>
<a xlink:href="/help/idmefnav?idmef_class=Target" xlink:title="An indication of whether the target is, as far as the analyzer can determine, a decoy. &#160;The permitted values for this attribute are shown below. &#160;The default value is &quot;unknown&quot;. &#160;(See also Section 10.)">
<polygon fill="#284f9f" stroke="#284f9f" points="8,-556 8,-576 184,-576 184,-556 8,-556"/>
<polygon fill="none" stroke="black" points="8,-556 8,-576 184,-576 184,-556 8,-556"/>
<text text-anchor="start" x="23" y="-562.733" font-family="Times Roman,serif" font-size="14.00">[ENUM] decoy (Optional)</text>
</a>
<a xlink:href="/help/idmefnav?idmef_class=Target" xlink:title="A unique identifier for this target, see Section 3.2.9.">
<polygon fill="#284f9f" stroke="#284f9f" points="8,-536 8,-556 184,-556 184,-536 8,-536"/>
<polygon fill="none" stroke="black" points="8,-536 8,-556 184,-556 184,-536 8,-536"/>
<text text-anchor="start" x="21.5" y="-542.733" font-family="Times Roman,serif" font-size="14.00">[STRING] ident (Optional)</text>
</a>
</g>
<!-- Target&#45;&#45;Node -->
<g id="edge4" class="edge"><title>Target&#45;&#45;Node</title>
<path fill="none" stroke="black" d="M111.384,-621.215C133.69,-679.607 180.143,-782.445 250,-846 261.253,-856.238 274.452,-865.053 288.157,-872.568"/>
<polygon fill="black" stroke="black" points="286.739,-875.777 297.22,-877.321 289.989,-869.577 286.739,-875.777"/>
<text text-anchor="middle" x="221" y="-828.4" font-family="Times Roman,serif" font-size="14.00">0..1</text>
</g>
<!-- Process -->
<g id="node6" class="node"><title>Process</title>
<a xlink:href="/help/idmefnav?idmef_class=Process" xlink:title="The Process class is used to describe processes being executed on sources, targets, and analyzers. ">
<polygon fill="#997a3d" stroke="#997a3d" points="311,-812 311,-833 467,-833 467,-812 311,-812"/>
<polygon fill="none" stroke="black" points="311,-812 311,-833 467,-833 467,-812 311,-812"/>
<text text-anchor="start" x="368" y="-819.233" font-family="Times Roman,serif" font-size="14.00">Process</text>
</a>
<a xlink:href="/help/idmefnav?idmef_class=Process" xlink:title="The full path of the program being executed.">
<polygon fill="#ffcc66" stroke="#ffcc66" points="311,-792 311,-812 467,-812 467,-792 311,-792"/>
<polygon fill="none" stroke="black" points="311,-792 311,-812 467,-812 467,-792 311,-792"/>
<text text-anchor="start" x="329.5" y="-798.733" font-family="Times Roman,serif" font-size="14.00">[STRING] path (0..1)</text>
</a>
<a xlink:href="/help/idmefnav?idmef_class=Process" xlink:title="The process identifier of the process.">
<polygon fill="#ffcc66" stroke="#ffcc66" points="311,-772 311,-792 467,-792 467,-772 311,-772"/>
<polygon fill="none" stroke="black" points="311,-772 311,-792 467,-792 467,-772 311,-772"/>
<text text-anchor="start" x="328" y="-778.733" font-family="Times Roman,serif" font-size="14.00">[INTEGER] pid (0..1)</text>
</a>
<a xlink:href="/help/idmefnav?idmef_class=Process" xlink:title="The name of the program being executed. This is a short name; path and argument information are provided elsewhere.">
<polygon fill="#ffcc66" stroke="#ffcc66" points="311,-752 311,-772 467,-772 467,-752 311,-752"/>
<polygon fill="none" stroke="black" points="311,-752 311,-772 467,-772 467,-752 311,-752"/>
<text text-anchor="start" x="333" y="-758.733" font-family="Times Roman,serif" font-size="14.00">[STRING] name (1)</text>
</a>
<a xlink:href="/help/idmefnav?idmef_class=Process" xlink:title="An environment string associated with the process; generally of the format &quot;VARIABLE=value&quot;. &#160;Multiple environment strings may be specified with multiple uses of env.">
<polygon fill="#ffcc66" stroke="#ffcc66" points="311,-732 311,-752 467,-752 467,-732 311,-732"/>
<polygon fill="none" stroke="black" points="311,-732 311,-752 467,-752 467,-732 311,-732"/>
<text text-anchor="start" x="331.5" y="-738.733" font-family="Times Roman,serif" font-size="14.00">[STRING] env (0..*)</text>
</a>
<a xlink:href="/help/idmefnav?idmef_class=Process" xlink:title="A command&#45;line argument to the program. Multiple arguments may be specified (they are assumed to have occurred in the same order they are provided) with multiple uses of arg.">
<polygon fill="#ffcc66" stroke="#ffcc66" points="311,-712 311,-732 467,-732 467,-712 311,-712"/>
<polygon fill="none" stroke="black" points="311,-712 311,-732 467,-732 467,-712 311,-712"/>
<text text-anchor="start" x="332.5" y="-718.733" font-family="Times Roman,serif" font-size="14.00">[STRING] arg (0..*)</text>
</a>
<a xlink:href="/help/idmefnav?idmef_class=Process" xlink:title="A unique identifier for the process; see Section 3.2.9.">
<polygon fill="#ffcc66" stroke="#ffcc66" points="311,-692 311,-712 467,-712 467,-692 311,-692"/>
<polygon fill="none" stroke="black" points="311,-692 311,-712 467,-712 467,-692 311,-692"/>
<text text-anchor="start" x="314.5" y="-698.733" font-family="Times Roman,serif" font-size="14.00">[STRING] ident (Optional)</text>
</a>
</g>
<!-- Target&#45;&#45;Process -->
<g id="edge6" class="edge"><title>Target&#45;&#45;Process</title>
<path fill="none" stroke="black" d="M160.331,-621.092C187.755,-639.61 220.232,-661.175 250,-680 264.198,-688.979 279.344,-698.29 294.22,-707.288"/>
<polygon fill="black" stroke="black" points="292.568,-710.378 302.939,-712.544 296.182,-704.384 292.568,-710.378"/>
<text text-anchor="middle" x="221" y="-672.4" font-family="Times Roman,serif" font-size="14.00">0..1</text>
</g>
<!-- Service -->
<g id="node9" class="node"><title>Service</title>
<a xlink:href="/help/idmefnav?idmef_class=Service" xlink:title="The Service class describes network services on sources and targets. It can identify services by name, port, and protocol. &#160;When Service occurs as an aggregate class of Source, it is understood that the service is one from which activity of interest is originating; and that the service is &quot;attached&quot; to the Node, Process, and User information also contained in Source. &#160;Likewise, when Service occurs as an aggregate class of Target, it is understood that the service is one to which activity of interest is being directed; and that the service is &quot;attached&quot; to the Node, Process, and User information also contained in Target. &#160;If Service occurs in both Source and Target, then information in both locations should be the same. &#160;If information is the same in both locations and implementers wish to carry it in only one location, they should specify it as an aggregate of the Target class. ">
<polygon fill="#997a7a" stroke="#997a7a" points="259,-646 259,-667 520,-667 520,-646 259,-646"/>
<polygon fill="none" stroke="black" points="259,-646 259,-667 520,-667 520,-646 259,-646"/>
<text text-anchor="start" x="369" y="-653.233" font-family="Times Roman,serif" font-size="14.00">Service</text>
</a>
<a xlink:href="/help/idmefnav?idmef_class=Service" xlink:title="A list of port numbers being used; see Section 3.2.8 for formatting rules. &#160;If a portlist is given, the iana_protocol_number and iana_protocol_name MUST apply to all the elements of the list.">
<polygon fill="#ffcccc" stroke="#ffcccc" points="259,-626 259,-646 520,-646 520,-626 259,-626"/>
<polygon fill="none" stroke="black" points="259,-626 259,-646 520,-646 520,-626 259,-626"/>
<text text-anchor="start" x="315.5" y="-632.733" font-family="Times Roman,serif" font-size="14.00">[PORTLIST] portlist (0..1)</text>
</a>
<a xlink:href="/help/idmefnav?idmef_class=Service" xlink:title="Additional information about the protocol being used. &#160;The intent of the protocol field is to carry additional information related to the protocol being used when the &lt;Service&gt; attributes iana_protocol_number or/and iana_protocol_name are filed.">
<polygon fill="#ffcccc" stroke="#ffcccc" points="259,-606 259,-626 520,-626 520,-606 259,-606"/>
<polygon fill="none" stroke="black" points="259,-606 259,-626 520,-626 520,-606 259,-606"/>
<text text-anchor="start" x="319" y="-612.733" font-family="Times Roman,serif" font-size="14.00">[STRING] protocol (0..1)</text>
</a>
<a xlink:href="/help/idmefnav?idmef_class=Service" xlink:title="The name of the service. &#160;Whenever possible, the name from the IANA list of well&#45;known ports SHOULD be used.">
<polygon fill="#ffcccc" stroke="#ffcccc" points="259,-586 259,-606 520,-606 520,-586 259,-586"/>
<polygon fill="none" stroke="black" points="259,-586 259,-606 520,-606 520,-586 259,-586"/>
<text text-anchor="start" x="326.5" y="-592.733" font-family="Times Roman,serif" font-size="14.00">[STRING] name (0..1)</text>
</a>
<a xlink:href="/help/idmefnav?idmef_class=Service" xlink:title="The port number being used.">
<polygon fill="#ffcccc" stroke="#ffcccc" points="259,-566 259,-586 520,-586 520,-566 259,-566"/>
<polygon fill="none" stroke="black" points="259,-566 259,-586 520,-586 520,-566 259,-566"/>
<text text-anchor="start" x="326" y="-572.733" font-family="Times Roman,serif" font-size="14.00">[INTEGER] port (0..1)</text>
</a>
<a xlink:href="/help/idmefnav?idmef_class=Service" xlink:title="The IP version number.">
<polygon fill="#ffcccc" stroke="#ffcccc" points="259,-546 259,-566 520,-566 520,-546 259,-546"/>
<polygon fill="none" stroke="black" points="259,-546 259,-566 520,-566 520,-546 259,-546"/>
<text text-anchor="start" x="295.5" y="-552.733" font-family="Times Roman,serif" font-size="14.00">[INTEGER] ip_version (Optional)</text>
</a>
<a xlink:href="/help/idmefnav?idmef_class=Service" xlink:title="The IANA protocol name.">
<polygon fill="#ffcccc" stroke="#ffcccc" points="259,-526 259,-546 520,-546 520,-526 259,-526"/>
<polygon fill="none" stroke="black" points="259,-526 259,-546 520,-546 520,-526 259,-526"/>
<text text-anchor="start" x="273" y="-532.733" font-family="Times Roman,serif" font-size="14.00">[STRING] iana_protocol_name (Optional)</text>
</a>
<a xlink:href="/help/idmefnav?idmef_class=Service" xlink:title="A unique identifier for the service; see Section 3.2.9.">
<polygon fill="#ffcccc" stroke="#ffcccc" points="259,-506 259,-526 520,-526 520,-506 259,-506"/>
<polygon fill="none" stroke="black" points="259,-506 259,-526 520,-526 520,-506 259,-506"/>
<text text-anchor="start" x="315" y="-512.733" font-family="Times Roman,serif" font-size="14.00">[STRING] ident (Optional)</text>
</a>
<a xlink:href="/help/idmefnav?idmef_class=Service" xlink:title="The IANA protocol number.">
<polygon fill="#ffcccc" stroke="#ffcccc" points="259,-486 259,-506 520,-506 520,-486 259,-486"/>
<polygon fill="none" stroke="black" points="259,-486 259,-506 520,-506 520,-486 259,-486"/>
<text text-anchor="start" x="262.5" y="-492.733" font-family="Times Roman,serif" font-size="14.00">[INTEGER] iana_protocol_number (Optional)</text>
</a>
</g>
<!-- Target&#45;&#45;Service -->
<g id="edge12" class="edge"><title>Target&#45;&#45;Service</title>
<path fill="none" stroke="black" d="M192.345,-577C207.746,-577 223.988,-577 240.267,-577"/>
<polygon fill="black" stroke="black" points="240.4,-580.5 250.4,-577 240.4,-573.5 240.4,-580.5"/>
<text text-anchor="middle" x="221" y="-583.4" font-family="Times Roman,serif" font-size="14.00">0..1</text>
</g>
<!-- User -->
<g id="node15" class="node"><title>User</title>
<a xlink:href="/help/idmefnav?idmef_class=User" xlink:title="The User class is used to describe users. &#160;It is primarily used as a &quot;container&quot; class for the UserId aggregate class, as shown in Figure 16. ">
<polygon fill="#3d7a99" stroke="#3d7a99" points="555,-466 555,-487 722,-487 722,-466 555,-466"/>
<polygon fill="none" stroke="black" points="555,-466 555,-487 722,-487 722,-466 555,-466"/>
<text text-anchor="start" x="625.5" y="-473.233" font-family="Times Roman,serif" font-size="14.00">User</text>
</a>
<a xlink:href="/help/idmefnav?idmef_class=User" xlink:title="The type of user represented. &#160;The permitted values for this attribute are shown below. &#160;The default value is &quot;unknown&quot;. (See also Section 10.)">
<polygon fill="#66ccff" stroke="#66ccff" points="555,-446 555,-466 722,-466 722,-446 555,-446"/>
<polygon fill="none" stroke="black" points="555,-446 555,-466 722,-466 722,-446 555,-446"/>
<text text-anchor="start" x="558.5" y="-452.733" font-family="Times Roman,serif" font-size="14.00">[ENUM] category (Optional)</text>
</a>
<a xlink:href="/help/idmefnav?idmef_class=User" xlink:title="A unique identifier for the user; see Section 3.2.9.">
<polygon fill="#66ccff" stroke="#66ccff" points="555,-426 555,-446 722,-446 722,-426 555,-426"/>
<polygon fill="none" stroke="black" points="555,-426 555,-446 722,-446 722,-426 555,-426"/>
<text text-anchor="start" x="564" y="-432.733" font-family="Times Roman,serif" font-size="14.00">[STRING] ident (Optional)</text>
</a>
</g>
<!-- Target&#45;&#45;User -->
<g id="edge16" class="edge"><title>Target&#45;&#45;User</title>
<path fill="none" stroke="black" d="M146.378,-532.992C174.783,-510.973 212.098,-486.419 250,-474 343.397,-443.397 456.229,-442.133 536.083,-446.718"/>
<polygon fill="black" stroke="black" points="535.948,-450.217 546.144,-447.337 536.377,-443.23 535.948,-450.217"/>
<text text-anchor="middle" x="221" y="-497.4" font-family="Times Roman,serif" font-size="14.00">0..1</text>
</g>
<!-- File -->
<g id="node19" class="node"><title>File</title>
<a xlink:href="/help/idmefnav?idmef_class=File" xlink:title="The File class provides specific information about a file or other file&#45;like object that has been created, deleted, or modified on the target. &#160;The description can provide either the file settings prior to the event or the file settings at the time of the event, as specified using the &quot;category&quot; attribute. ">
<polygon fill="#997a00" stroke="#997a00" points="293,-326 293,-347 486,-347 486,-326 293,-326"/>
<polygon fill="none" stroke="black" points="293,-326 293,-347 486,-347 486,-326 293,-326"/>
<text text-anchor="start" x="378.5" y="-333.233" font-family="Times Roman,serif" font-size="14.00">File</text>
</a>
<a xlink:href="/help/idmefnav?idmef_class=File" xlink:title="The type of file system the file resides on. &#160;This attribute governs how path names and other attributes are interpreted.">
<polygon fill="#ffcc00" stroke="#ffcc00" points="293,-306 293,-326 486,-326 486,-306 293,-306"/>
<polygon fill="none" stroke="black" points="293,-306 293,-326 486,-326 486,-306 293,-306"/>
<text text-anchor="start" x="322.5" y="-312.733" font-family="Times Roman,serif" font-size="14.00">[ENUM] category (0..1)</text>
</a>
<a xlink:href="/help/idmefnav?idmef_class=File" xlink:title="The physical space on disk consumed by the file, in bytes. &#160;On Unix UFS file systems, this value corresponds to 512 * stat.st_blocks. &#160;On Windows NTFS, this value corresponds to End of File (EOF).">
<polygon fill="#ffcc00" stroke="#ffcc00" points="293,-286 293,-306 486,-306 486,-286 293,-286"/>
<polygon fill="none" stroke="black" points="293,-286 293,-306 486,-306 486,-286 293,-286"/>
<text text-anchor="start" x="313" y="-292.733" font-family="Times Roman,serif" font-size="14.00">[INTEGER] disk&#45;size (0..1)</text>
</a>
<a xlink:href="/help/idmefnav?idmef_class=File" xlink:title="A unique identifier for this file; see Section 3.2.9.">
<polygon fill="#ffcc00" stroke="#ffcc00" points="293,-266 293,-286 486,-286 486,-266 293,-266"/>
<polygon fill="none" stroke="black" points="293,-266 293,-286 486,-286 486,-266 293,-266"/>
<text text-anchor="start" x="328" y="-272.733" font-family="Times Roman,serif" font-size="14.00">[STRING] ident (0..1)</text>
</a>
<a xlink:href="/help/idmefnav?idmef_class=File" xlink:title="The name of the file to which the alert applies, not including the path to the file.">
<polygon fill="#ffcc00" stroke="#ffcc00" points="293,-246 293,-266 486,-266 486,-246 293,-246"/>
<polygon fill="none" stroke="black" points="293,-246 293,-266 486,-266 486,-246 293,-246"/>
<text text-anchor="start" x="333.5" y="-252.733" font-family="Times Roman,serif" font-size="14.00">[STRING] name (1)</text>
</a>
<a xlink:href="/help/idmefnav?idmef_class=File" xlink:title="The size of the data, in bytes. &#160;Typically what is meant when referring to file size. &#160;On Unix UFS file systems, this value corresponds to stat.st_size. &#160;On Windows NTFS, this value corresponds to Valid Data Length (VDL).">
<polygon fill="#ffcc00" stroke="#ffcc00" points="293,-226 293,-246 486,-246 486,-226 293,-226"/>
<polygon fill="none" stroke="black" points="293,-226 293,-246 486,-246 486,-226 293,-226"/>
<text text-anchor="start" x="313" y="-232.733" font-family="Times Roman,serif" font-size="14.00">[INTEGER] data&#45;size (0..1)</text>
</a>
<a xlink:href="/help/idmefnav?idmef_class=File" xlink:title="Time the file was created. &#160;Note that this is *not* the Unix &quot;st_ctime&quot; file attribute (which is not file creation time). &#160;The Unix &quot;st_ctime&quot; attribute is contained in the &quot;Inode&quot; class.">
<polygon fill="#ffcc00" stroke="#ffcc00" points="293,-206 293,-226 486,-226 486,-206 293,-206"/>
<polygon fill="none" stroke="black" points="293,-206 293,-226 486,-226 486,-206 293,-206"/>
<text text-anchor="start" x="300.5" y="-212.733" font-family="Times Roman,serif" font-size="14.00">[DATETIME] create&#45;time (0..1)</text>
</a>
<a xlink:href="/help/idmefnav?idmef_class=File" xlink:title="Time the file was last accessed.">
<polygon fill="#ffcc00" stroke="#ffcc00" points="293,-186 293,-206 486,-206 486,-186 293,-186"/>
<polygon fill="none" stroke="black" points="293,-186 293,-206 486,-206 486,-186 293,-186"/>
<text text-anchor="start" x="299" y="-192.733" font-family="Times Roman,serif" font-size="14.00">[DATETIME] access&#45;time (0..1)</text>
</a>
<a xlink:href="/help/idmefnav?idmef_class=File" xlink:title="The full path to the file, including the name. &#160;The path name should be represented in as &quot;universal&quot; a manner as possible, to facilitate processing of the alert.">
<polygon fill="#ffcc00" stroke="#ffcc00" points="293,-166 293,-186 486,-186 486,-166 293,-166"/>
<polygon fill="none" stroke="black" points="293,-166 293,-186 486,-186 486,-166 293,-166"/>
<text text-anchor="start" x="337" y="-172.733" font-family="Times Roman,serif" font-size="14.00">[STRING] path (1)</text>
</a>
<a xlink:href="/help/idmefnav?idmef_class=File" xlink:title="The type of file, as a mime&#45;type.">
<polygon fill="#ffcc00" stroke="#ffcc00" points="293,-146 293,-166 486,-166 486,-146 293,-146"/>
<polygon fill="none" stroke="black" points="293,-146 293,-166 486,-166 486,-146 293,-146"/>
<text text-anchor="start" x="318.5" y="-152.733" font-family="Times Roman,serif" font-size="14.00">[STRING] file&#45;type (0..1)</text>
</a>
<a xlink:href="/help/idmefnav?idmef_class=File" xlink:title="Time the file was last modified.">
<polygon fill="#ffcc00" stroke="#ffcc00" points="293,-126 293,-146 486,-146 486,-126 293,-126"/>
<polygon fill="none" stroke="black" points="293,-126 293,-146 486,-146 486,-126 293,-126"/>
<text text-anchor="start" x="296.5" y="-132.733" font-family="Times Roman,serif" font-size="14.00">[DATETIME] modify&#45;time (0..1)</text>
</a>
</g>
<!-- Target&#45;&#45;File -->
<g id="edge30" class="edge"><title>Target&#45;&#45;File</title>
<path fill="none" stroke="black" d="M123.73,-532.88C145.654,-499.16 177.828,-452.144 210,-414 230.684,-389.477 254.223,-364.464 277.28,-341.259"/>
<polygon fill="black" stroke="black" points="279.823,-343.665 284.417,-334.118 274.872,-338.717 279.823,-343.665"/>
<text text-anchor="middle" x="221" y="-420.4" font-family="Times Roman,serif" font-size="14.00">0..1</text>
</g>
<!-- SNMPService -->
<g id="node8" class="node"><title>SNMPService</title>
<a xlink:href="/help/idmefnav?idmef_class=SNMPService" xlink:title="The SNMPService class carries additional information related to SNMP traffic. &#160;The aggregate classes composing SNMPService must be interpreted as described in RFC 3411 [15] and RFC 3584 [16]. ">
<polygon fill="#997a7a" stroke="#997a7a" points="757,-791 757,-812 1010,-812 1010,-791 757,-791"/>
<polygon fill="none" stroke="black" points="757,-791 757,-812 1010,-812 1010,-791 757,-791"/>
<text text-anchor="start" x="844" y="-798.233" font-family="Times Roman,serif" font-size="14.00">SNMPService</text>
</a>
<a xlink:href="/help/idmefnav?idmef_class=SNMPService" xlink:title="The security level of the SNMP request; see RFC 3411 [15] Section 3.4.3.">
<polygon fill="#ffcccc" stroke="#ffcccc" points="757,-771 757,-791 1010,-791 1010,-771 757,-771"/>
<polygon fill="none" stroke="black" points="757,-771 757,-791 1010,-791 1010,-771 757,-771"/>
<text text-anchor="start" x="794.5" y="-777.733" font-family="Times Roman,serif" font-size="14.00">[INTEGER] securityLevel (0..1)</text>
</a>
<a xlink:href="/help/idmefnav?idmef_class=SNMPService" xlink:title="The object&#39;s context name; see RFC 3411 [15] Section 3.3.3.">
<polygon fill="#ffcccc" stroke="#ffcccc" points="757,-751 757,-771 1010,-771 1010,-751 757,-751"/>
<polygon fill="none" stroke="black" points="757,-751 757,-771 1010,-771 1010,-751 757,-751"/>
<text text-anchor="start" x="799" y="-757.733" font-family="Times Roman,serif" font-size="14.00">[STRING] contextName (0..1)</text>
</a>
<a xlink:href="/help/idmefnav?idmef_class=SNMPService" xlink:title="The object&#39;s context engine identifier; see RFC 3411 [15] Section 3.3.2.">
<polygon fill="#ffcccc" stroke="#ffcccc" points="757,-731 757,-751 1010,-751 1010,-731 757,-731"/>
<polygon fill="none" stroke="black" points="757,-731 757,-751 1010,-751 1010,-731 757,-731"/>
<text text-anchor="start" x="789.5" y="-737.733" font-family="Times Roman,serif" font-size="14.00">[STRING] contextEngineID (0..1)</text>
</a>
<a xlink:href="/help/idmefnav?idmef_class=SNMPService" xlink:title="The object identifier in the request.">
<polygon fill="#ffcccc" stroke="#ffcccc" points="757,-711 757,-731 1010,-731 1010,-711 757,-711"/>
<polygon fill="none" stroke="black" points="757,-711 757,-731 1010,-731 1010,-711 757,-711"/>
<text text-anchor="start" x="827" y="-717.733" font-family="Times Roman,serif" font-size="14.00">[STRING] oid (0..1)</text>
</a>
<a xlink:href="/help/idmefnav?idmef_class=SNMPService" xlink:title="The SNMP version, typically 0 for SNMPv1, 1 for SNMPv2c, 2 for SNMPv2u and SNMPv2*, and 3 for SNMPv3; see RFC 3411 [15] Section 5 for appropriate values.">
<polygon fill="#ffcccc" stroke="#ffcccc" points="757,-691 757,-711 1010,-711 1010,-691 757,-691"/>
<polygon fill="none" stroke="black" points="757,-691 757,-711 1010,-711 1010,-691 757,-691"/>
<text text-anchor="start" x="760.5" y="-697.733" font-family="Times Roman,serif" font-size="14.00">[INTEGER] messageProcessingModel (0..1)</text>
</a>
<a xlink:href="/help/idmefnav?idmef_class=SNMPService" xlink:title="The command sent to the SNMP server (GET, SET, etc.).">
<polygon fill="#ffcccc" stroke="#ffcccc" points="757,-671 757,-691 1010,-691 1010,-671 757,-671"/>
<polygon fill="none" stroke="black" points="757,-671 757,-691 1010,-691 1010,-671 757,-671"/>
<text text-anchor="start" x="808" y="-677.733" font-family="Times Roman,serif" font-size="14.00">[STRING] command (0..1)</text>
</a>
<a xlink:href="/help/idmefnav?idmef_class=SNMPService" xlink:title="The object&#39;s security name; see RFC 3411 [15] Section 3.2.2.">
<polygon fill="#ffcccc" stroke="#ffcccc" points="757,-651 757,-671 1010,-671 1010,-651 757,-651"/>
<polygon fill="none" stroke="black" points="757,-651 757,-671 1010,-671 1010,-651 757,-651"/>
<text text-anchor="start" x="797.5" y="-657.733" font-family="Times Roman,serif" font-size="14.00">[STRING] securityName (0..1)</text>
</a>
<a xlink:href="/help/idmefnav?idmef_class=SNMPService" xlink:title="The identification of the security model in use, typically 0 for any, 1 for SNMPv1, 2 for SNMPv2c, and 3 for USM; see RFC 3411 [15] Section 5 for appropriate values.">
<polygon fill="#ffcccc" stroke="#ffcccc" points="757,-631 757,-651 1010,-651 1010,-631 757,-631"/>
<polygon fill="none" stroke="black" points="757,-631 757,-651 1010,-651 1010,-631 757,-631"/>
<text text-anchor="start" x="791.5" y="-637.733" font-family="Times Roman,serif" font-size="14.00">[INTEGER] securityModel (0..1)</text>
</a>
</g>
<!-- Service&#45;&#45;SNMPService -->
<g id="edge8" class="edge"><title>Service&#45;&#45;SNMPService</title>
<path fill="none" stroke="black" d="M537.395,-620.557C604.426,-640.232 683.049,-663.31 748.355,-682.479"/>
<polygon fill="none" stroke="black" points="528.578,-614.322 537.187,-620.496 526.606,-621.038 528.578,-614.322"/>
</g>
<!-- WebService -->
<g id="node11" class="node"><title>WebService</title>
<a xlink:href="/help/idmefnav?idmef_class=WebService" xlink:title="The WebService class carries additional information related to web traffic. ">
<polygon fill="#997a7a" stroke="#997a7a" points="798,-585 798,-606 968,-606 968,-585 798,-585"/>
<polygon fill="none" stroke="black" points="798,-585 798,-606 968,-606 968,-585 798,-585"/>
<text text-anchor="start" x="849.5" y="-592.233" font-family="Times Roman,serif" font-size="14.00">WebService</text>
</a>
<a xlink:href="/help/idmefnav?idmef_class=WebService" xlink:title="The URL in the request.">
<polygon fill="#ffcccc" stroke="#ffcccc" points="798,-565 798,-585 968,-585 968,-565 798,-565"/>
<polygon fill="none" stroke="black" points="798,-565 798,-585 968,-585 968,-565 798,-565"/>
<text text-anchor="start" x="834.5" y="-571.733" font-family="Times Roman,serif" font-size="14.00">[STRING] url (1)</text>
</a>
<a xlink:href="/help/idmefnav?idmef_class=WebService" xlink:title="The CGI script in the request, without arguments.">
<polygon fill="#ffcccc" stroke="#ffcccc" points="798,-545 798,-565 968,-565 968,-545 798,-545"/>
<polygon fill="none" stroke="black" points="798,-545 798,-565 968,-565 968,-545 798,-545"/>
<text text-anchor="start" x="827" y="-551.733" font-family="Times Roman,serif" font-size="14.00">[STRING] cgi (0..1)</text>
</a>
<a xlink:href="/help/idmefnav?idmef_class=WebService" xlink:title="The HTTP method (PUT, GET) used in the request.">
<polygon fill="#ffcccc" stroke="#ffcccc" points="798,-525 798,-545 968,-545 968,-525 798,-525"/>
<polygon fill="none" stroke="black" points="798,-525 798,-545 968,-545 968,-525 798,-525"/>
<text text-anchor="start" x="801.5" y="-531.733" font-family="Times Roman,serif" font-size="14.00">[STRING] http&#45;method (0..1)</text>
</a>
<a xlink:href="/help/idmefnav?idmef_class=WebService" xlink:title="The arguments to the CGI script.">
<polygon fill="#ffcccc" stroke="#ffcccc" points="798,-505 798,-525 968,-525 968,-505 798,-505"/>
<polygon fill="none" stroke="black" points="798,-505 798,-525 968,-525 968,-505 798,-505"/>
<text text-anchor="start" x="826.5" y="-511.733" font-family="Times Roman,serif" font-size="14.00">[STRING] arg (0..*)</text>
</a>
</g>
<!-- Service&#45;&#45;WebService -->
<g id="edge10" class="edge"><title>Service&#45;&#45;WebService</title>
<path fill="none" stroke="black" d="M537.751,-570.677C619.68,-567.194 718.839,-562.979 789.83,-559.961"/>
<polygon fill="none" stroke="black" points="527.444,-567.612 537.583,-570.684 527.741,-574.605 527.444,-567.612"/>
</g>
<!-- UserId -->
<g id="node14" class="node"><title>UserId</title>
<a xlink:href="/help/idmefnav?idmef_class=UserId" xlink:title="The UserId class provides specific information about a user. &#160;More than one UserId can be used within the User class to indicate attempts to transition from one user to another, or to provide complete information about a user&#39;s (or process&#39;) privileges. ">
<polygon fill="#3d7a99" stroke="#3d7a99" points="1070,-451 1070,-472 1226,-472 1226,-451 1070,-451"/>
<polygon fill="none" stroke="black" points="1070,-451 1070,-472 1226,-472 1226,-451 1070,-451"/>
<text text-anchor="start" x="1129.5" y="-458.233" font-family="Times Roman,serif" font-size="14.00">UserId</text>
</a>
<a xlink:href="/help/idmefnav?idmef_class=UserId" xlink:title="A user or group name.">
<polygon fill="#66ccff" stroke="#66ccff" points="1070,-431 1070,-451 1226,-451 1226,-431 1070,-431"/>
<polygon fill="none" stroke="black" points="1070,-431 1070,-451 1226,-451 1226,-431 1070,-431"/>
<text text-anchor="start" x="1085" y="-437.733" font-family="Times Roman,serif" font-size="14.00">[STRING] name (0..1)</text>
</a>
<a xlink:href="/help/idmefnav?idmef_class=UserId" xlink:title="A user or group number.">
<polygon fill="#66ccff" stroke="#66ccff" points="1070,-411 1070,-431 1226,-431 1226,-411 1070,-411"/>
<polygon fill="none" stroke="black" points="1070,-411 1070,-431 1226,-431 1226,-411 1070,-411"/>
<text text-anchor="start" x="1074.5" y="-417.733" font-family="Times Roman,serif" font-size="14.00">[INTEGER] number (0..1)</text>
</a>
<a xlink:href="/help/idmefnav?idmef_class=UserId" xlink:title="The tty the user is using.">
<polygon fill="#66ccff" stroke="#66ccff" points="1070,-391 1070,-411 1226,-411 1226,-391 1070,-391"/>
<polygon fill="none" stroke="black" points="1070,-391 1070,-411 1226,-411 1226,-391 1070,-391"/>
<text text-anchor="start" x="1080" y="-397.733" font-family="Times Roman,serif" font-size="14.00">[STRING] tty (Optional)</text>
</a>
<a xlink:href="/help/idmefnav?idmef_class=UserId" xlink:title="A unique identifier for the user id, see Section 3.2.9.">
<polygon fill="#66ccff" stroke="#66ccff" points="1070,-371 1070,-391 1226,-391 1226,-371 1070,-371"/>
<polygon fill="none" stroke="black" points="1070,-371 1070,-391 1226,-391 1226,-371 1070,-371"/>
<text text-anchor="start" x="1073.5" y="-377.733" font-family="Times Roman,serif" font-size="14.00">[STRING] ident (Optional)</text>
</a>
<a xlink:href="/help/idmefnav?idmef_class=UserId" xlink:title="The type of user information represented. &#160;The permitted values for this attribute are shown below. &#160;The default value is &quot;original&#45;user&quot;. &#160;(See also Section 10.)">
<polygon fill="#66ccff" stroke="#66ccff" points="1070,-351 1070,-371 1226,-371 1226,-351 1070,-351"/>
<polygon fill="none" stroke="black" points="1070,-351 1070,-371 1226,-371 1226,-351 1070,-351"/>
<text text-anchor="start" x="1079.5" y="-357.733" font-family="Times Roman,serif" font-size="14.00">[ENUM] type (Optional)</text>
</a>
</g>
<!-- User&#45;&#45;UserId -->
<g id="edge14" class="edge"><title>User&#45;&#45;UserId</title>
<path fill="none" stroke="black" d="M729.632,-454.706C806.763,-452.055 919.876,-446.481 1018,-435 1029,-433.712 1040.49,-432.091 1051.88,-430.308"/>
<polygon fill="black" stroke="black" points="1052.53,-433.748 1061.85,-428.703 1051.42,-426.837 1052.53,-433.748"/>
<text text-anchor="middle" x="883" y="-460.4" font-family="Times Roman,serif" font-size="14.00">1..*</text>
</g>
<!-- Checksum -->
<g id="node18" class="node"><title>Checksum</title>
<a xlink:href="/help/idmefnav?idmef_class=Checksum" xlink:title="The Checksum class represents checksum information associated with the file. &#160;This checksum information can be provided by file integrity checkers, among others. ">
<polygon fill="#997a00" stroke="#997a00" points="795,-401 795,-422 971,-422 971,-401 795,-401"/>
<polygon fill="none" stroke="black" points="795,-401 795,-422 971,-422 971,-401 795,-401"/>
<text text-anchor="start" x="854" y="-408.233" font-family="Times Roman,serif" font-size="14.00">Checksum</text>
</a>
<a xlink:href="/help/idmefnav?idmef_class=Checksum" xlink:title="The value of the checksum.">
<polygon fill="#ffcc00" stroke="#ffcc00" points="795,-381 795,-401 971,-401 971,-381 795,-381"/>
<polygon fill="none" stroke="black" points="795,-381 795,-401 971,-401 971,-381 795,-381"/>
<text text-anchor="start" x="827.5" y="-387.733" font-family="Times Roman,serif" font-size="14.00">[STRING] value (1)</text>
</a>
<a xlink:href="/help/idmefnav?idmef_class=Checksum" xlink:title="The key to the checksum, if appropriate.">
<polygon fill="#ffcc00" stroke="#ffcc00" points="795,-361 795,-381 971,-381 971,-361 795,-361"/>
<polygon fill="none" stroke="black" points="795,-361 795,-381 971,-381 971,-361 795,-361"/>
<text text-anchor="start" x="825.5" y="-367.733" font-family="Times Roman,serif" font-size="14.00">[STRING] key (0..1)</text>
</a>
<a xlink:href="/help/idmefnav?idmef_class=Checksum" xlink:title="default value. &#160;(See also Section 10.)">
<polygon fill="#ffcc00" stroke="#ffcc00" points="795,-341 795,-361 971,-361 971,-341 795,-341"/>
<polygon fill="none" stroke="black" points="795,-341 795,-361 971,-361 971,-341 795,-341"/>
<text text-anchor="start" x="798.5" y="-347.733" font-family="Times Roman,serif" font-size="14.00">[ENUM] algorithm (Required)</text>
</a>
</g>
<!-- File&#45;&#45;Checksum -->
<g id="edge18" class="edge"><title>File&#45;&#45;Checksum</title>
<path fill="none" stroke="black" d="M493.809,-281.456C511.095,-288.093 528.939,-294.532 546,-300 622.085,-324.384 709.833,-345.52 776.714,-360.225"/>
<polygon fill="black" stroke="black" points="776.328,-363.723 786.844,-362.438 777.822,-356.884 776.328,-363.723"/>
<text text-anchor="middle" x="638" y="-356.4" font-family="Times Roman,serif" font-size="14.00">0..*</text>
</g>
<!-- FileAccess -->
<g id="node21" class="node"><title>FileAccess</title>
<a xlink:href="/help/idmefnav?idmef_class=FileAccess" xlink:title="The FileAccess class represents the access permissions on a file. The representation is intended to be useful across operating systems. ">
<polygon fill="#997a00" stroke="#997a00" points="806,-295 806,-316 961,-316 961,-295 806,-295"/>
<polygon fill="none" stroke="black" points="806,-295 806,-316 961,-316 961,-295 806,-295"/>
<text text-anchor="start" x="853.5" y="-302.233" font-family="Times Roman,serif" font-size="14.00">FileAccess</text>
</a>
<a xlink:href="/help/idmefnav?idmef_class=FileAccess" xlink:title="Level of access allowed. &#160;The permitted values are shown below. &#160;There is no default value. &#160;(See also Section 10.)">
<polygon fill="#ffcc00" stroke="#ffcc00" points="806,-275 806,-295 961,-295 961,-275 806,-275"/>
<polygon fill="none" stroke="black" points="806,-275 806,-295 961,-295 961,-275 806,-275"/>
<text text-anchor="start" x="809.5" y="-281.733" font-family="Times Roman,serif" font-size="14.00">[ENUM] Permission (1..*)</text>
</a>
</g>
<!-- File&#45;&#45;FileAccess -->
<g id="edge22" class="edge"><title>File&#45;&#45;FileAccess</title>
<path fill="none" stroke="black" d="M493.765,-249.512C580.583,-259.881 702.966,-274.498 787.207,-284.559"/>
<polygon fill="black" stroke="black" points="786.942,-288.052 797.287,-285.763 787.772,-281.102 786.942,-288.052"/>
<text text-anchor="middle" x="638" y="-283.4" font-family="Times Roman,serif" font-size="14.00">0..*</text>
</g>
<!-- Inode -->
<g id="node24" class="node"><title>Inode</title>
<a xlink:href="/help/idmefnav?idmef_class=Inode" xlink:title="The Inode class is used to represent the additional information contained in a Unix file system i&#45;node. ">
<polygon fill="#997a00" stroke="#997a00" points="786,-229 786,-250 981,-250 981,-229 786,-229"/>
<polygon fill="none" stroke="black" points="786,-229 786,-250 981,-250 981,-229 786,-229"/>
<text text-anchor="start" x="868" y="-236.233" font-family="Times Roman,serif" font-size="14.00">Inode</text>
</a>
<a xlink:href="/help/idmefnav?idmef_class=Inode" xlink:title="The minor device of the file itself, if it is a character special device.">
<polygon fill="#ffcc00" stroke="#ffcc00" points="786,-209 786,-229 981,-229 981,-209 786,-209"/>
<polygon fill="none" stroke="black" points="786,-209 786,-229 981,-229 981,-209 786,-209"/>
<text text-anchor="start" x="789.5" y="-215.733" font-family="Times Roman,serif" font-size="14.00">[INTEGER] c&#45;minor&#45;device (0..1)</text>
</a>
<a xlink:href="/help/idmefnav?idmef_class=Inode" xlink:title="The time of the last inode change, given by the st_ctime element of &quot;struct stat&quot;.">
<polygon fill="#ffcc00" stroke="#ffcc00" points="786,-189 786,-209 981,-209 981,-189 786,-189"/>
<polygon fill="none" stroke="black" points="786,-189 786,-209 981,-209 981,-189 786,-189"/>
<text text-anchor="start" x="791.5" y="-195.733" font-family="Times Roman,serif" font-size="14.00">[DATETIME] change&#45;time (0..1)</text>
</a>
<a xlink:href="/help/idmefnav?idmef_class=Inode" xlink:title="The minor device number of the device the file resides on.">
<polygon fill="#ffcc00" stroke="#ffcc00" points="786,-169 786,-189 981,-189 981,-169 786,-169"/>
<polygon fill="none" stroke="black" points="786,-169 786,-189 981,-189 981,-169 786,-169"/>
<text text-anchor="start" x="794.5" y="-175.733" font-family="Times Roman,serif" font-size="14.00">[INTEGER] minor&#45;device (0..1)</text>
</a>
<a xlink:href="/help/idmefnav?idmef_class=Inode" xlink:title="The major device number of the device the file resides on.">
<polygon fill="#ffcc00" stroke="#ffcc00" points="786,-149 786,-169 981,-169 981,-149 786,-149"/>
<polygon fill="none" stroke="black" points="786,-149 786,-169 981,-169 981,-149 786,-149"/>
<text text-anchor="start" x="795" y="-155.733" font-family="Times Roman,serif" font-size="14.00">[INTEGER] major&#45;device (0..1)</text>
</a>
<a xlink:href="/help/idmefnav?idmef_class=Inode" xlink:title="The major device of the file itself, if it is a character special device.">
<polygon fill="#ffcc00" stroke="#ffcc00" points="786,-129 786,-149 981,-149 981,-129 786,-129"/>
<polygon fill="none" stroke="black" points="786,-129 786,-149 981,-149 981,-129 786,-129"/>
<text text-anchor="start" x="790" y="-135.733" font-family="Times Roman,serif" font-size="14.00">[INTEGER] c&#45;major&#45;device (0..1)</text>
</a>
<a xlink:href="/help/idmefnav?idmef_class=Inode" xlink:title="The inode number.">
<polygon fill="#ffcc00" stroke="#ffcc00" points="786,-109 786,-129 981,-129 981,-109 786,-109"/>
<polygon fill="none" stroke="black" points="786,-109 786,-129 981,-129 981,-109 786,-109"/>
<text text-anchor="start" x="810" y="-115.733" font-family="Times Roman,serif" font-size="14.00">[INTEGER] number (0..1)</text>
</a>
</g>
<!-- File&#45;&#45;Inode -->
<g id="edge24" class="edge"><title>File&#45;&#45;Inode</title>
<path fill="none" stroke="black" d="M493.765,-224.912C573.915,-215.664 684.377,-202.918 767.156,-193.367"/>
<polygon fill="black" stroke="black" points="767.577,-196.841 777.11,-192.218 766.775,-189.887 767.577,-196.841"/>
<text text-anchor="middle" x="638" y="-225.4" font-family="Times Roman,serif" font-size="14.00">0..1</text>
</g>
<!-- Linkage -->
<g id="node26" class="node"><title>Linkage</title>
<a xlink:href="/help/idmefnav?idmef_class=Linkage" xlink:title="The Linkage class represents file system connections between the file described in the &lt;File&gt; element and other objects in the file system. For example, if the &lt;File&gt; element is a symbolic link or shortcut, then the &lt;Linkage&gt; element should contain the name of the object the link points to. &#160;Further information can be provided about the object in the &lt;Linkage&gt; element with another &lt;File&gt; element, if appropriate. ">
<polygon fill="#997a00" stroke="#997a00" points="800,-63 800,-84 967,-84 967,-63 800,-63"/>
<polygon fill="none" stroke="black" points="800,-63 800,-84 967,-84 967,-63 800,-63"/>
<text text-anchor="start" x="861" y="-70.2333" font-family="Times Roman,serif" font-size="14.00">Linkage</text>
</a>
<a xlink:href="/help/idmefnav?idmef_class=Linkage" xlink:title="The full path to the file system object, including the name. &#160;The path name should be represented in as &quot;universal&quot; a manner as possible, to facilitate processing of the alert.">
<polygon fill="#ffcc00" stroke="#ffcc00" points="800,-43 800,-63 967,-63 967,-43 800,-43"/>
<polygon fill="none" stroke="black" points="800,-43 800,-63 967,-63 967,-43 800,-43"/>
<text text-anchor="start" x="831" y="-49.7333" font-family="Times Roman,serif" font-size="14.00">[STRING] path (1)</text>
</a>
<a xlink:href="/help/idmefnav?idmef_class=Linkage" xlink:title="The name of the file system object, not including the path.">
<polygon fill="#ffcc00" stroke="#ffcc00" points="800,-23 800,-43 967,-43 967,-23 800,-23"/>
<polygon fill="none" stroke="black" points="800,-23 800,-43 967,-43 967,-23 800,-23"/>
<text text-anchor="start" x="827.5" y="-29.7333" font-family="Times Roman,serif" font-size="14.00">[STRING] name (1)</text>
</a>
<a xlink:href="/help/idmefnav?idmef_class=Linkage" xlink:title="Section 10.)">
<polygon fill="#ffcc00" stroke="#ffcc00" points="800,-3 800,-23 967,-23 967,-3 800,-3"/>
<polygon fill="none" stroke="black" points="800,-3 800,-23 967,-23 967,-3 800,-3"/>
<text text-anchor="start" x="803.5" y="-9.73333" font-family="Times Roman,serif" font-size="14.00">[ENUM] category (Optional)</text>
</a>
</g>
<!-- File&#45;&#45;Linkage -->
<g id="edge28" class="edge"><title>File&#45;&#45;Linkage</title>
<path fill="none" stroke="black" d="M493.765,-196.07C578.714,-162.881 697.714,-116.389 781.715,-83.5709"/>
<polygon fill="black" stroke="black" points="783.226,-86.738 791.267,-79.8389 780.679,-80.218 783.226,-86.738"/>
<text text-anchor="middle" x="638" y="-181.4" font-family="Times Roman,serif" font-size="14.00">0..*</text>
</g>
<!-- FileAccess&#45;&#45;UserId -->
<g id="edge20" class="edge"><title>FileAccess&#45;&#45;UserId</title>
<path fill="none" stroke="black" d="M968.645,-312.433C985.34,-316.886 1002.47,-322.361 1018,-329 1029.67,-333.991 1041.48,-339.98 1052.98,-346.426"/>
<polygon fill="black" stroke="black" points="1051.28,-349.49 1061.7,-351.436 1054.77,-343.42 1051.28,-349.49"/>
<text text-anchor="middle" x="1040" y="-346.4" font-family="Times Roman,serif" font-size="14.00">1</text>
</g>
<!-- Linkage&#45;&#45;File -->
<g id="edge26" class="edge"><title>Linkage&#45;&#45;File</title>
<path fill="none" stroke="black" d="M791.356,-39.2841C720.974,-39.2559 623.099,-47.2012 546,-84 528.304,-92.446 511.372,-103.689 495.614,-116.262"/>
<polygon fill="black" stroke="black" points="492.982,-113.894 487.482,-122.95 497.429,-119.301 492.982,-113.894"/>
<text text-anchor="middle" x="638" y="-90.4" font-family="Times Roman,serif" font-size="14.00">1</text>
</g>
</g>
</svg>
