<?xml version="1.0" encoding="UTF-8" standalone="no"?>
<!DOCTYPE svg PUBLIC "-//W3C//DTD SVG 1.1//EN"
 "http://www.w3.org/Graphics/SVG/1.1/DTD/svg11.dtd">
<!-- Generated by graphviz version 2.26.0 (20091210.2329)
 -->
<!-- Title: _anonymous_0 Pages: 1 -->
<svg width="194pt" height="116pt"
 viewBox="0.00 0.00 194.00 116.00" xmlns="http://www.w3.org/2000/svg" xmlns:xlink="http://www.w3.org/1999/xlink">
<g id="graph1" class="graph" transform="scale(1 1) rotate(0) translate(4 112)">
<title>_anonymous_0</title>
<polygon fill="white" stroke="white" points="-4,5 -4,-112 191,-112 191,5 -4,5"/>
<!-- WebService -->
<g id="node1" class="node"><title>WebService</title>
<a xlink:href="/help/idmefnav?idmef_class=WebService" xlink:title="The WebService class carries additional information related to web traffic. ">
<polygon fill="#997a7a" stroke="#997a7a" points="8,-83 8,-104 178,-104 178,-83 8,-83"/>
<polygon fill="none" stroke="black" points="8,-83 8,-104 178,-104 178,-83 8,-83"/>
<text text-anchor="start" x="59.5" y="-90.2333" font-family="Times Roman,serif" font-size="14.00">WebService</text>
</a>
<a xlink:href="/help/idmefnav?idmef_class=WebService" xlink:title="The URL in the request.">
<polygon fill="#ffcccc" stroke="#ffcccc" points="8,-63 8,-83 178,-83 178,-63 8,-63"/>
<polygon fill="none" stroke="black" points="8,-63 8,-83 178,-83 178,-63 8,-63"/>
<text text-anchor="start" x="44.5" y="-69.7333" font-family="Times Roman,serif" font-size="14.00">[STRING] url (1)</text>
</a>
<a xlink:href="/help/idmefnav?idmef_class=WebService" xlink:title="The CGI script in the request, without arguments.">
<polygon fill="#ffcccc" stroke="#ffcccc" points="8,-43 8,-63 178,-63 178,-43 8,-43"/>
<polygon fill="none" stroke="black" points="8,-43 8,-63 178,-63 178,-43 8,-43"/>
<text text-anchor="start" x="37" y="-49.7333" font-family="Times Roman,serif" font-size="14.00">[STRING] cgi (0..1)</text>
</a>
<a xlink:href="/help/idmefnav?idmef_class=WebService" xlink:title="The HTTP method (PUT, GET) used in the request.">
<polygon fill="#ffcccc" stroke="#ffcccc" points="8,-23 8,-43 178,-43 178,-23 8,-23"/>
<polygon fill="none" stroke="black" points="8,-23 8,-43 178,-43 178,-23 8,-23"/>
<text text-anchor="start" x="11.5" y="-29.7333" font-family="Times Roman,serif" font-size="14.00">[STRING] http&#45;method (0..1)</text>
</a>
<a xlink:href="/help/idmefnav?idmef_class=WebService" xlink:title="The arguments to the CGI script.">
<polygon fill="#ffcccc" stroke="#ffcccc" points="8,-3 8,-23 178,-23 178,-3 8,-3"/>
<polygon fill="none" stroke="black" points="8,-3 8,-23 178,-23 178,-3 8,-3"/>
<text text-anchor="start" x="36.5" y="-9.73333" font-family="Times Roman,serif" font-size="14.00">[STRING] arg (0..*)</text>
</a>
</g>
</g>
</svg>
